<?xml version="1.0" standalone="no"?>
<!DOCTYPE svg PUBLIC "-//W3C//DTD SVG 1.1//EN" "http://www.w3.org/Graphics/SVG/1.1/DTD/svg11.dtd" >
<svg xmlns="http://www.w3.org/2000/svg" xmlns:xlink="http://www.w3.org/1999/xlink" version="1.1">
<metadata>
Created by FontForge 20150318 at Thu Dec  3 03:17:20 2015
 By uniteet7
Copyright (c) 2013 by Fontcraft : Jutipong Poosumas. All rights reserved.
</metadata>
<defs>
<font id="SuperspaceRegularver1_00" horiz-adv-x="0" >
  <font-face 
    font-family="SuperspaceRegularver1_00"
    font-weight="400"
    font-stretch="normal"
    units-per-em="2048"
    panose-1="2 0 0 0 0 0 0 0 0 0"
    ascent="1638"
    descent="-410"
    x-height="966"
    cap-height="1161"
    bbox="-966 -808 2015 1846"
    underline-thickness="72"
    underline-position="-149"
    unicode-range="U+0020-25CC"
  />
<missing-glyph horiz-adv-x="1536" 
d="M256 0v1280h1024v-1280h-1024zM1238 32q10 0 10 10v1196q0 10 -10 10h-940q-10 0 -10 -10v-1196q0 -10 10 -10h940z" />
    <glyph glyph-name="quotedblleft" unicode="&#x91;&#x91;" horiz-adv-x="623" 
d="M94 1314h156l-7 -400h-138zM359 1314h156l-7 -400h-138z" />
    <glyph glyph-name="quotedblright" unicode="&#x92;&#x92;" horiz-adv-x="626" 
d="M102 1314h156l-7 -400h-138zM367 1314h156l-7 -400h-138z" />
    <glyph glyph-name="copyright2" unicode="&#x3b;&#x3b;For&#x20;Education&#x20;Used&#x20;Only&#x3b;&#x3b;" horiz-adv-x="1306" 
d="M759 1228q92 0 178 -24.5t161 -68.5t136.5 -105.5t105.5 -136.5t68.5 -161t24.5 -179t-24.5 -179t-68.5 -160.5t-105.5 -136t-136.5 -105.5t-161 -68t-178 -24q-140 0 -262.5 53t-214 144.5t-144.5 214t-53 261.5q0 93 24 179t68 161t105.5 136.5t136.5 105.5t161 68.5
t179 24.5zM1133 179q73 72 114 168t41 206q0 109 -41.5 205.5t-113.5 168.5t-168.5 114t-205.5 42q-73 0 -141 -19t-127 -53.5t-107 -83t-82.5 -107.5t-53.5 -126.5t-19 -140.5q0 -109 41.5 -205t113.5 -168t168.5 -113.5t206.5 -41.5h6q12 0 31 1t50 7t74 20t103 40l-3 -1
q31 18 59.5 39.5t52.5 47.5h1zM760 301q45 0 106.5 14t142.5 43l47 -135q-91 -32 -165 -47.5t-131 -15.5q-66 0 -122 15.5t-98 44.5t-68.5 69t-33.5 90q-2 12 -6.5 59t-4.5 115q0 38 2 77t9 76v-1q6 49 32.5 89.5t68.5 68.5t98.5 43.5t123.5 15.5q56 0 130 -15.5t165 -47.5
l-47 -134q-81 30 -142 43t-106 13q-85 0 -131 -28t-54 -68l1 1q-5 -34 -7 -68.5t-2 -64.5q0 -38 2.5 -71t4.5 -55v1q2 -8 2 -16.5v-16.5q9 -40 55.5 -67t127.5 -27z" />
    <glyph glyph-name="registered2" unicode="&#x3b;&#x3b;Registered&#x3b;&#x3b;" horiz-adv-x="1306" 
d="M756 1216q91 0 176 -24t159 -67.5t135 -104.5t105 -135.5t68 -159.5t24 -177t-24 -177t-68 -159.5t-105 -135t-135 -104t-159 -67.5t-176 -24q-92 0 -177.5 24t-159.5 67.5t-135 104t-104.5 135t-67.5 159.5t-24 177t24 177t67.5 159.5t104.5 135.5t135 104.5t159.5 67.5
t177.5 24zM1126 177q72 72 113 167t41 204q0 108 -41 203.5t-112.5 167t-167 113t-203.5 41.5q-73 0 -140 -19t-125.5 -53t-106.5 -82t-82 -106.5t-53 -125.5t-19 -139q0 -108 41.5 -203.5t112.5 -167t167 -112.5t205 -41h6q11 0 30 1t49.5 7.5t73.5 20t102 39.5l-3 -1
q30 18 58.5 39t52.5 47h1zM972 432q19 -43 52.5 -106t86.5 -145h-166q-24 40 -44 78.5t-36 73t-28 63.5t-20 50h-199v-264h-140v735h251q41 0 78 -1t66 -4h-1q52 -6 88.5 -22.5t59 -46t32.5 -72t10 -99.5q0 -81 -24.5 -131.5t-79.5 -71.5l1 -2q2 -8 6 -17.5t7 -17.5z
M768 588h87.5t46.5 7t18.5 24.5t3.5 53.5q0 38 -7.5 59t-29 30.5t-59.5 11.5t-99 2h-111v-188h150z" />
    <glyph glyph-name="trademark2" unicode="&#x3b;&#x3b;Trademark&#x3b;&#x3b;" horiz-adv-x="1990" 
d="M850 1164v-149h-261v-531h-149v531h-265v149h675zM1812 1164v-680h-148v422q-77 -108 -159 -209t-155 -204l-303 409v-418h-148v680h154l298 -410q37 54 76 104.5t78 100.5t77.5 100.5t76.5 104.5h153z" />
    <glyph glyph-name="multiply2" unicode="&#x3b;&#x3b;Multiply&#x3b;&#x3b;" horiz-adv-x="1069" 
d="M739 229l-242 242l-60 -60l-62.5 -62.5l-62 -62t-57.5 -58.5l-105 105l243 242l-243 243l103 104l243 -243l243 243l105 -105l-243 -243l242 -242z" />
    <glyph glyph-name="divide2" unicode="&#x3b;&#x3b;Divide&#x3b;&#x3b;" horiz-adv-x="1050" 
d="M613 282q0 -21 -8 -40t-21.5 -33t-32.5 -22t-40 -8t-40 8t-33 22t-22 33t-8 40t8 40t22 33t33 22t40 8t40 -8t32.5 -22t21.5 -33t8 -40zM613 876q0 -21 -8 -40t-21.5 -33t-32.5 -22t-40 -8t-40 8t-33 22t-22 33t-8 40t8 40t22 33t33 22t40 8t40 -8t32.5 -22t21.5 -33
t8 -40zM90 502h833v147h-833v-147z" />
    <glyph glyph-name="rulakkhangyao" unicode="&#xc4;&#xd2;" horiz-adv-x="1870" 
d="M818 942q60 -40 94 -95.5t34 -128.5v-1146h-147v1146q0 29 -18 57.5t-54 51t-89 36.5t-122 14q-53 0 -114.5 -10.5t-129.5 -31.5v-522q0 -57 10.5 -92.5t31.5 -54.5t52 -25.5t72 -6.5v-147q-74 0 -131.5 17.5t-97 56t-61.5 100.5t-23 151v628q113 43 210 63t181 20
q94 0 169.5 -21t132.5 -60zM1709 -428h-146v1141q-1 31 -15 60t-42 52t-70.5 37t-99.5 14q-56 0 -130.5 -19t-169.5 -64l-63 134q109 51 199 73.5t164 22.5q85 0 154 -24.5t117.5 -67t75 -98.5t26.5 -119v-1142z" />
    <glyph glyph-name="lulakkhangyao" unicode="&#xc6;&#xd2;" horiz-adv-x="1846" 
d="M818 942q59 -41 93 -96t34 -127v-1147h-147v1147q0 29 -18 57.5t-54 51t-89 36t-123 13.5q-53 0 -114.5 -9.5t-129.5 -31.5v-673q0 -38 -18 -70.5t-47.5 -56t-67.5 -36.5t-77 -13v147q23 0 44 9t21 20v777q112 43 209 63t180 20q94 0 170 -21t134 -60zM1694 -428h-146
v1141q-1 31 -15 60t-42 52t-70.5 37t-99.5 14t-131 -19t-170 -64l-62 134q108 51 198.5 73.5t164.5 22.5q85 0 154 -24.5t117.5 -67t75 -98.5t26.5 -119v-1142z" />
    <glyph glyph-name=".notdef" horiz-adv-x="1536" 
d="M256 0v1280h1024v-1280h-1024zM1238 32q10 0 10 10v1196q0 10 -10 10h-940q-10 0 -10 -10v-1196q0 -10 10 -10h940z" />
    <glyph glyph-name=".null" 
 />
    <glyph glyph-name="nonmarkingreturn" horiz-adv-x="579" 
 />
    <glyph glyph-name="space" unicode=" " horiz-adv-x="690" 
 />
    <glyph glyph-name="exclam" unicode="!" horiz-adv-x="423" 
d="M118 1255h172l-15 -927h-138zM321 119q0 -24 -9 -45t-24.5 -37t-37 -25.5t-46.5 -9.5q-23 0 -44.5 9.5t-37.5 25.5t-25.5 37t-9.5 45t9.5 45t25.5 37t37.5 25.5t44.5 9.5q25 0 46.5 -9.5t37 -25.5t24.5 -37t9 -45z" />
    <glyph glyph-name="quotedbl" unicode="&#x22;" horiz-adv-x="614" 
d="M89 1234h156l-7 -400h-138zM354 1234h156l-7 -400h-138z" />
    <glyph glyph-name="numbersign" unicode="#" horiz-adv-x="1364" 
d="M1189 295h-264q-20 -71 -43 -149t-43 -147h-156l87 296h-357q-20 -71 -42.5 -149t-42.5 -147h-156l87 296h-242v147h284q11 36 20.5 68l19 64t19 64.5t20.5 70.5h-246v146h289q20 72 43.5 149.5t43.5 147.5h153l-86 -297h357q21 72 43.5 149.5t42.5 147.5h154l-85 -296
h215v-147h-260q-10 -36 -19 -68t-18 -63.5t-18.5 -64.5t-20.5 -70h221v-148zM813 442q10 36 20 68t19.5 64t19 64.5t20.5 70.5h-358q-11 -36 -20 -68t-18.5 -64t-19 -65t-20.5 -70h357z" />
    <glyph glyph-name="dollar" unicode="$" horiz-adv-x="1084" 
d="M960 316q-5 -77 -32.5 -133t-71.5 -94t-102.5 -59.5t-124.5 -28.5v-121h-148v117q-97 8 -201.5 36t-201.5 73l60 135q48 -22 100 -40.5t104 -31.5t102 -20.5t95 -7.5q58 0 106 10.5t84 33t57.5 57.5t25.5 85q-2 54 -32 86t-74 50.5t-95.5 28t-95.5 18.5q-21 5 -60.5 11
t-87 18t-97 33t-89.5 56.5t-66 88.5t-26 129q4 91 40 152t91 98t123.5 54t137.5 21v117h148v-117q84 -8 164 -30t152 -51l-60 -136q-35 15 -76.5 28.5t-86 23.5t-91 15.5t-90.5 5.5q-63 0 -116 -12t-93 -35.5t-65 -58t-30 -79.5q1 -38 18 -65.5t43.5 -46.5t59.5 -31.5
t67 -20.5t66.5 -14t57.5 -11h-1q27 -7 68 -13.5t86.5 -19t91.5 -33.5t83 -55.5t60 -86t23 -125.5v-4z" />
    <glyph glyph-name="percent" unicode="%" horiz-adv-x="1356" 
d="M398 1140q47 0 89 -18t73.5 -49.5t50 -74t18.5 -90.5v-111q0 -48 -18.5 -90.5t-50 -74t-73.5 -49.5t-89 -18h-122q-48 0 -90.5 18t-73.5 49.5t-49 74t-18 90.5v111q0 48 18 90.5t49 74t73.5 49.5t90.5 18h122zM398 707q18 0 34 7t28.5 19.5t19.5 29t7 34.5v111
q0 19 -7 35t-19.5 28t-28.5 19t-34 7h-122q-37 0 -63 -25.5t-26 -63.5v-111q0 -37 26 -63.5t63 -26.5h122zM1067 584q48 0 90.5 -18t74 -49.5t49.5 -74t18 -90.5v-111q0 -48 -18 -90.5t-49.5 -74t-74 -49.5t-90.5 -18h-120q-48 0 -90.5 18t-74 49.5t-49.5 74t-18 90.5v111
q0 48 18 90.5t49.5 74t74 49.5t90.5 18h120zM1067 152q38 0 64 26t26 63v111q0 37 -26 63.5t-64 26.5h-120q-37 0 -63.5 -26.5t-26.5 -63.5v-111q0 -37 26.5 -63t63.5 -26h120zM1188 1150l-849 -1150h-183l848 1150h184z" />
    <glyph glyph-name="ampersand" unicode="&#x26;" horiz-adv-x="1267" 
d="M1094 680h79v-140h-79v-186q0 -79 -35.5 -146.5t-96 -117t-140.5 -77.5t-169 -28h-73q-88 0 -168 28t-141 77.5t-97 117t-36 146.5v41q0 76 23.5 132.5t65.5 89.5q-42 41 -64.5 100t-23.5 128v5q1 66 21.5 122t57.5 97.5t88.5 64.5t113.5 23h245v-141h-244
q-63 0 -101.5 -45t-38.5 -123q0 -80 38.5 -123t102.5 -45h531v211h141v-211zM953 540h-532q-23 0 -47.5 -4.5t-45 -20t-34 -44t-13.5 -76.5v-40q0 -46 23 -87t63 -72.5t94.5 -50t118.5 -18.5h73q65 0 120 18.5t95 50t62.5 73t22.5 86.5v185z" />
    <glyph glyph-name="quotesingle" unicode="'" horiz-adv-x="301" 
d="M67 1234h157l-8 -400h-137z" />
    <glyph glyph-name="parenleft" unicode="(" horiz-adv-x="387" 
d="M339 1290q-37 -89 -61.5 -177.5t-39.5 -175t-21 -170.5t-6 -164q0 -95 8.5 -184.5t22 -169.5t30 -150t32 -125t29 -94t21.5 -58h-158q-15 45 -38 122t-44 179t-36 224.5t-15 258.5q0 166 29.5 347t103.5 376h158z" />
    <glyph glyph-name="parenright" unicode=")" horiz-adv-x="417" 
d="M201 1329q74 -194 104 -378t30 -348q0 -135 -15.5 -257.5t-36.5 -224t-44 -178t-38 -121.5h-156q7 19 20.5 58t29 94.5t32 125t30 150t22 170t8.5 183.5q0 80 -7 166t-23.5 177.5t-44 187t-67.5 195.5h156z" />
    <glyph glyph-name="asterisk" unicode="*" horiz-adv-x="923" 
d="M560 863v-4q19 -24 40 -52t42.5 -56t42.5 -55t39 -50l-126 -92l-152 218h-3q-3 0 -3 -1h1q-1 0 -1 0.5t-1 0.5q-35 -51 -75.5 -109.5t-74.5 -108.5l-127 91l164 213q-1 2 -0.5 2.5t-0.5 2.5q-30 9 -63.5 18.5t-67.5 19.5t-67 20t-61 18l47 150l260 -93q-1 32 -2 67.5
t-2 71.5t-2 70.5t-2 65.5h157l-8 -274q30 11 63 22.5t67 23.5t66 23t61 22l50 -150z" />
    <glyph glyph-name="plus" unicode="+" horiz-adv-x="1002" 
d="M913 502h-342v-343h-148v343h-344v147h344v344h148v-344h342v-147z" />
    <glyph glyph-name="comma" unicode="," horiz-adv-x="425" 
d="M150 256h170l-60 -341h-139z" />
    <glyph glyph-name="hyphen" unicode="-" horiz-adv-x="1063" 
d="M110 649h833v-147h-833v147z" />
    <glyph glyph-name="period" unicode="." horiz-adv-x="394" 
d="M305 119q0 -24 -9 -45t-24.5 -37t-37 -25.5t-46.5 -9.5q-23 0 -44.5 9.5t-37.5 25.5t-25.5 37t-9.5 45t9.5 45t25.5 37t37.5 25.5t44.5 9.5q25 0 46.5 -9.5t37 -25.5t24.5 -37t9 -45z" />
    <glyph glyph-name="slash" unicode="/" horiz-adv-x="735" 
d="M830 1317l-666 -1487l-160 2l665 1485h161z" />
    <glyph glyph-name="zero" unicode="0" horiz-adv-x="1170" 
d="M1031 859q9 -62 12 -126.5t3 -124.5q0 -56 -2 -104.5t-4.5 -87t-5 -63.5t-3.5 -32q-9 -73 -45 -132.5t-93.5 -102.5t-134 -67t-165.5 -25q-90 1 -166 26t-133.5 68.5t-93.5 103.5t-45 132q-1 7 -3.5 31.5t-5.5 62.5t-5 86.5t-2 103.5q0 58 4 125t12 126q10 70 46.5 129
t93.5 101.5t133 67.5t165 28q88 -2 164.5 -26.5t134.5 -67t94 -102t45 -131.5v1zM887 358q1 15 3 40t4 58t3.5 71.5t1.5 80.5q0 54 -3.5 114.5t-10.5 116.5q-6 40 -29.5 74.5t-61 61t-88.5 43t-113 19.5q-63 -3 -113.5 -19.5t-88 -43t-60.5 -61t-30 -74.5q-8 -56 -11 -116.5
t-3 -114.5q0 -42 1.5 -81t3.5 -72t4 -58t4 -40q3 -44 23.5 -81.5t58 -66t90.5 -46t121 -21.5q67 4 119 22.5t89 47t58.5 66t27.5 81.5v-1z" />
    <glyph glyph-name="one" unicode="1" horiz-adv-x="924" 
d="M710 1149v-1149h-147v962q-93 -66 -191 -136.5t-188 -134.5l-88 118l475 340h139z" />
    <glyph glyph-name="two" unicode="2" horiz-adv-x="1146" 
d="M580 472q-39 -9 -87.5 -29t-92 -57.5t-75.5 -95t-38 -142.5h681v-148h-832v120q0 87 20.5 155t54 120t77 89.5t89 64t89.5 42.5t80 25q44 10 95.5 24t96 38t74.5 61.5t32 93.5q-4 46 -29 81t-65.5 58t-94 34.5t-115.5 11.5q-44 0 -90 -5.5t-91 -15.5t-86.5 -23.5
t-76.5 -28.5l-61 135q87 37 193.5 61.5t211.5 24.5q78 0 157.5 -16.5t144 -55t106.5 -102t45 -158.5q0 -66 -19.5 -116t-52 -87t-73.5 -62.5t-84 -43t-83.5 -28.5t-72.5 -19h1q-8 -2 -16 -3t-14 -3h1v0z" />
    <glyph glyph-name="three" unicode="3" horiz-adv-x="1115" 
d="M963 247q0 -78 -28.5 -128t-76 -78.5t-107.5 -39.5t-123 -12h-185q-65 1 -123.5 17t-103.5 53.5t-71.5 100t-26.5 157.5h146q0 -54 13 -89t38 -55.5t61 -28t82 -7.5h161q102 0 149.5 24.5t47.5 85.5v147q0 28 -4.5 48.5t-23.5 34t-57.5 20t-107.5 6.5h-115v147h118
q56 1 92 4.5t57 14.5t29 32.5t8 58.5v105q0 45 -12.5 74t-37 46.5t-60.5 24.5t-83 7h-161q-41 0 -76.5 -6t-61.5 -25.5t-41 -55t-15 -94.5h-146q0 102 29 165.5t75 99t103.5 49t114.5 14.5h184q66 0 127 -14t107.5 -48.5t74 -92t27.5 -144.5v-107q-1 -54 -14 -100t-46 -81
q35 -37 49 -80t14 -102v-148z" />
    <glyph glyph-name="four" unicode="4" horiz-adv-x="1112" 
d="M984 401v-148h-127v-253h-146v253h-634v129l580 767h200v-748h127zM711 975q-108 -143 -215.5 -284t-219.5 -290h435v574z" />
    <glyph glyph-name="five" unicode="5" horiz-adv-x="1142" 
d="M960 580q29 -55 29 -123v-211q0 -78 -29.5 -128t-77.5 -78.5t-108 -39.5t-121 -12h-185q-67 1 -126.5 18t-104 55.5t-70.5 100.5t-26 154h147q0 -50 11.5 -84.5t35.5 -55.5t60.5 -30t86.5 -9h162q101 0 149.5 24.5t48.5 84.5v211q0 57 -47.5 82.5t-150.5 25.5h-475v589
h796v-148h-649v-293h353q45 -2 88.5 -8.5t81.5 -21.5t68.5 -40t51.5 -63h1z" />
    <glyph glyph-name="six" unicode="6" horiz-adv-x="1126" 
d="M950 609q30 -48 46 -108.5t18 -131.5q-3 -74 -21 -138t-50.5 -112t-78 -78.5t-102.5 -38.5h-4q-9 -1 -28 -2.5t-46.5 -3t-61.5 -3t-72 -1.5q-45 0 -92.5 2t-93.5 10h1q-58 7 -103.5 38t-77.5 79.5t-50 112t-21 135.5q3 108 40 191l263 593h160l-184 -414q41 6 81.5 7.5
t76.5 1.5q77 0 133 -4.5t79 -7.5q59 -8 107.5 -41.5t80.5 -85.5zM830 205q18 29 29 70t12 94q-1 52 -11.5 92.5t-28.5 68.5t-41.5 44t-50.5 20q-7 1 -24.5 3t-42.5 4t-56.5 3.5t-65.5 1.5q-40 0 -82 -3t-83 -9q-20 -3 -42 -15.5t-40.5 -38t-31.5 -67.5t-15 -103
q3 -83 27.5 -130.5t61.5 -71t82.5 -29.5t90.5 -6h32q32 0 62 1t54.5 2.5t42.5 3.5l27 3q24 0 50.5 18.5t43.5 44.5v-1z" />
    <glyph glyph-name="seven" unicode="7" horiz-adv-x="1040" 
d="M900 1153q25 0 34.5 -34t17.5 -94l-506 -1025h-165l495 1005h-718v148h842v0z" />
    <glyph glyph-name="eight" unicode="8" horiz-adv-x="1131" 
d="M961 512q11 -26 14 -55t3 -61v-107q0 -96 -31 -155t-79 -91.5t-107 -44t-115 -12.5h-187q-71 1 -132 17t-105 52t-69.5 93t-26.5 141v107q0 58 13 104t49 81q-34 38 -46 81.5t-13 100.5l1 104q1 93 30.5 151t76 91t104.5 45t116 14h185q68 -1 128.5 -16.5t106 -50.5
t72 -92t26.5 -142v-106q-2 -54 -15 -100.5t-45 -78.5q15 -16 26 -32.5t20 -36.5v-1zM277 765q0 -32 6.5 -53t26 -33.5t56.5 -17.5t98 -6h177q56 0 92 4t57 16t29 33.5t8 56.5v102q0 44 -12 73.5t-36 47t-60.5 24.5t-85.5 7h-162q-40 0 -75.5 -5t-61.5 -21t-41.5 -46
t-15.5 -80v-102zM638 133q39 0 74 5t61.5 21.5t42 47.5t15.5 82v131q-3 25 -12.5 41.5t-31.5 26t-58 14t-92 5.5q-1 0 -4 -0.5t-18 -0.5t-47.5 0.5t-92.5 0.5q-90 0 -134 -10q-18 -3 -30.5 -8t-21 -15.5t-12.5 -29t-4 -48.5v-107q0 -45 13 -75t38 -48t62 -25.5t85 -7.5h167z
" />
    <glyph glyph-name="nine" unicode="9" horiz-adv-x="1136" 
d="M178 543q-30 48 -46 108.5t-18 131.5q3 73 21.5 136t51.5 111t79 79t102 41q7 1 26 3t46.5 4t62.5 3.5t75 1.5q45 0 92.5 -2.5t92.5 -9.5q56 -10 101.5 -41.5t77.5 -79.5t50.5 -110.5t21.5 -135.5q-2 -54 -12 -101.5t-27 -89.5l-263 -592h-160l182 412q-37 -5 -77 -6
t-79 -1q-41 0 -77 1.5t-64 3.5t-46.5 3.5t-24.5 2.5q-59 8 -107 41t-81 86zM298 946q-17 -26 -28 -67.5t-13 -94.5q2 -105 38 -161.5t87 -64.5q11 -2 15 -1.5t10 -0.5q25 -2 71 -6t100 -4q38 0 80 3t84 9q51 11 87.5 69.5t43.5 155.5q-5 81 -28.5 128t-59.5 71t-79.5 30.5
t-86.5 6.5h-41q-68 0 -121.5 -4.5t-70.5 -5.5h1q-54 -9 -88 -63h-1z" />
    <glyph glyph-name="colon" unicode=":" horiz-adv-x="445" 
d="M324 748q0 -24 -9 -45t-24.5 -37t-37 -25.5t-46.5 -9.5q-23 0 -44.5 9.5t-37.5 25.5t-25.5 37t-9.5 45t9.5 45t25.5 37t37.5 25.5t44.5 9.5q25 0 46.5 -9.5t37 -25.5t24.5 -37t9 -45zM324 238q0 -24 -9 -45t-24.5 -37t-37 -25.5t-46.5 -9.5q-23 0 -44.5 9.5t-37.5 25.5
t-25.5 37t-9.5 45t9.5 45t25.5 37t37.5 25.5t44.5 9.5q25 0 46.5 -9.5t37 -25.5t24.5 -37t9 -45z" />
    <glyph glyph-name="semicolon" unicode=";" horiz-adv-x="469" 
d="M150 256h170l-60 -341h-139zM344 748q0 -24 -9 -45t-24.5 -37t-37 -25.5t-46.5 -9.5q-23 0 -44.5 9.5t-37.5 25.5t-25.5 37t-9.5 45t9.5 45t25.5 37t37.5 25.5t44.5 9.5q25 0 46.5 -9.5t37 -25.5t24.5 -37t9 -45z" />
    <glyph glyph-name="less" unicode="&#x3c;" horiz-adv-x="790" 
d="M257 574q52 -67 108.5 -140t114 -147.5t114 -147.5t107.5 -139h-186l-401 519v110l401 518h186z" />
    <glyph glyph-name="equal" unicode="=" horiz-adv-x="1053" 
d="M125 502h799v-148h-799v148zM125 798h799v-148h-799v148z" />
    <glyph glyph-name="greater" unicode="&#x3e;" horiz-adv-x="800" 
d="M704 629v-110l-401 -519h-187l444 574q-52 67 -108.5 140t-114 147t-114 147t-107.5 139h187l373 -481z" />
    <glyph glyph-name="question" unicode="?" horiz-adv-x="1039" 
d="M938 935q0 -98 -25.5 -157t-63 -92t-79 -47t-74.5 -21q-13 -3 -22.5 -5.5t-21.5 -4.5l2 1q-31 -7 -59 -15.5t-49 -25.5t-33 -46.5t-12 -78.5q0 -38 12 -123l-146 -23q-7 45 -11 81.5t-4 64.5q0 63 13 109.5t35 79t51 54t62 35.5t66.5 22t65.5 15h-1q23 5 46 10.5t38 12.5
q12 5 22.5 14.5t19 26.5t14 44t6.5 68q-4 48 -29.5 83t-67 58t-95 34.5t-113.5 11.5q-44 0 -90.5 -6t-91.5 -16t-87 -23.5t-77 -29.5l-59 137q87 37 193 61.5t212 24.5q49 0 101.5 -6.5t102.5 -22t94.5 -40.5t78.5 -62t54.5 -87t21.5 -114v-2zM576 119q0 -24 -9 -45
t-24.5 -37t-37 -25.5t-46.5 -9.5q-23 0 -44.5 9.5t-37.5 25.5t-25.5 37t-9.5 45t9.5 45t25.5 37t37.5 25.5t44.5 9.5q25 0 46.5 -9.5t37 -25.5t24.5 -37t9 -45z" />
    <glyph glyph-name="at" unicode="@" horiz-adv-x="1555" 
d="M771 1216q91 0 176 -24t159.5 -67.5t135.5 -104.5t104.5 -135.5t67.5 -159.5t24 -177t-24 -177t-67.5 -159.5t-104.5 -135t-135.5 -104t-159.5 -67.5t-176 -24q-92 0 -177.5 24t-159.5 67.5t-135 104t-104 135t-67 159.5t-24 177t24 177t67 159.5t104 135.5t135 104.5
t159.5 67.5t177.5 24zM931 496q-63 18 -114 26.5t-89 8.5q-72 0 -103.5 -26t-31.5 -92q0 -51 29.5 -74.5t95.5 -23.5q40 0 93.5 11t119.5 37v133zM1142 177q72 72 112.5 167t40.5 204q0 108 -41 203.5t-112 167t-166.5 113t-204.5 41.5t-204.5 -41.5t-167 -112.5
t-112.5 -167t-41 -204t41 -203.5t112.5 -167t167 -112.5t204.5 -41q42 0 81.5 6.5t78.5 18.5v164q-120 -41 -213 -41q-59 0 -108 15.5t-84.5 45.5t-55 75t-19.5 105q0 69 21 118.5t58 81.5t87.5 47t110.5 15q44 0 94 -8t109 -23v38q0 44 -40.5 69t-111.5 25
q-50 0 -113.5 -19.5t-131.5 -62.5l-72 120q82 53 164.5 79t152.5 26q58 0 111 -15t93.5 -45t64.5 -74.5t24 -102.5v-563q17 13 35.5 27t33.5 31h1z" />
    <glyph glyph-name="A" unicode="A" horiz-adv-x="1259" 
d="M940 268h-607q-26 -64 -56 -134.5t-56 -133.5h-163l488 1161h181l488 -1161h-163zM877 417q-32 77 -61 146.5t-58 138t-58.5 139t-62.5 150.5q-31 -74 -60.5 -144.5t-59 -140.5t-59.5 -141.5t-62 -147.5h481z" />
    <glyph glyph-name="B" unicode="B" horiz-adv-x="1249" 
d="M1115 369q0 -88 -13.5 -149.5t-40.5 -102.5t-67.5 -64.5t-93.5 -35t-119 -14.5t-145 -3h-41l-438 1v1162h450q60 0 110.5 -1t93.5 -6q69 -9 117 -31.5t78 -60.5t44 -93.5t14 -128.5q0 -61 -13 -110.5t-45 -86.5q64 -40 86.5 -109t22.5 -166v-1zM306 700q95 0 188 -0.5
t188 -0.5q78 0 123 8t71 22q19 11 29 34.5t10 79.5q0 61 -12 95.5t-46 51.5t-94 21.5t-156 4.5h-301v-316zM966 370q0 66 -13 102.5t-48.5 54t-96.5 21t-157 3.5h-345v-402q128 2 252.5 3.5t252.5 3.5q41 4 70.5 14t48 33t27.5 62.5t9 103.5v1z" />
    <glyph glyph-name="C" unicode="C" horiz-adv-x="1139" 
d="M621 137q80 0 179 19.5t217 62.5l50 -140q-131 -48 -241.5 -69.5t-204.5 -21.5q-103 0 -190.5 24t-153.5 67.5t-108 104.5t-53 135q0 3 -3 27t-6 63.5t-5.5 91t-2.5 110.5q0 61 3.5 126.5t13.5 128.5v-1q10 75 51.5 136t107.5 104t154.5 66.5t192.5 23.5
q93 0 203.5 -21.5t241.5 -69.5l-50 -140q-119 44 -217.5 63t-177.5 19q-82 0 -145.5 -16t-109 -43.5t-71.5 -64.5t-33 -79v1q-8 -59 -12 -118t-4 -115q0 -50 2 -94.5t5 -80.5t5.5 -60.5t3.5 -34.5v-3q8 -41 35.5 -77.5t73 -64t108 -43.5t141.5 -16z" />
    <glyph glyph-name="D" unicode="D" horiz-adv-x="1193" 
d="M1073 865q11 -63 14.5 -128t3.5 -127q0 -57 -3 -108t-6 -90t-6 -64t-3 -31q-12 -88 -49 -148t-102 -96.5t-160 -52.5t-223 -16q-81 0 -183.5 6t-233.5 19v1123q131 13 233.5 19t183.5 6q132 0 227 -17.5t159.5 -55t100 -97t47.5 -143.5v1zM934 417q0 37 4 86.5t4 106.5
q0 56 -4 115.5t-12 118.5v-1q-7 42 -24 76.5t-57.5 58.5t-111.5 37t-185 13q-32 0 -62 -0.5t-63 -1.5t-70 -3.5t-81 -5.5v-852q75 -6 143.5 -9t123.5 -3q110 0 181.5 11t115 33.5t63.5 57.5t27 83l3 21q2 17 2.5 28t2.5 30z" />
    <glyph glyph-name="E" unicode="E" horiz-adv-x="1093" 
d="M272 1015v-360h649v-148h-649v-359h711v-148h-861v1163h861v-148h-711z" />
    <glyph glyph-name="F" unicode="F" horiz-adv-x="1093" 
d="M270 1015v-360h651v-148h-651v-507h-148v1163h859v-148h-711z" />
    <glyph glyph-name="G" unicode="G" horiz-adv-x="1188" 
d="M1067 66q-125 -46 -234.5 -67.5t-203.5 -21.5q-104 0 -192.5 23.5t-155 66.5t-107.5 104.5t-51 137.5v2q-1 10 -4 36t-6 64.5t-5 86.5t-2 102q0 60 4 126.5t13 129.5q14 73 57 134t109 104.5t152.5 67.5t187.5 25q93 -1 204.5 -23t241.5 -69l-51 -139q-118 43 -217.5 62
t-177.5 19q-80 0 -144 -15.5t-109.5 -43t-71.5 -64.5t-32 -80q-10 -59 -13.5 -118.5t-3.5 -115.5q0 -48 2 -92.5t4.5 -80t5 -60t4.5 -33.5l1 -6q5 -42 30.5 -78.5t70.5 -64t109 -43.5t147 -16q64 0 135.5 11.5t153.5 35.5v309h150z" />
    <glyph glyph-name="H" unicode="H" horiz-adv-x="1211" 
d="M1088 1161v-1161h-148v506h-668v-506h-149v1161h149v-506h668v506h148z" />
    <glyph glyph-name="I" unicode="I" horiz-adv-x="445" 
d="M307 1161v-1161h-149v1161h149z" />
    <glyph glyph-name="J" unicode="J" horiz-adv-x="972" 
d="M859 374q0 -110 -21 -185.5t-65.5 -122t-113.5 -67t-165 -20.5q-77 0 -180 13t-241 39l26 146q128 -23 225.5 -38.5t163.5 -15.5q62 0 104.5 11.5t68.5 40.5t37.5 77t11.5 122v639h-290v150l439 -2v-787z" />
    <glyph glyph-name="K" unicode="K" horiz-adv-x="1179" 
d="M947 657q53 -38 82 -93.5t29 -121.5v-442h-150v441q-1 29 -14.5 55t-41 45.5t-69.5 31t-99 11.5q-80 0 -184.5 -28.5t-227.5 -96.5v-459h-149v1160h149v-532q68 32 134.5 53.5t129.5 35.5q100 16 168.5 49t111 84.5t61.5 121t19 158.5v32h148v-32q0 -130 -38.5 -241.5
t-129.5 -190.5q20 -8 37 -18t34 -23z" />
    <glyph glyph-name="L" unicode="L" horiz-adv-x="1076" 
d="M978 150v-150h-856v1164h148v-1014h708z" />
    <glyph glyph-name="M" unicode="M" horiz-adv-x="1327" 
d="M1199 1164v-1164h-147v917q-97 -111 -197 -226t-193 -222l-389 449v-918h-148v1164h133l404 -466q100 115 202.5 233t202.5 233h132z" />
    <glyph glyph-name="N" unicode="N" horiz-adv-x="1210" 
d="M1087 0h-152v137q-89 105 -170.5 200.5t-161.5 189t-161.5 189.5t-170.5 201v-917h-148v1164h132l680 -798v798h152v-1164z" />
    <glyph glyph-name="O" unicode="O" horiz-adv-x="1242" 
d="M1125 861q10 -65 13.5 -130.5t3.5 -127.5q0 -58 -2.5 -108t-5.5 -89t-5.5 -64t-3.5 -32q-10 -75 -51.5 -136t-107.5 -104t-154 -66.5t-192 -23.5q-101 0 -188.5 22.5t-154 65.5t-108.5 104.5t-52 139.5q-1 6 -4 31t-6 63.5t-5.5 88.5t-2.5 108q0 62 4 127.5t14 130.5v-1
q11 76 52.5 137t107.5 103.5t153 65.5t190 23q107 0 195 -24t153 -67t105 -103.5t52 -133.5zM977 331q1 5 1 10.5t1 11.5q3 32 8.5 95.5t5.5 141.5q0 55 -4 121t-12 126q-10 40 -38.5 77t-74 64.5t-107 44t-137.5 16.5q-80 0 -143 -16t-108.5 -43.5t-72.5 -64t-33 -78.5
q-9 -60 -12.5 -119.5t-3.5 -114.5q0 -50 2 -94.5t5 -80.5t5.5 -60.5t3.5 -34.5v-3q7 -40 33 -76.5t71 -64.5t108.5 -44.5t144.5 -16.5q82 0 145.5 16t108.5 44t71 65t32 78z" />
    <glyph glyph-name="P" unicode="P" horiz-adv-x="1122" 
d="M1005 992q17 -40 23.5 -89.5t6.5 -110.5q0 -85 -15 -143.5t-43.5 -96.5t-69 -58t-91.5 -29t-111 -10.5t-127 -1.5h-306v-453h-150v1163h423q79 0 152 -2.5t134 -18.5t106 -51.5t68 -100.5v2zM886 794q0 51 -5 87.5t-19 61t-39.5 38.5t-67 21.5t-101.5 9.5t-143 2h-239
v-412h306q57 0 103 1t81 6q31 4 54.5 11t39 26t23 53.5t7.5 93.5v1z" />
    <glyph glyph-name="Q" unicode="Q" horiz-adv-x="1245" 
d="M1127 857q9 -63 13 -128.5t4 -127.5q0 -58 -2.5 -108t-5.5 -89t-5.5 -64.5t-3.5 -32.5q-10 -68 -44.5 -124t-90 -98t-130.5 -68.5t-165 -34.5q1 -19 6.5 -37.5t19.5 -33.5t38.5 -24t64.5 -9q29 0 71 6t102 20l35 -147q-131 -28 -208 -28q-65 0 -110.5 12.5t-76.5 33.5
t-49 47.5t-27 54.5t-12 55.5t-3 49.5q-92 8 -167 34.5t-130.5 68.5t-89.5 99t-44 126q-1 6 -3.5 31t-5.5 63.5t-5 89t-2 107.5q0 63 3 128.5t13 128.5q12 75 54 135.5t107.5 103.5t152.5 66.5t191 23.5q102 0 189.5 -23t153.5 -66t108 -104t54 -136v-1zM979 333q1 10 4 34.5
t5.5 60t4.5 79.5t2 94q0 52 -4 115t-12 118q-9 41 -36 78t-72 65t-107.5 44.5t-141.5 16.5t-141.5 -16.5t-107.5 -44t-72.5 -64.5t-35.5 -78q-8 -56 -12 -118t-4 -116q0 -50 2 -94.5t4.5 -80t5 -60t3.5 -34.5l1 -5q6 -41 31.5 -77t70.5 -63.5t108.5 -43.5t146.5 -17
q81 1 144 17t108 43.5t71 63.5t34 77v6z" />
    <glyph glyph-name="R" unicode="R" horiz-adv-x="1123" 
d="M880 364q32 -75 80 -169t116 -197h-177q-41 69 -75.5 137t-61.5 128t-46 109.5t-30 80.5q-26 -1 -54.5 -1.5t-60.5 -0.5h-299v-452h-149v1164h381q71 0 130.5 -2t108.5 -7h-1q81 -9 135.5 -34t88 -69t48 -108.5t14.5 -151.5q0 -143 -45 -220.5t-147 -99.5q5 -14 12.5 -33
t16.5 -39v1q4 -8 7.5 -17.5t7.5 -19.5v1zM571 601q115 0 180.5 6.5t89.5 26.5h-1q17 14 29 50.5t12 108.5q0 79 -15 123.5t-56 66t-115 26t-191 4.5h-232v-412h299z" />
    <glyph glyph-name="S" unicode="S" horiz-adv-x="1081" 
d="M976 320q-3 -93 -41 -156t-97.5 -101.5t-134 -55t-150.5 -16.5q-56 0 -115.5 8t-120 23t-119.5 36.5t-114 47.5l61 134q97 -44 203 -71t200 -27q57 0 106.5 10t86.5 32t60 57.5t27 85.5q-2 36 -17 63t-39.5 46t-55.5 31.5t-64.5 21.5t-66.5 14.5t-61 10.5
q-24 5 -65.5 11.5t-89 19t-96 34.5t-88 58t-64.5 88.5t-25 126.5q0 65 19.5 115t52.5 87.5t77.5 63t95.5 41t105 22.5t107 7q52 0 106.5 -6.5t107 -18t102 -28t93.5 -35.5l-61 -135q-35 16 -77 29.5t-87.5 23.5t-92 15.5t-91.5 5.5q-66 0 -122 -11t-97 -34.5t-64.5 -59
t-24.5 -84.5q0 -48 24.5 -79t62 -50.5t83 -30.5t87.5 -19q33 -5 51.5 -8.5t28.5 -5.5t12.5 -3.5t4.5 -1.5l-1 1q31 -6 71.5 -14t82 -22.5t81.5 -37t72 -57t51.5 -83t20.5 -114.5v-4z" />
    <glyph glyph-name="T" unicode="T" horiz-adv-x="1008" 
d="M978 1164v-149h-396v-1015h-149v1015h-400v149h945z" />
    <glyph glyph-name="U" unicode="U" horiz-adv-x="1211" 
d="M1095 650q0 -94 -2 -172t-9 -142q-13 -98 -46.5 -167t-91.5 -112t-142.5 -62.5t-200.5 -19.5q-119 0 -201.5 19t-137 57.5t-84.5 95t-44.5 131.5t-17.5 167.5t-3 203.5v512h149v-512q0 -90 1 -163t9 -131q8 -62 25 -105t53 -71t97 -40.5t157 -12.5q80 0 136 10t94 32.5
t60 59.5t33 92t14 129t3 170v542h149v-511z" />
    <glyph glyph-name="V" unicode="V" horiz-adv-x="1192" 
d="M1182 1163l-496 -1163h-182l-496 1163h162l426 -993q105 248 212 497t212 496h162z" />
    <glyph glyph-name="W" unicode="W" horiz-adv-x="1404" 
d="M1266 1163l-120 -1163h-130l-324 425q-80 -105 -163 -213.5t-161 -211.5h-136l-120 1163h149l96 -929q41 54 84 109.5t85.5 111.5t84.5 111t81 106l329 -430q23 227 47.5 461t47.5 460h150z" />
    <glyph glyph-name="X" unicode="X" horiz-adv-x="1228" 
d="M1180 0h-189l-378 489q-94 -121 -188.5 -245t-187.5 -244h-190l451 581q-53 68 -110.5 142t-116 149.5t-115.5 149.5t-109 141h190l376 -489q94 121 189 245t189 244h189l-450 -581z" />
    <glyph glyph-name="Y" unicode="Y" horiz-adv-x="1195" 
d="M1170 1163l-491 -633v-530h-149v526q-57 75 -119.5 155.5t-126.5 163t-126.5 163t-119.5 155.5h188l377 -489q94 121 189 245t189 244h189z" />
    <glyph glyph-name="Z" unicode="Z" horiz-adv-x="1167" 
d="M1063 148v-148h-902q-22 0 -34.5 36.5t-20.5 103.5l747 874h-745v148h903q20 0 32 -34.5t19 -96.5l-751 -883h752z" />
    <glyph glyph-name="bracketleft" unicode="[" horiz-adv-x="472" 
d="M275 1183v-1215h185v-148h-333v1512h333v-149h-185z" />
    <glyph glyph-name="backslash" unicode="\" horiz-adv-x="765" 
d="M98 1317l663 -1487h-159l-665 1487h161z" />
    <glyph glyph-name="bracketright" unicode="]" horiz-adv-x="486" 
d="M227 -32v1215h-185v148h333v-1512h-333v149h185z" />
    <glyph glyph-name="asciicircum" unicode="^" horiz-adv-x="1015" 
d="M943 762h-186l-254 326q-61 -81 -126.5 -164.5t-126.5 -161.5h-186l361 467h158z" />
    <glyph glyph-name="underscore" unicode="_" horiz-adv-x="1135" 
d="M71 0h1014v-148h-1014v148z" />
    <glyph glyph-name="grave" unicode="`" horiz-adv-x="465" 
d="M67 1236h192l175 -425h-158z" />
    <glyph glyph-name="a" unicode="a" horiz-adv-x="1029" 
d="M907 0h-99q-14 0 -24 17.5t-17 46.5q-91 -33 -172 -50t-152 -17q-76 0 -138.5 20.5t-107.5 59.5t-69.5 95t-24.5 128q0 89 25.5 153t72.5 105t112.5 60.5t145.5 19.5q65 0 139.5 -12.5t161.5 -36.5v82q0 34 -15.5 63t-45 49t-71 31.5t-93.5 11.5q-76 0 -164 -26t-179 -84
l-78 122q106 69 213 102t202 33q72 0 140.5 -18.5t121 -56t84.5 -94.5t32 -133v-671zM294 186q23 -20 60 -31.5t89 -11.5q63 0 142 18t175 57v217q-92 28 -167 42.5t-134 14.5q-109 0 -159.5 -45.5t-50.5 -142.5q0 -42 11.5 -70t33.5 -48z" />
    <glyph glyph-name="b" unicode="b" horiz-adv-x="1032" 
d="M921 700q7 -47 10.5 -95.5t3.5 -105.5q0 -45 -2 -86t-5 -72t-5 -50t-2 -22q-10 -72 -44.5 -123t-85.5 -83t-113.5 -47t-128.5 -15q-70 0 -143.5 15t-143.5 44q-11 -60 -40 -60h-99v1275h147v-365q69 31 135 45.5t128 14.5q76 0 142.5 -20.5t118 -56.5t85 -85.5
t42.5 -106.5v-1zM775 290q2 15 3 29.5t3 29.5q2 29 4.5 67t2.5 83q0 43 -3 88.5t-10 90.5v-1q-4 27 -22.5 53.5t-50 47t-74.5 33t-95 12.5q-57 0 -124 -18.5t-139 -60.5v-526q65 -33 138 -52t141 -19q91 0 152 35t74 108z" />
    <glyph glyph-name="c" unicode="c" horiz-adv-x="950" 
d="M534 146q61 0 137 15t170 49l50 -136q-106 -38 -194.5 -56.5t-162.5 -18.5q-83 0 -153.5 19t-124.5 54t-88 85t-42 113q-1 6 -3 25.5t-4.5 49.5t-4 69t-1.5 83q0 48 2.5 99.5t10.5 101.5q9 62 43 111.5t87.5 84.5t124 54t153.5 19q74 0 162.5 -18t194.5 -57l-50 -136
q-94 34 -170 49t-137 15q-60 0 -107 -11.5t-80 -31t-52 -46t-23 -55.5q-8 -45 -10 -90.5t-2 -88.5q0 -62 3.5 -111t5.5 -76q0 -2 0.5 -3.5t0.5 -3.5q4 -32 21.5 -60t50 -50t80 -34.5t112.5 -12.5z" />
    <glyph glyph-name="d" unicode="d" horiz-adv-x="1035" 
d="M912 1274v-1274h-99q-13 0 -23.5 16.5t-16.5 43.5q-69 -29 -143 -44.5t-144 -15.5q-66 0 -129 15.5t-114 48t-85 84t-43 123.5q-1 6 -3 25.5t-4.5 49.5t-4.5 69t-2 83q0 49 3 100.5t11 101.5v-1q8 57 41 106.5t85 86t119 57t143 20.5q61 0 127 -14.5t135 -46.5v366h147z
M765 744q-72 42 -138.5 60t-123.5 18q-54 0 -97.5 -12.5t-74.5 -33t-49 -46.5t-22 -53q-8 -45 -10.5 -90.5t-2.5 -88.5q0 -62 4 -111t6 -76q0 -2 0.5 -2.5t0.5 -2.5q32 -159 228 -159q68 0 140.5 19t138.5 53v525z" />
    <glyph glyph-name="e" unicode="e" horiz-adv-x="1030" 
d="M926 388h-663q0 -24 0.5 -39t0.5 -24t0.5 -13.5t0.5 -7.5q4 -32 22 -60.5t51 -50t81 -34.5t113 -13q60 0 137 15.5t171 49.5l50 -138q-105 -38 -194 -55.5t-164 -17.5q-83 0 -153.5 19t-124 54t-87 85t-42.5 113q-1 6 -3 25.5t-4.5 49.5t-4 69t-1.5 83q0 48 2.5 100.5
t10.5 101.5q10 59 43 107.5t84 83t118 54.5t145 22h9q78 -2 145 -21t118 -53.5t83.5 -83.5t42.5 -110q7 -48 10 -96.5t3 -95.5v-119zM777 535q-1 34 -2.5 70t-6.5 73v-1q-5 29 -23 54.5t-49.5 44.5t-75.5 30.5t-101 12.5q-59 -1 -103 -13t-75 -31t-48.5 -44t-21.5 -53
q-5 -36 -7 -72t-3 -71h516z" />
    <glyph glyph-name="f" unicode="f" horiz-adv-x="561" 
d="M333 1085q-13 -21 -16 -54t-3 -69v-12h230v-147h-230v-1021q-5 -53 -16.5 -82.5t-31.5 -29.5l-99 -1v1134h-114v147h114v12q1 32 3.5 67.5t12 70.5t27.5 67t49 56t77.5 38.5t112.5 14.5q26 0 60.5 -3.5t79.5 -10.5l-23 -146q-44 8 -71 10.5t-46 2.5q-57 0 -82 -13
t-34 -30v-1z" />
    <glyph glyph-name="g" unicode="g" horiz-adv-x="1036" 
d="M913 967v-939q0 -32 -3.5 -70.5t-16 -78t-36.5 -77t-65 -66t-101 -46t-144 -17.5q-60 0 -137 11t-178 37l34 142q94 -23 163 -33.5t118 -10.5q79 0 123.5 20.5t65.5 51.5t25.5 67.5t4.5 69.5v30q-69 -31 -134.5 -45.5t-127.5 -14.5q-76 0 -142.5 20t-118 56t-85 85
t-42.5 108q-8 50 -11 101.5t-3 100.5q0 44 2 82.5t4.5 69t4.5 50.5t3 26q10 72 44 123t84.5 84t113.5 48t129 15q71 0 144.5 -15t142.5 -44q11 59 40 59h99zM766 749q-64 33 -138 52.5t-141 19.5q-94 0 -154.5 -35t-70.5 -107v1q-4 -38 -6 -67.5t-3.5 -54.5t-2 -46.5
t-0.5 -42.5q0 -43 2.5 -88.5t9.5 -90.5q3 -27 21.5 -53t49.5 -46.5t74 -33t97 -12.5q57 0 123.5 18.5t138.5 60.5v525z" />
    <glyph glyph-name="h" unicode="h" horiz-adv-x="1057" 
d="M921 699q8 -47 10.5 -96t2.5 -105v-498h-147v498q0 43 -2.5 88t-9.5 90q-5 27 -23.5 53.5t-50 47t-74.5 33t-95 12.5q-58 0 -124.5 -18.5t-138.5 -60.5v-743h-146v1274h146v-365q69 31 135 45.5t128 14.5q75 0 142 -20.5t119 -56.5t86 -85.5t42 -107.5z" />
    <glyph glyph-name="i" unicode="i" horiz-adv-x="387" 
d="M299 1166q0 -20 -8 -38t-21.5 -31.5t-31.5 -21t-38 -7.5q-41 0 -69.5 28.5t-28.5 69.5q0 20 7.5 38t21 31.5t31.5 21.5t38 8t38 -8t31.5 -21.5t21.5 -31.5t8 -38zM135 970v-970h147v858q-6 54 -17 83t-31 29h-99z" />
    <glyph glyph-name="j" unicode="j" horiz-adv-x="387" 
d="M199 1065q-41 0 -69.5 28.5t-28.5 69.5q0 20 7.5 38t21 31.5t31.5 21.5t38 8t38 -8t31.5 -21.5t21.5 -31.5t8 -38t-8 -38t-21.5 -31.5t-31.5 -21t-38 -7.5zM233 967q20 0 31 -29t17 -83v-861q0 -27 -1.5 -61t-10 -68.5t-26 -67.5t-49 -58.5t-79 -41t-116.5 -15.5
q-26 0 -60.5 3t-79.5 11l23 146q44 -8 71.5 -10.5t45.5 -2.5q52 0 79.5 14.5t40 38t14 53t1.5 59.5v973h99z" />
    <glyph glyph-name="k" unicode="k" horiz-adv-x="1065" 
d="M845 652q46 -35 71 -83t25 -106v-463h-146v462q-1 22 -11.5 41.5t-31.5 34.5t-54 23.5t-78 8.5q-68 0 -157.5 -25.5t-193.5 -84.5v-460h-146v1274h146v-650q150 72 272 87q66 6 114 21t79 44t46 77t15 120h146q0 -106 -25.5 -184.5t-82.5 -128.5l6 -4z" />
    <glyph glyph-name="l" unicode="l" horiz-adv-x="396" 
d="M233 1275q20 0 31 -29t17 -83v-1163h-147v1275h99z" />
    <glyph glyph-name="m" unicode="m" horiz-adv-x="1440" 
d="M1253 891q27 -37 37 -79.5t10 -89.5v-722h-146v722q0 48 -28 75.5t-74 27.5q-39 0 -107 -23t-168 -83v-58.5t0.5 -123t0.5 -212.5v-326h-147v723q0 48 -27.5 75t-72.5 27q-38 0 -101.5 -20.5t-154.5 -71.5v-732h-147v967h99q29 0 43 -72q153 75 261 75q32 0 63.5 -7
t59.5 -20.5t51 -32t38 -41.5q93 49 171.5 75.5t137.5 26.5q27 0 57 -5.5t57.5 -15.5t50.5 -25.5t37 -34.5z" />
    <glyph glyph-name="n" unicode="n" horiz-adv-x="1030" 
d="M908 0h-146v727q0 44 -38.5 75t-121.5 31q-63 0 -150 -25.5t-191 -84.5v-723h-146v967h99q29 0 43 -80q97 48 183.5 70.5t161.5 22.5q67 0 123.5 -18t97 -51t63 -80t22.5 -104v-727z" />
    <glyph glyph-name="o" unicode="o" horiz-adv-x="1063" 
d="M949 480q0 -48 -3.5 -104.5t-10.5 -104.5q0 -1 -0.5 -1.5t-0.5 -1.5v-1q-11 -60 -45 -110t-87 -86t-122 -56t-150 -20h-18q-78 4 -144.5 24.5t-116.5 55t-81.5 83t-40.5 108.5q-2 5 -2.5 12.5t-1.5 15.5q-3 30 -7.5 87t-4.5 129q0 49 3 103t11 103q0 2 1 4.5t1 3.5
q9 60 41 108t82.5 82.5t116.5 55t143 25.5q83 0 155.5 -18t128 -52.5t91.5 -84.5t47 -114l1 -9q1 -11 3.5 -34t4.5 -54t4 -69t2 -80zM785 293q7 46 10 95.5t3 91.5q0 65 -3.5 117t-5.5 80q0 2 -0.5 3.5t-0.5 3.5q-5 30 -23 57.5t-50.5 49.5t-78 36t-104.5 19
q-59 -2 -104.5 -14t-77 -32t-50 -46t-24.5 -56v1q-6 -45 -9.5 -94.5t-3.5 -94.5q0 -67 4 -121.5t8 -79.5q4 -30 20.5 -58.5t46.5 -51t74.5 -37t104.5 -18.5q2 1 4.5 0.5t4.5 -0.5q116 4 180 46.5t75 102.5z" />
    <glyph glyph-name="p" unicode="p" horiz-adv-x="1035" 
d="M920 696q1 -6 3 -25.5t4.5 -49.5t4.5 -69t2 -83q0 -49 -3 -100.5t-11 -101.5q-9 -58 -42.5 -107t-85 -85t-118.5 -56.5t-142 -20.5q-61 0 -127 14.5t-135 45.5v-389h-147v1298h100q12 0 22.5 -15t16.5 -44q69 29 142.5 44t144.5 15q66 0 129 -15.5t114 -48t85 -83.5
t43 -122v-2zM775 291q8 45 10.5 90.5t2.5 87.5q0 56 -3.5 103t-6.5 74q-1 4 -1.5 8t-0.5 9q-8 79 -69 118.5t-158 39.5q-33 0 -68.5 -5.5t-72 -15t-72 -23t-66.5 -28.5v-525q72 -42 138.5 -60.5t123.5 -18.5q53 0 96 12.5t74.5 33t50 47t22.5 53.5z" />
    <glyph glyph-name="q" unicode="q" horiz-adv-x="1035" 
d="M101 469q0 44 2 83.5t4.5 70t4.5 50t3 25.5q9 71 43 122t85 83.5t114 48t129 15.5q71 0 144.5 -15t142.5 -44q6 29 16.5 44t22.5 15h100v-1298h-147v389q-69 -31 -134.5 -45.5t-127.5 -14.5q-75 0 -142 20.5t-119 56.5t-85 85t-42 107q-8 50 -11 101.5t-3 100.5zM260 291
q4 -27 22.5 -53.5t50 -47t74.5 -33t96 -12.5q57 0 123.5 18.5t138.5 60.5v525q-65 33 -138 52.5t-141 19.5q-50 0 -92 -11t-72.5 -33t-47.5 -55t-17 -76q-3 -27 -6.5 -74t-3.5 -103q0 -42 2.5 -87.5t10.5 -90.5z" />
    <glyph glyph-name="r" unicode="r" horiz-adv-x="596" 
d="M548 870q-2 -16 -16.5 -25.5t-39.5 -15.5q-48 -5 -105 -27t-123 -67v-735h-147v967h99q31 0 41 -65q73 40 145.5 58t145.5 18v-108z" />
    <glyph glyph-name="s" unicode="s" horiz-adv-x="880" 
d="M803 268q-4 -78 -35.5 -131t-81 -85t-111.5 -46t-126 -14q-91 0 -191.5 25.5t-194.5 69.5l61 133q80 -37 166.5 -59.5t158.5 -22.5q92 0 149 35t59 102q1 34 -16 56.5t-48.5 37t-74.5 24.5t-93 19q-19 3 -52.5 8.5t-73 16t-80.5 29t-74 49t-54 75t-21 107.5q3 82 39 136
t90.5 86t120.5 45t131 14q85 -1 174.5 -21t163.5 -52l-61 -135q-28 13 -62 24t-70 19t-73 13t-72 5q-50 0 -92.5 -8t-73.5 -24.5t-49 -43t-19 -62.5q0 -27 12.5 -46t32 -33.5t45 -24t52 -16t52 -10.5t46.5 -8q20 -4 53.5 -9.5t72 -16t78 -28.5t71 -48t52 -74t20.5 -107z" />
    <glyph glyph-name="t" unicode="t" horiz-adv-x="658" 
d="M598 14q-45 -8 -79.5 -11t-60.5 -3q-69 0 -117 15.5t-79 41.5t-48.5 59t-25.5 68t-9.5 69t-1.5 61v488h-116v147h116v325h146v-325h230v-147h-230v-488q0 -30 1.5 -60t13.5 -53.5t39.5 -38.5t80.5 -15q18 0 45.5 2.5t71.5 10.5z" />
    <glyph glyph-name="u" unicode="u" horiz-adv-x="1039" 
d="M916 967v-967h-98q-17 0 -27 21t-17 59q-99 -48 -185 -70t-160 -23q-68 1 -124 19t-96.5 51t-63 79.5t-22.5 103.5v727h146v-727q0 -45 39 -75.5t121 -30.5q64 0 150 25t191 85v723h146z" />
    <glyph glyph-name="v" unicode="v" horiz-adv-x="977" 
d="M970 969l-418 -969h-136l-411 969h123q13 0 32.5 -23.5t43.5 -67.5l283 -669q80 189 162 381t162 379h159z" />
    <glyph glyph-name="w" unicode="w" horiz-adv-x="1328" 
d="M1193 244q0 -57 -27.5 -104.5t-72 -81t-101.5 -52.5t-117 -19q-55 0 -109.5 17.5t-105.5 55.5q-51 -38 -106 -55.5t-110 -17.5q-59 0 -116 19t-101.5 52.5t-72 81t-27.5 104.5v722h146v-722q0 -20 13 -39.5t36 -35t54.5 -25.5t67.5 -10q37 0 73 13t69 42v525h146v-523
q38 -30 69.5 -43.5t73.5 -13.5q36 0 67.5 9.5t54.5 25.5t36 35.5t13 39.5v722h147v-722v0z" />
    <glyph glyph-name="x" unicode="x" horiz-adv-x="1068" 
d="M1047 0h-192l-317 371q-78 -92 -158 -186t-158 -185h-192l411 485q-47 55 -100 118t-107 126.5t-106.5 125t-97.5 115.5h193l315 -371q78 92 158 186t158 185h193l-412 -485z" />
    <glyph glyph-name="y" unicode="y" horiz-adv-x="1049" 
d="M927 968l-1 -940q0 -31 -3.5 -69.5t-16 -78t-36.5 -76.5t-65 -66t-101 -46.5t-144 -17.5q-60 0 -138 11t-179 37l37 141q93 -23 161.5 -32.5t118.5 -9.5q76 0 119.5 18t66 46.5t28.5 63t6 67.5v42q-69 -31 -135 -45t-128 -14q-76 0 -142.5 20t-118 55.5t-85 84.5
t-42.5 108q-8 50 -11 101.5t-3 100.5l1 499h146v-499q0 -42 2.5 -88t9.5 -91q4 -27 23 -53t50.5 -46.5t74 -33t95.5 -12.5q57 0 124 18.5t139 60.5v744h147z" />
    <glyph glyph-name="z" unicode="z" horiz-adv-x="984" 
d="M842 970q19 0 31 -29t17 -83v-21l-587 -690h587v-147h-742q-19 0 -30 29t-17 83v23l586 689h-586v146h741v0z" />
    <glyph glyph-name="braceleft" unicode="{" horiz-adv-x="568" 
d="M320 759q0 -59 -11.5 -104.5t-37.5 -79.5q25 -33 37 -79t12 -103v-272q0 -48 16 -77.5t45 -46t70 -22.5t91 -6v-148q-72 0 -138.5 13t-118 47t-82 92t-30.5 148v272q0 24 -2.5 42t-7.5 32q-5 19 -30 27t-89 8v148q86 0 100 10q7 3 12 9t9 17.5t6 29t2 43.5v270
q0 63 15 110t41.5 80t62 54.5t76.5 34t85.5 17t88.5 5.5v-149q-47 0 -87.5 -4.5t-70.5 -20.5t-47 -46t-17 -81v-270v0z" />
    <glyph glyph-name="bar" unicode="|" horiz-adv-x="377" 
d="M272 1321v-1491h-148v1491h148z" />
    <glyph glyph-name="braceright" unicode="}" horiz-adv-x="565" 
d="M259 392q0 59 11.5 104.5t37.5 78.5q-25 34 -37 80t-12 103v271q0 48 -16 77.5t-45 46.5t-70 23t-92 6v148q72 0 139 -13.5t118.5 -47t82 -92t30.5 -148.5v-271q0 -47 10 -74q3 -10 9.5 -16.5t20 -10.5t35.5 -6t54 -2v-148q-86 0 -100 -10q-14 -7 -21.5 -27t-7.5 -72
v-271q0 -95 -33 -153t-85.5 -90.5t-119 -44t-132.5 -12.5v149q48 0 88.5 4.5t70.5 20.5t47 45.5t17 80.5v271v0z" />
    <glyph glyph-name="asciitilde" unicode="~" horiz-adv-x="1095" 
d="M996 597q-9 -30 -27.5 -65.5t-47.5 -66t-70 -50.5t-95 -20q-52 0 -115 21.5t-135 66.5q-55 34 -95 47t-66 13q-20 0 -34.5 -8.5t-24.5 -20.5t-16.5 -26t-9.5 -25l-152 40q7 30 24 65t46.5 65.5t70.5 50.5t96 20q52 0 113.5 -20.5t134.5 -66.5l-1 1q57 -34 97.5 -48
t66.5 -14q19 0 33 9t24 22t16.5 27t9.5 24z" />
    <glyph glyph-name="thothannobasethai" horiz-adv-x="925" 
d="M769 931q-21 -26 -45 -44q43 -48 66.5 -108.5t23.5 -128.5v-281q0 -75 -29 -140t-79 -114.5t-117.5 -80t-143.5 -36.5l-116 -2l-221 460h159l152 -313q53 3 98.5 22t79 49.5t52.5 70t19 84.5v281q0 46 -20 87.5t-54.5 72.5t-81 49t-99.5 18h-65q-71 0 -133 -39t-104 -102
l-101 114q30 40 68 72t82 54.5t91.5 34.5t96.5 12h65q51 0 97.5 -11.5t88.5 -32.5q14 8 28 22t25 29t17.5 28.5t6.5 21.5h146q0 -53 -15.5 -89t-37.5 -61v1z" />
    <glyph glyph-name="thothannobasethai" unicode="&#xf700;" horiz-adv-x="925" 
d="M769 931q-21 -26 -45 -44q43 -48 66.5 -108.5t23.5 -128.5v-281q0 -75 -29 -140t-79 -114.5t-117.5 -80t-143.5 -36.5l-116 -2l-221 460h159l152 -313q53 3 98.5 22t79 49.5t52.5 70t19 84.5v281q0 46 -20 87.5t-54.5 72.5t-81 49t-99.5 18h-65q-71 0 -133 -39t-104 -102
l-101 114q30 40 68 72t82 54.5t91.5 34.5t96.5 12h65q51 0 97.5 -11.5t88.5 -32.5q14 8 28 22t25 29t17.5 28.5t6.5 21.5h146q0 -53 -15.5 -89t-37.5 -61v1z" />
    <glyph glyph-name="thothannobasethai" unicode="&#x20ac;" horiz-adv-x="925" 
d="M769 931q-21 -26 -45 -44q43 -48 66.5 -108.5t23.5 -128.5v-281q0 -75 -29 -140t-79 -114.5t-117.5 -80t-143.5 -36.5l-116 -2l-221 460h159l152 -313q53 3 98.5 22t79 49.5t52.5 70t19 84.5v281q0 46 -20 87.5t-54.5 72.5t-81 49t-99.5 18h-65q-71 0 -133 -39t-104 -102
l-101 114q30 40 68 72t82 54.5t91.5 34.5t96.5 12h65q51 0 97.5 -11.5t88.5 -32.5q14 8 28 22t25 29t17.5 28.5t6.5 21.5h146q0 -53 -15.5 -89t-37.5 -61v1z" />
    <glyph glyph-name="saraileftthai" 
d="M-404 1291q47 -6 73 -17t26 -31v-98h-628v98q0 20 26 31t73 17h430v0z" />
    <glyph glyph-name="saraileftthai" unicode="&#xf701;" 
d="M-404 1291q47 -6 73 -17t26 -31v-98h-628v98q0 20 26 31t73 17h430v0z" />
    <glyph glyph-name="saraiileftthai" 
d="M-305 1363v-218h-628v98q0 20 25.5 31t70.5 17h389q6 35 17 53.5t27 18.5h99z" />
    <glyph glyph-name="saraiileftthai" unicode="&#xf702;" 
d="M-305 1363v-218h-628v98q0 20 25.5 31t70.5 17h389q6 35 17 53.5t27 18.5h99z" />
    <glyph glyph-name="saraiileftthai" unicode="&#x201a;" 
d="M-305 1363v-218h-628v98q0 20 25.5 31t70.5 17h389q6 35 17 53.5t27 18.5h99z" />
    <glyph glyph-name="saraueleftthai" 
d="M-419 1394q25 0 48 -10t39.5 -27t26.5 -39.5t10 -48.5t-10 -48.5t-26.5 -39.5t-39.5 -26.5t-48 -9.5h-514v98q0 20 26 31t73 17h292q8 45 42 74t81 29z" />
    <glyph glyph-name="saraueleftthai" unicode="&#xf703;" 
d="M-419 1394q25 0 48 -10t39.5 -27t26.5 -39.5t10 -48.5t-10 -48.5t-26.5 -39.5t-39.5 -26.5t-48 -9.5h-514v98q0 20 26 31t73 17h292q8 45 42 74t81 29z" />
    <glyph glyph-name="saraueleftthai" unicode="&#x192;" 
d="M-419 1394q25 0 48 -10t39.5 -27t26.5 -39.5t10 -48.5t-10 -48.5t-26.5 -39.5t-39.5 -26.5t-48 -9.5h-514v98q0 20 26 31t73 17h292q8 45 42 74t81 29z" />
    <glyph glyph-name="saraueeleftthai" 
d="M-304 1145h-629v98q0 20 25 30.5t72 17.5h166q7 35 18 53.5t25 18.5h99v-72h81q6 35 17 53.5t27 18.5h99v-218z" />
    <glyph glyph-name="saraueeleftthai" unicode="&#xf704;" 
d="M-304 1145h-629v98q0 20 25 30.5t72 17.5h166q7 35 18 53.5t25 18.5h99v-72h81q6 35 17 53.5t27 18.5h99v-218z" />
    <glyph glyph-name="saraueeleftthai" unicode="&#x201e;" 
d="M-304 1145h-629v98q0 20 25 30.5t72 17.5h166q7 35 18 53.5t25 18.5h99v-72h81q6 35 17 53.5t27 18.5h99v-218z" />
    <glyph glyph-name="ellipsis" unicode="&#x85;" horiz-adv-x="1334" 
d="M368 111q0 -21 -8 -39.5t-21.5 -32.5t-32 -22t-39.5 -8t-39.5 8t-32 22t-21.5 32.5t-8 39.5t8 40t21.5 32.5t32 21.5t39.5 8q43 0 72 -29.5t29 -72.5zM766 111q0 -21 -8 -39.5t-21.5 -32.5t-32 -22t-39.5 -8t-39.5 8t-32 22t-21.5 32.5t-8 39.5t8 40t21.5 32.5t32 21.5
t39.5 8q43 0 72 -29.5t29 -72.5zM1164 111q0 -21 -8 -39.5t-21.5 -32.5t-32 -22t-39.5 -8t-39.5 8t-32.5 22t-22 32.5t-8 39.5t8 40t22 32.5t32.5 21.5t39.5 8q43 0 72 -29.5t29 -72.5z" />
    <glyph glyph-name="ellipsis" unicode="&#x2026;" horiz-adv-x="1334" 
d="M368 111q0 -21 -8 -39.5t-21.5 -32.5t-32 -22t-39.5 -8t-39.5 8t-32 22t-21.5 32.5t-8 39.5t8 40t21.5 32.5t32 21.5t39.5 8q43 0 72 -29.5t29 -72.5zM766 111q0 -21 -8 -39.5t-21.5 -32.5t-32 -22t-39.5 -8t-39.5 8t-32 22t-21.5 32.5t-8 39.5t8 40t21.5 32.5t32 21.5
t39.5 8q43 0 72 -29.5t29 -72.5zM1164 111q0 -21 -8 -39.5t-21.5 -32.5t-32 -22t-39.5 -8t-39.5 8t-32.5 22t-22 32.5t-8 39.5t8 40t22 32.5t32.5 21.5t39.5 8q43 0 72 -29.5t29 -72.5z" />
    <glyph glyph-name="maieklowleftthai" 
d="M-375 1185h-147v332h147v-332z" />
    <glyph glyph-name="maieklowleftthai" unicode="&#xf705;" 
d="M-375 1185h-147v332h147v-332z" />
    <glyph glyph-name="maieklowleftthai" unicode="&#x2020;" 
d="M-375 1185h-147v332h147v-332z" />
    <glyph glyph-name="maitholowleftthai" 
d="M-318 1351v-146h-486v108q1 6 1.5 11.5t1.5 10.5h-50v146h192v-130h341z" />
    <glyph glyph-name="maitholowleftthai" unicode="&#xf706;" 
d="M-318 1351v-146h-486v108q1 6 1.5 11.5t1.5 10.5h-50v146h192v-130h341z" />
    <glyph glyph-name="maitholowleftthai" unicode="&#x2021;" 
d="M-318 1351v-146h-486v108q1 6 1.5 11.5t1.5 10.5h-50v146h192v-130h341z" />
    <glyph glyph-name="maitrilowleftthai" 
d="M-255 1406q0 -73 -46.5 -131t-131.5 -90h-70q-18 0 -29 24t-16 68v23q0 24 -9.5 44t-31.5 34q-23 -10 -50 -21t-49 -20l-97 41q-42 -30 -42 -78v-115h-94q-15 0 -27.5 25t-17.5 70v20q0 38 14.5 75t38.5 68t55.5 53t66.5 31l102 -39q23 11 48.5 22t48.5 21q17 -6 21 -7.5
t5 -2.5q58 -24 98 -69t53 -103q25 24 25 57v119h135v-119z" />
    <glyph glyph-name="maitrilowleftthai" unicode="&#xf707;" 
d="M-255 1406q0 -73 -46.5 -131t-131.5 -90h-70q-18 0 -29 24t-16 68v23q0 24 -9.5 44t-31.5 34q-23 -10 -50 -21t-49 -20l-97 41q-42 -30 -42 -78v-115h-94q-15 0 -27.5 25t-17.5 70v20q0 38 14.5 75t38.5 68t55.5 53t66.5 31l102 -39q23 11 48.5 22t48.5 21q17 -6 21 -7.5
t5 -2.5q58 -24 98 -69t53 -103q25 24 25 57v119h135v-119z" />
    <glyph glyph-name="maitrilowleftthai" unicode="&#x2c6;" 
d="M-255 1406q0 -73 -46.5 -131t-131.5 -90h-70q-18 0 -29 24t-16 68v23q0 24 -9.5 44t-31.5 34q-23 -10 -50 -21t-49 -20l-97 41q-42 -30 -42 -78v-115h-94q-15 0 -27.5 25t-17.5 70v20q0 38 14.5 75t38.5 68t55.5 53t66.5 31l102 -39q23 11 48.5 22t48.5 21q17 -6 21 -7.5
t5 -2.5q58 -24 98 -69t53 -103q25 24 25 57v119h135v-119z" />
    <glyph glyph-name="maichattawalowleftthai" 
d="M-319 1277h-102v-101h-147v101h-102v147h102v102h109q14 0 24.5 -21.5t13.5 -59.5v-21h102v-147z" />
    <glyph glyph-name="maichattawalowleftthai" unicode="&#xf708;" 
d="M-319 1277h-102v-101h-147v101h-102v147h102v102h109q14 0 24.5 -21.5t13.5 -59.5v-21h102v-147z" />
    <glyph glyph-name="maichattawalowleftthai" unicode="&#x2030;" 
d="M-319 1277h-102v-101h-147v101h-102v147h102v102h109q14 0 24.5 -21.5t13.5 -59.5v-21h102v-147z" />
    <glyph glyph-name="thanthakhatlowleftthai" 
d="M-438 1266q-2 -38 -10.5 -59t-28.5 -21h-108v218l548 45l11 -148z" />
    <glyph glyph-name="thanthakhatlowleftthai" unicode="&#xf709;" 
d="M-438 1266q-2 -38 -10.5 -59t-28.5 -21h-108v218l548 45l11 -148z" />
    <glyph glyph-name="thanthakhatlowleftthai" unicode="&#x160;" 
d="M-438 1266q-2 -38 -10.5 -59t-28.5 -21h-108v218l548 45l11 -148z" />
    <glyph glyph-name="maieklowrightthai" 
d="M-109 1185h-147v332h147v-332z" />
    <glyph glyph-name="maieklowrightthai" unicode="&#xf70a;" 
d="M-109 1185h-147v332h147v-332z" />
    <glyph glyph-name="maieklowrightthai" unicode="&#x2039;" 
d="M-109 1185h-147v332h147v-332z" />
    <glyph glyph-name="maitholowrightthai" 
d="M-32 1364v-148h-586v110q0 6 0.5 12t1.5 11q-14 0 -27.5 -0.5t-22.5 -0.5v147h194v-131h440z" />
    <glyph glyph-name="maitholowrightthai" unicode="&#xf70b;" 
d="M-32 1364v-148h-586v110q0 6 0.5 12t1.5 11q-14 0 -27.5 -0.5t-22.5 -0.5v147h194v-131h440z" />
    <glyph glyph-name="maitholowrightthai" unicode="&#x152;" 
d="M-32 1364v-148h-586v110q0 6 0.5 12t1.5 11q-14 0 -27.5 -0.5t-22.5 -0.5v147h194v-131h440z" />
    <glyph glyph-name="maitrilowrightthai" 
d="M-47 1406q0 -73 -46.5 -131t-131.5 -90h-69q-19 0 -30 24t-16 68v23q0 24 -9.5 44t-31.5 34q-23 -10 -50 -21t-49 -20l-97 41q-42 -30 -42 -78v-115h-94q-15 0 -27.5 25t-17.5 70v20q0 38 14.5 75t38.5 68t55.5 53t66.5 31l102 -39q23 11 48.5 22t48.5 21
q17 -6 21.5 -7.5t5.5 -2.5q57 -24 97 -69t53 -103q25 24 25 57v119h135v-119z" />
    <glyph glyph-name="maitrilowrightthai" unicode="&#xf70c;" 
d="M-47 1406q0 -73 -46.5 -131t-131.5 -90h-69q-19 0 -30 24t-16 68v23q0 24 -9.5 44t-31.5 34q-23 -10 -50 -21t-49 -20l-97 41q-42 -30 -42 -78v-115h-94q-15 0 -27.5 25t-17.5 70v20q0 38 14.5 75t38.5 68t55.5 53t66.5 31l102 -39q23 11 48.5 22t48.5 21
q17 -6 21.5 -7.5t5.5 -2.5q57 -24 97 -69t53 -103q25 24 25 57v119h135v-119z" />
    <glyph glyph-name="maichattawalowrightthai" 
d="M-106 1290h-103v-103h-148v103h-103v148h103v103h110q14 0 25 -22t13 -60v-21h103v-148z" />
    <glyph glyph-name="maichattawalowrightthai" unicode="&#xf70d;" 
d="M-106 1290h-103v-103h-148v103h-103v148h103v103h110q14 0 25 -22t13 -60v-21h103v-148z" />
    <glyph glyph-name="maichattawalowrightthai" unicode="&#x17d;" 
d="M-106 1290h-103v-103h-148v103h-103v148h103v103h110q14 0 25 -22t13 -60v-21h103v-148z" />
    <glyph glyph-name="thanthakhatlowrightthai" 
d="M-433 1264q-3 -38 -11 -58.5t-28 -20.5h-107v216l542 45l12 -147z" />
    <glyph glyph-name="thanthakhatlowrightthai" unicode="&#xf70e;" 
d="M-433 1264q-3 -38 -11 -58.5t-28 -20.5h-107v216l542 45l12 -147z" />
    <glyph glyph-name="yoyingnobasethai" horiz-adv-x="1614" 
d="M1476 1014v-725q0 -63 -25.5 -118t-68.5 -95.5t-101 -63.5t-122 -23h-49q-64 0 -121.5 23t-101 63.5t-69 95.5t-25.5 118l1 429q0 29 -18 57.5t-53.5 51t-89 36.5t-123.5 14q-51 0 -112.5 -10.5t-130.5 -31.5v-835h-145v940q112 43 209 63t179 20q93 0 172 -22t136 -62.5
t89.5 -96.5t32.5 -123v-430q0 -32 13 -59.5t36 -48.5t54 -33t67 -12h49q36 0 67.5 12t54.5 33t36 49t13 59v725h146z" />
    <glyph glyph-name="yoyingnobasethai" unicode="&#xf70f;" horiz-adv-x="1614" 
d="M1476 1014v-725q0 -63 -25.5 -118t-68.5 -95.5t-101 -63.5t-122 -23h-49q-64 0 -121.5 23t-101 63.5t-69 95.5t-25.5 118l1 429q0 29 -18 57.5t-53.5 51t-89 36.5t-123.5 14q-51 0 -112.5 -10.5t-130.5 -31.5v-835h-145v940q112 43 209 63t179 20q93 0 172 -22t136 -62.5
t89.5 -96.5t32.5 -123v-430q0 -32 13 -59.5t36 -48.5t54 -33t67 -12h49q36 0 67.5 12t54.5 33t36 49t13 59v725h146z" />
    <glyph glyph-name="quoteleft" horiz-adv-x="311" 
d="M75 1314h157l-8 -400h-137z" />
    <glyph glyph-name="quoteleft" unicode="&#x2018;" horiz-adv-x="311" 
d="M75 1314h157l-8 -400h-137z" />
    <glyph glyph-name="quoteright" horiz-adv-x="321" 
d="M83 1314h157l-8 -400h-137z" />
    <glyph glyph-name="quoteright" unicode="&#x2019;" horiz-adv-x="321" 
d="M83 1314h157l-8 -400h-137z" />
    <glyph glyph-name="bullet" horiz-adv-x="705" 
d="M354 373q-40 0 -76 15.5t-63 42.5t-43 63t-16 77q0 40 16 76t43 63t63 42.5t76 15.5q41 0 77 -15.5t63 -42.5t42.5 -63t15.5 -76q0 -41 -15.5 -77t-42.5 -63t-63 -42.5t-77 -15.5z" />
    <glyph glyph-name="bullet" unicode="&#x2022;" horiz-adv-x="705" 
d="M354 373q-40 0 -76 15.5t-63 42.5t-43 63t-16 77q0 40 16 76t43 63t63 42.5t76 15.5q41 0 77 -15.5t63 -42.5t42.5 -63t15.5 -76q0 -41 -15.5 -77t-42.5 -63t-63 -42.5t-77 -15.5z" />
    <glyph glyph-name="endash" horiz-adv-x="1043" 
d="M101 649h833v-147h-833v147z" />
    <glyph glyph-name="endash" unicode="&#x2013;" horiz-adv-x="1043" 
d="M101 649h833v-147h-833v147z" />
    <glyph glyph-name="emdash" horiz-adv-x="1302" 
d="M113 649h1050v-147h-1050v147z" />
    <glyph glyph-name="emdash" unicode="&#x2014;" horiz-adv-x="1302" 
d="M113 649h1050v-147h-1050v147z" />
    <glyph glyph-name="maihanakatleftthai" 
d="M-288 1294v-149h-573v275h107q17 0 26.5 -21t12.5 -60v-47z" />
    <glyph glyph-name="maihanakatleftthai" unicode="&#xf710;" 
d="M-288 1294v-149h-573v275h107q17 0 26.5 -21t12.5 -60v-47z" />
    <glyph glyph-name="maihanakatleftthai" unicode="&#x2dc;" 
d="M-288 1294v-149h-573v275h107q17 0 26.5 -21t12.5 -60v-47z" />
    <glyph glyph-name="nikhahitleftthai" 
d="M-489 1390q36 0 68 -14t56.5 -38.5t38.5 -56.5t14 -68q0 -38 -14 -70t-38.5 -56t-56.5 -37.5t-68 -13.5q-38 0 -70 13.5t-56 37.5t-37.5 56t-13.5 70q0 36 13.5 68t37.5 56.5t56 38.5t70 14zM-489 1151q25 0 42.5 18t17.5 44t-17.5 43t-42.5 17q-26 0 -43 -17t-17 -43
t17 -44t43 -18z" />
    <glyph glyph-name="nikhahitleftthai" unicode="&#xf711;" 
d="M-489 1390q36 0 68 -14t56.5 -38.5t38.5 -56.5t14 -68q0 -38 -14 -70t-38.5 -56t-56.5 -37.5t-68 -13.5q-38 0 -70 13.5t-56 37.5t-37.5 56t-13.5 70q0 36 13.5 68t37.5 56.5t56 38.5t70 14zM-489 1151q25 0 42.5 18t17.5 44t-17.5 43t-42.5 17q-26 0 -43 -17t-17 -43
t17 -44t43 -18z" />
    <glyph glyph-name="nikhahitleftthai" unicode="&#x2122;" 
d="M-489 1390q36 0 68 -14t56.5 -38.5t38.5 -56.5t14 -68q0 -38 -14 -70t-38.5 -56t-56.5 -37.5t-68 -13.5q-38 0 -70 13.5t-56 37.5t-37.5 56t-13.5 70q0 36 13.5 68t37.5 56.5t56 38.5t70 14zM-489 1151q25 0 42.5 18t17.5 44t-17.5 43t-42.5 17q-26 0 -43 -17t-17 -43
t17 -44t43 -18z" />
    <glyph glyph-name="maitaikhuleftthai" 
d="M-719 1421q-4 -4 -6 -9t-3 -14v-78q1 -17 12.5 -23.5t30.5 -6.5q9 0 14.5 1t10.5 3q1 11 1.5 19t0.5 13h147v-37q8 -4 21 -4q19 0 33 15.5t16 50.5h145q0 -53 -17 -92.5t-45 -66t-62.5 -40t-69.5 -13.5q-24 0 -50.5 6t-48.5 20q-23 -11 -47.5 -16t-48.5 -5
q-33 0 -67 10.5t-61 32t-44 54.5t-17 78v82q0 42 15.5 74.5t41 54t58 33t65.5 12.5h456v-147h-455q-17 0 -26 -7z" />
    <glyph glyph-name="maitaikhuleftthai" unicode="&#xf712;" 
d="M-719 1421q-4 -4 -6 -9t-3 -14v-78q1 -17 12.5 -23.5t30.5 -6.5q9 0 14.5 1t10.5 3q1 11 1.5 19t0.5 13h147v-37q8 -4 21 -4q19 0 33 15.5t16 50.5h145q0 -53 -17 -92.5t-45 -66t-62.5 -40t-69.5 -13.5q-24 0 -50.5 6t-48.5 20q-23 -11 -47.5 -16t-48.5 -5
q-33 0 -67 10.5t-61 32t-44 54.5t-17 78v82q0 42 15.5 74.5t41 54t58 33t65.5 12.5h456v-147h-455q-17 0 -26 -7z" />
    <glyph glyph-name="maitaikhuleftthai" unicode="&#x161;" 
d="M-719 1421q-4 -4 -6 -9t-3 -14v-78q1 -17 12.5 -23.5t30.5 -6.5q9 0 14.5 1t10.5 3q1 11 1.5 19t0.5 13h147v-37q8 -4 21 -4q19 0 33 15.5t16 50.5h145q0 -53 -17 -92.5t-45 -66t-62.5 -40t-69.5 -13.5q-24 0 -50.5 6t-48.5 20q-23 -11 -47.5 -16t-48.5 -5
q-33 0 -67 10.5t-61 32t-44 54.5t-17 78v82q0 42 15.5 74.5t41 54t58 33t65.5 12.5h456v-147h-455q-17 0 -26 -7z" />
    <glyph glyph-name="maiekupperleftthai" 
d="M-305 1496h-147v331h147v-331z" />
    <glyph glyph-name="maiekupperleftthai" unicode="&#xf713;" 
d="M-305 1496h-147v331h147v-331z" />
    <glyph glyph-name="maiekupperleftthai" unicode="&#x203a;" 
d="M-305 1496h-147v331h147v-331z" />
    <glyph glyph-name="maithoupperleftthai" 
d="M-133 1633v-146h-485v109q0 5 0.5 10.5t1.5 10.5h-50v146h193v-130h340z" />
    <glyph glyph-name="maithoupperleftthai" unicode="&#xf714;" 
d="M-133 1633v-146h-485v109q0 5 0.5 10.5t1.5 10.5h-50v146h193v-130h340z" />
    <glyph glyph-name="maithoupperleftthai" unicode="&#x153;" 
d="M-133 1633v-146h-485v109q0 5 0.5 10.5t1.5 10.5h-50v146h193v-130h340z" />
    <glyph glyph-name="maitriupperleftthai" 
d="M-100 1680q0 -74 -46.5 -132t-131.5 -90h-69q-19 0 -29.5 24t-15.5 69v22q0 50 -42 78q-23 -10 -50 -21t-49 -20l-97 41q-42 -30 -42 -78v-115h-93q-16 0 -28.5 25t-17.5 70v20q0 38 14.5 75.5t38.5 68t56 53t67 30.5l101 -38q23 10 48.5 21t48.5 21q17 -6 21.5 -7.5
t5.5 -2.5q57 -24 97 -69t53 -103q25 24 25 58v118h135v-118z" />
    <glyph glyph-name="maitriupperleftthai" unicode="&#xf715;" 
d="M-100 1680q0 -74 -46.5 -132t-131.5 -90h-69q-19 0 -29.5 24t-15.5 69v22q0 50 -42 78q-23 -10 -50 -21t-49 -20l-97 41q-42 -30 -42 -78v-115h-93q-16 0 -28.5 25t-17.5 70v20q0 38 14.5 75.5t38.5 68t56 53t67 30.5l101 -38q23 10 48.5 21t48.5 21q17 -6 21.5 -7.5
t5.5 -2.5q57 -24 97 -69t53 -103q25 24 25 58v118h135v-118z" />
    <glyph glyph-name="maichattawaupperleftthai" 
d="M-303 1588h-101v-101h-147v101h-102v147h102v102h109q14 0 24.5 -21.5t13.5 -59.5v-21h101v-147z" />
    <glyph glyph-name="maichattawaupperleftthai" unicode="&#xf716;" 
d="M-303 1588h-101v-101h-147v101h-102v147h102v102h109q14 0 24.5 -21.5t13.5 -59.5v-21h101v-147z" />
    <glyph glyph-name="maichattawaupperleftthai" unicode="&#x17e;" 
d="M-303 1588h-101v-101h-147v101h-102v147h102v102h109q14 0 24.5 -21.5t13.5 -59.5v-21h101v-147z" />
    <glyph glyph-name="thanthakhatupperleftthai" 
d="M-410 1520q-3 -38 -11 -59t-28 -21h-109v218l548 45l12 -148z" />
    <glyph glyph-name="thanthakhatupperleftthai" unicode="&#xf717;" 
d="M-410 1520q-3 -38 -11 -59t-28 -21h-109v218l548 45l12 -148z" />
    <glyph glyph-name="thanthakhatupperleftthai" unicode="&#x178;" 
d="M-410 1520q-3 -38 -11 -59t-28 -21h-109v218l548 45l12 -148z" />
    <glyph glyph-name="uni00A0" unicode="&#xa0;" horiz-adv-x="925" 
 />
    <glyph glyph-name="uni00A0" unicode="&#xe00;" horiz-adv-x="925" 
 />
    <glyph glyph-name="kokaithai" unicode="&#xa1;" horiz-adv-x="1046" 
d="M804 943q60 -40 94.5 -95.5t34.5 -128.5v-719h-147v719q0 28 -18 56.5t-53.5 51t-88.5 36.5t-124 14q-53 0 -114 -9.5t-129 -31.5v-836h-146v939q113 45 210.5 65t178.5 20q94 0 170 -21.5t132 -59.5z" />
    <glyph glyph-name="kokaithai" unicode="&#xe01;" horiz-adv-x="1046" 
d="M804 943q60 -40 94.5 -95.5t34.5 -128.5v-719h-147v719q0 28 -18 56.5t-53.5 51t-88.5 36.5t-124 14q-53 0 -114 -9.5t-129 -31.5v-836h-146v939q113 45 210.5 65t178.5 20q94 0 170 -21.5t132 -59.5z" />
    <glyph glyph-name="khokhaithai" unicode="&#xa2;" horiz-adv-x="998" 
d="M884 1017v-653q0 -79 -30.5 -147t-83 -118.5t-123 -79t-150.5 -28.5h-5q-80 0 -150 29t-123 79t-83.5 118.5t-30.5 146.5v130l106 359q-3 10 -23 18t-40 8v148q40 -1 77.5 -15.5t67 -38.5t47.5 -57t18 -71l-108 -362v-119q0 -47 19 -88.5t52 -72.5t77 -48.5t94 -17.5h5
q50 0 94 18t77 48.5t52 72t19 88.5v653h145z" />
    <glyph glyph-name="khokhaithai" unicode="&#xe02;" horiz-adv-x="998" 
d="M884 1017v-653q0 -79 -30.5 -147t-83 -118.5t-123 -79t-150.5 -28.5h-5q-80 0 -150 29t-123 79t-83.5 118.5t-30.5 146.5v130l106 359q-3 10 -23 18t-40 8v148q40 -1 77.5 -15.5t67 -38.5t47.5 -57t18 -71l-108 -362v-119q0 -47 19 -88.5t52 -72.5t77 -48.5t94 -17.5h5
q50 0 94 18t77 48.5t52 72t19 88.5v653h145z" />
    <glyph glyph-name="khokhuatthai" unicode="&#xa3;" horiz-adv-x="1058" 
d="M940 1015v-653q0 -78 -31 -146t-83.5 -118.5t-123 -79.5t-149.5 -29h-62q-79 0 -149.5 29t-123 79t-83 118.5t-30.5 146.5v131l104 320q-31 4 -60 21t-51 44t-35.5 61.5t-13.5 75.5h146q0 -10 3 -20t8.5 -18.5t12 -13.5t12.5 -5q12 0 24 18t12 39h134l1 -24
q0 -3 0.5 -6.5t0.5 -6.5q0 -25 -21 -97l-132 -397v-122q0 -47 19 -88.5t51.5 -72t76.5 -48.5t94 -18h62q50 0 94 17.5t77 48.5t52 72.5t19 88.5v653h145z" />
    <glyph glyph-name="khokhuatthai" unicode="&#xe03;" horiz-adv-x="1058" 
d="M940 1015v-653q0 -78 -31 -146t-83.5 -118.5t-123 -79.5t-149.5 -29h-62q-79 0 -149.5 29t-123 79t-83 118.5t-30.5 146.5v131l104 320q-31 4 -60 21t-51 44t-35.5 61.5t-13.5 75.5h146q0 -10 3 -20t8.5 -18.5t12 -13.5t12.5 -5q12 0 24 18t12 39h134l1 -24
q0 -3 0.5 -6.5t0.5 -6.5q0 -25 -21 -97l-132 -397v-122q0 -47 19 -88.5t51.5 -72t76.5 -48.5t94 -18h62q50 0 94 17.5t77 48.5t52 72.5t19 88.5v653h145z" />
    <glyph glyph-name="khokhwaithai" unicode="&#xa4;" horiz-adv-x="1098" 
d="M862 916q55 -51 87.5 -119t32.5 -146v-651h-147v651q0 46 -19.5 87t-54 72t-80.5 49t-100 18h-66q-55 0 -101.5 -18.5t-80.5 -49.5t-53.5 -72t-19.5 -86v-128q19 4 43 4h225v-99q0 -17 -25 -29t-71 -19h-129q-29 0 -36 -7.5t-7 -10.5v-362h-146v654q1 78 33 145.5
t87 117.5t127.5 78.5t153.5 28.5h66q82 0 154 -28.5t127 -79.5z" />
    <glyph glyph-name="khokhwaithai" unicode="&#xe04;" horiz-adv-x="1098" 
d="M862 916q55 -51 87.5 -119t32.5 -146v-651h-147v651q0 46 -19.5 87t-54 72t-80.5 49t-100 18h-66q-55 0 -101.5 -18.5t-80.5 -49.5t-53.5 -72t-19.5 -86v-128q19 4 43 4h225v-99q0 -17 -25 -29t-71 -19h-129q-29 0 -36 -7.5t-7 -10.5v-362h-146v654q1 78 33 145.5
t87 117.5t127.5 78.5t153.5 28.5h66q82 0 154 -28.5t127 -79.5z" />
    <glyph glyph-name="khokhonthai" unicode="&#xa5;" horiz-adv-x="1098" 
d="M862 932q55 -51 87.5 -119t32.5 -146v-667h-147v667q0 28 -8.5 55.5t-23.5 52t-36.5 45.5t-46.5 36q-42 -17 -87 -37t-85 -37l-171 74q-57 -31 -87 -80t-30 -109v-144q19 4 43 4h225v-99q0 -17 -25 -29t-71 -19h-129q-29 0 -36 -7.5t-7 -10.5v-362h-146v667
q0 60 19.5 114t54.5 99.5t83.5 81t105.5 56.5l171 -73q41 17 85.5 35.5t84.5 35.5q44 -16 79.5 -37t64.5 -47z" />
    <glyph glyph-name="khokhonthai" unicode="&#xe05;" horiz-adv-x="1098" 
d="M862 932q55 -51 87.5 -119t32.5 -146v-667h-147v667q0 28 -8.5 55.5t-23.5 52t-36.5 45.5t-46.5 36q-42 -17 -87 -37t-85 -37l-171 74q-57 -31 -87 -80t-30 -109v-144q19 4 43 4h225v-99q0 -17 -25 -29t-71 -19h-129q-29 0 -36 -7.5t-7 -10.5v-362h-146v667
q0 60 19.5 114t54.5 99.5t83.5 81t105.5 56.5l171 -73q41 17 85.5 35.5t84.5 35.5q44 -16 79.5 -37t64.5 -47z" />
    <glyph glyph-name="khorakhangthai" unicode="&#xa6;" horiz-adv-x="1043" 
d="M929 1014v-779q-1 -56 -25.5 -102t-67.5 -78t-101.5 -49.5t-125.5 -17.5q-78 0 -167 22t-188 70q-7 -38 -17.5 -59t-26.5 -21h-99v493l107 320q-32 4 -61.5 21t-52 43.5t-36 61.5t-14.5 76h148q0 -10 3.5 -20t8.5 -18.5t12 -13.5t13 -5t13 5t12 13.5t8.5 18.5t3.5 20h134
q2 -22 2.5 -28.5t0.5 -9.5q0 -12 -7 -39.5t-18 -68.5l-130 -383v-242q104 -59 193 -84.5t158 -25.5q44 0 76.5 8.5t54 23.5t32 34.5t11.5 40.5v773h146z" />
    <glyph glyph-name="khorakhangthai" unicode="&#xe06;" horiz-adv-x="1043" 
d="M929 1014v-779q-1 -56 -25.5 -102t-67.5 -78t-101.5 -49.5t-125.5 -17.5q-78 0 -167 22t-188 70q-7 -38 -17.5 -59t-26.5 -21h-99v493l107 320q-32 4 -61.5 21t-52 43.5t-36 61.5t-14.5 76h148q0 -10 3.5 -20t8.5 -18.5t12 -13.5t13 -5t13 5t12 13.5t8.5 18.5t3.5 20h134
q2 -22 2.5 -28.5t0.5 -9.5q0 -12 -7 -39.5t-18 -68.5l-130 -383v-242q104 -59 193 -84.5t158 -25.5q44 0 76.5 8.5t54 23.5t32 34.5t11.5 40.5v773h146z" />
    <glyph glyph-name="ngonguthai" unicode="&#xa7;" horiz-adv-x="849" 
d="M739 1014v-655q0 -68 -26 -130.5t-70.5 -112t-103.5 -82t-126 -41.5l-70 -1l-322 653h160l245 -496q37 12 67.5 33t52.5 48.5t34 60t12 68.5v655h147z" />
    <glyph glyph-name="ngonguthai" unicode="&#xe07;" horiz-adv-x="849" 
d="M739 1014v-655q0 -68 -26 -130.5t-70.5 -112t-103.5 -82t-126 -41.5l-70 -1l-322 653h160l245 -496q37 12 67.5 33t52.5 48.5t34 60t12 68.5v655h147z" />
    <glyph glyph-name="chochanthai" unicode="&#xa8;" horiz-adv-x="936" 
d="M697 943q59 -41 93 -96.5t34 -127.5v-350q0 -79 -32 -147t-87 -118.5t-127.5 -79t-154.5 -28.5h-85l-222 460h161l151 -314q52 1 98 19.5t79.5 49.5t53 72t19.5 86v350q0 28 -17.5 56.5t-53 51t-89 36.5t-124.5 14q-66 0 -150.5 -17.5t-188.5 -57.5l-60 134
q117 46 217 67t182 21q94 0 170 -21.5t133 -59.5z" />
    <glyph glyph-name="chochanthai" unicode="&#xe08;" horiz-adv-x="936" 
d="M697 943q59 -41 93 -96.5t34 -127.5v-350q0 -79 -32 -147t-87 -118.5t-127.5 -79t-154.5 -28.5h-85l-222 460h161l151 -314q52 1 98 19.5t79.5 49.5t53 72t19.5 86v350q0 28 -17.5 56.5t-53 51t-89 36.5t-124.5 14q-66 0 -150.5 -17.5t-188.5 -57.5l-60 134
q117 46 217 67t182 21q94 0 170 -21.5t133 -59.5z" />
    <glyph glyph-name="chochingthai" unicode="&#xa9;" horiz-adv-x="1022" 
d="M782 942q59 -41 93 -96t34 -127v-719h-99q-14 0 -24 19.5t-17 53.5q-97 -48 -178.5 -66.5t-157.5 -18.5q-71 0 -130 18t-101.5 51t-66 79.5t-23.5 103.5l-1 298h147v-298q0 -44 43 -75t132 -31q65 0 148 23t182 77v485q0 28 -17.5 56.5t-53 51t-88.5 36.5t-124 14
q-67 0 -151.5 -17.5t-187.5 -57.5l-61 134q118 45 217.5 66.5t182.5 21.5q93 0 170 -22t132 -60z" />
    <glyph glyph-name="chochingthai" unicode="&#xe09;" horiz-adv-x="1022" 
d="M782 942q59 -41 93 -96t34 -127v-719h-99q-14 0 -24 19.5t-17 53.5q-97 -48 -178.5 -66.5t-157.5 -18.5q-71 0 -130 18t-101.5 51t-66 79.5t-23.5 103.5l-1 298h147v-298q0 -44 43 -75t132 -31q65 0 148 23t182 77v485q0 28 -17.5 56.5t-53 51t-88.5 36.5t-124 14
q-67 0 -151.5 -17.5t-187.5 -57.5l-61 134q118 45 217.5 66.5t182.5 21.5q93 0 170 -22t132 -60z" />
    <glyph glyph-name="chochangthai" unicode="&#xaa;" horiz-adv-x="1063" 
d="M944 1075q0 -97 -26 -161.5t-65 -103.5q39 -30 65 -76.5t26 -114.5v-265q0 -78 -31 -146t-83.5 -118.5t-123 -79.5t-149.5 -29h-63q-79 0 -149.5 29t-123 79t-83 118.5t-30.5 146.5v129l105 361q-4 10 -23.5 17.5t-39.5 7.5v147q40 0 78 -14t67 -38t47 -57t19 -71
l-108 -362v-120q0 -47 19 -88t51.5 -72t76.5 -49t94 -18h63q50 0 94 18t77 48.5t52 72t19 88.5l-1 265q0 35 -20 56.5t-50 33.5t-65 16.5t-65 4.5v147q26 0 60.5 5.5t65.5 26t52.5 59.5t21.5 107h146v0z" />
    <glyph glyph-name="chochangthai" unicode="&#xe0a;" horiz-adv-x="1063" 
d="M944 1075q0 -97 -26 -161.5t-65 -103.5q39 -30 65 -76.5t26 -114.5v-265q0 -78 -31 -146t-83.5 -118.5t-123 -79.5t-149.5 -29h-63q-79 0 -149.5 29t-123 79t-83 118.5t-30.5 146.5v129l105 361q-4 10 -23.5 17.5t-39.5 7.5v147q40 0 78 -14t67 -38t47 -57t19 -71
l-108 -362v-120q0 -47 19 -88t51.5 -72t76.5 -49t94 -18h63q50 0 94 18t77 48.5t52 72t19 88.5l-1 265q0 35 -20 56.5t-50 33.5t-65 16.5t-65 4.5v147q26 0 60.5 5.5t65.5 26t52.5 59.5t21.5 107h146v0z" />
    <glyph glyph-name="sosothai" unicode="&#xab;" horiz-adv-x="1058" 
d="M941 1075q0 -98 -25.5 -162.5t-66.5 -103.5q41 -30 66.5 -76.5t25.5 -115.5l-1 -263q0 -78 -30.5 -146t-82.5 -118.5t-122 -79.5t-150 -29h-63q-79 0 -149.5 29t-123 79t-83 118.5t-30.5 146.5v131l104 320q-32 4 -60.5 21t-51 44t-35.5 61.5t-13 75.5h146
q0 -20 11 -38.5t25 -18.5t25 18.5t11 38.5h115l11 -11q4 -5 7 -10.5t3 -15.5q0 -11 -6.5 -39.5t-18.5 -71.5l-128 -384v-121q0 -47 19 -88.5t51.5 -72t76.5 -48.5t94 -18h63q49 0 93 17.5t76.5 48.5t51.5 72.5t19 88.5v263q0 36 -20.5 58t-50.5 34t-65 16.5t-63 5.5v145
q25 0 59 5.5t65 25.5t53 59.5t22 108.5h146v0z" />
    <glyph glyph-name="sosothai" unicode="&#xe0b;" horiz-adv-x="1058" 
d="M941 1075q0 -98 -25.5 -162.5t-66.5 -103.5q41 -30 66.5 -76.5t25.5 -115.5l-1 -263q0 -78 -30.5 -146t-82.5 -118.5t-122 -79.5t-150 -29h-63q-79 0 -149.5 29t-123 79t-83 118.5t-30.5 146.5v131l104 320q-32 4 -60.5 21t-51 44t-35.5 61.5t-13 75.5h146
q0 -20 11 -38.5t25 -18.5t25 18.5t11 38.5h115l11 -11q4 -5 7 -10.5t3 -15.5q0 -11 -6.5 -39.5t-18.5 -71.5l-128 -384v-121q0 -47 19 -88.5t51.5 -72t76.5 -48.5t94 -18h63q49 0 93 17.5t76.5 48.5t51.5 72.5t19 88.5v263q0 36 -20.5 58t-50.5 34t-65 16.5t-63 5.5v145
q25 0 59 5.5t65 25.5t53 59.5t22 108.5h146v0z" />
    <glyph glyph-name="chochoethai" unicode="&#xac;" horiz-adv-x="1616" 
d="M1478 1015v-775q0 -57 -20 -103.5t-56.5 -80t-87 -52t-111.5 -18.5q-59 0 -127 18.5t-143 57.5q-6 -29 -16 -45.5t-24 -16.5h-99v719q0 29 -18 57.5t-53.5 51t-88.5 36t-124 13.5q-51 0 -112.5 -10t-129.5 -31v-836h-146v941q112 43 209 63t179 20q93 0 171.5 -22
t136.5 -62t90.5 -96t32.5 -125v-490q81 -53 147 -74.5t115 -21.5q64 0 95.5 29.5t33.5 78.5v774h146z" />
    <glyph glyph-name="chochoethai" unicode="&#xe0c;" horiz-adv-x="1616" 
d="M1478 1015v-775q0 -57 -20 -103.5t-56.5 -80t-87 -52t-111.5 -18.5q-59 0 -127 18.5t-143 57.5q-6 -29 -16 -45.5t-24 -16.5h-99v719q0 29 -18 57.5t-53.5 51t-88.5 36t-124 13.5q-51 0 -112.5 -10t-129.5 -31v-836h-146v941q112 43 209 63t179 20q93 0 171.5 -22
t136.5 -62t90.5 -96t32.5 -125v-490q81 -53 147 -74.5t115 -21.5q64 0 95.5 29.5t33.5 78.5v774h146z" />
    <glyph glyph-name="yoyingthai" unicode="&#xad;" horiz-adv-x="1614" 
d="M1486 1024v-732q0 -64 -25.5 -119t-69 -96t-101.5 -64.5t-123 -23.5h-50q-65 0 -123 23.5t-102 64.5t-69.5 96.5t-25.5 118.5l1 433q0 30 -18.5 58.5t-54.5 51t-89.5 36.5t-124.5 14q-52 0 -114 -10.5t-131 -30.5v-844h-147v949q113 44 211 64t181 20q94 0 173.5 -22.5
t137.5 -63t90.5 -97t32.5 -124.5v-434q0 -32 13 -60t36.5 -49t55 -33.5t67.5 -12.5h50q37 0 68.5 12.5t54.5 33.5t36 49t13 60v732h147zM1475 -165q-21 -48 -53 -87.5t-72 -68t-86.5 -44t-96.5 -15.5h-50q-51 0 -97.5 15.5t-86.5 44t-71.5 68t-52.5 87.5l136 56
q12 -26 30 -49t40.5 -39.5t48.5 -26t53 -9.5h50q28 0 54 9.5t48 26.5t39.5 39.5t28.5 48.5z" />
    <glyph glyph-name="yoyingthai" unicode="&#xe0d;" horiz-adv-x="1614" 
d="M1486 1024v-732q0 -64 -25.5 -119t-69 -96t-101.5 -64.5t-123 -23.5h-50q-65 0 -123 23.5t-102 64.5t-69.5 96.5t-25.5 118.5l1 433q0 30 -18.5 58.5t-54.5 51t-89.5 36.5t-124.5 14q-52 0 -114 -10.5t-131 -30.5v-844h-147v949q113 44 211 64t181 20q94 0 173.5 -22.5
t137.5 -63t90.5 -97t32.5 -124.5v-434q0 -32 13 -60t36.5 -49t55 -33.5t67.5 -12.5h50q37 0 68.5 12.5t54.5 33.5t36 49t13 60v732h147zM1475 -165q-21 -48 -53 -87.5t-72 -68t-86.5 -44t-96.5 -15.5h-50q-51 0 -97.5 15.5t-86.5 44t-71.5 68t-52.5 87.5l136 56
q12 -26 30 -49t40.5 -39.5t48.5 -26t53 -9.5h50q28 0 54 9.5t48 26.5t39.5 39.5t28.5 48.5z" />
    <glyph glyph-name="yoyingthai" unicode="&#xde;" horiz-adv-x="1614" 
d="M1486 1024v-732q0 -64 -25.5 -119t-69 -96t-101.5 -64.5t-123 -23.5h-50q-65 0 -123 23.5t-102 64.5t-69.5 96.5t-25.5 118.5l1 433q0 30 -18.5 58.5t-54.5 51t-89.5 36.5t-124.5 14q-52 0 -114 -10.5t-131 -30.5v-844h-147v949q113 44 211 64t181 20q94 0 173.5 -22.5
t137.5 -63t90.5 -97t32.5 -124.5v-434q0 -32 13 -60t36.5 -49t55 -33.5t67.5 -12.5h50q37 0 68.5 12.5t54.5 33.5t36 49t13 60v732h147zM1475 -165q-21 -48 -53 -87.5t-72 -68t-86.5 -44t-96.5 -15.5h-50q-51 0 -97.5 15.5t-86.5 44t-71.5 68t-52.5 87.5l136 56
q12 -26 30 -49t40.5 -39.5t48.5 -26t53 -9.5h50q28 0 54 9.5t48 26.5t39.5 39.5t28.5 48.5z" />
    <glyph glyph-name="dochadathai" unicode="&#xae;" horiz-adv-x="1045" 
d="M804 942q60 -41 93.5 -96t33.5 -127v-840q0 -69 -32.5 -125t-89.5 -96t-135.5 -61.5t-171.5 -21.5q-82 0 -181.5 21t-215.5 66l52 136q106 -41 192 -59t153 -18q70 0 123 14t88.5 36.5t53.5 50.5t18 57v840q0 29 -18 57t-53.5 50.5t-88.5 36.5t-123 14
q-52 0 -113.5 -10.5t-129.5 -31.5v-835h-146v940q112 43 209.5 63t179.5 20q94 0 169.5 -21.5t132.5 -59.5z" />
    <glyph glyph-name="dochadathai" unicode="&#xe0e;" horiz-adv-x="1045" 
d="M804 942q60 -41 93.5 -96t33.5 -127v-840q0 -69 -32.5 -125t-89.5 -96t-135.5 -61.5t-171.5 -21.5q-82 0 -181.5 21t-215.5 66l52 136q106 -41 192 -59t153 -18q70 0 123 14t88.5 36.5t53.5 50.5t18 57v840q0 29 -18 57t-53.5 50.5t-88.5 36.5t-123 14
q-52 0 -113.5 -10.5t-129.5 -31.5v-835h-146v940q112 43 209.5 63t179.5 20q94 0 169.5 -21.5t132.5 -59.5z" />
    <glyph glyph-name="topatakthai" unicode="&#xaf;" horiz-adv-x="1045" 
d="M804 942q60 -41 93.5 -96t33.5 -127v-1120h-102q-125 83 -230 119t-187 36q-44 0 -79 -10.5t-60.5 -28.5t-41.5 -42t-22 -51l-143 34q14 60 46 105.5t77.5 76t102 46.5t119.5 16q83 0 177 -24.5t197 -79.5v923q0 29 -18 57.5t-54 51t-89 36t-123 13.5q-51 0 -112.5 -10.5
t-129.5 -31.5v-835h-146v940q112 43 209 63t179 20q94 0 170 -21.5t133 -59.5z" />
    <glyph glyph-name="topatakthai" unicode="&#xe0f;" horiz-adv-x="1045" 
d="M804 942q60 -41 93.5 -96t33.5 -127v-1120h-102q-125 83 -230 119t-187 36q-44 0 -79 -10.5t-60.5 -28.5t-41.5 -42t-22 -51l-143 34q14 60 46 105.5t77.5 76t102 46.5t119.5 16q83 0 177 -24.5t197 -79.5v923q0 29 -18 57.5t-54 51t-89 36t-123 13.5q-51 0 -112.5 -10.5
t-129.5 -31.5v-835h-146v940q112 43 209 63t179 20q94 0 170 -21.5t133 -59.5z" />
    <glyph glyph-name="thothanthai" unicode="&#xb0;" horiz-adv-x="925" 
d="M777 -173q0 -42 -16 -78.5t-42 -63.5t-60.5 -43t-70.5 -16h-477l1 98q0 18 25.5 30t70.5 19h380q15 0 23.5 5t13 12.5t5.5 15t1 12.5zM769 931q-21 -26 -45 -44q43 -48 66.5 -108.5t23.5 -128.5v-281q0 -75 -29 -140t-79 -114.5t-117.5 -80t-143.5 -36.5l-116 -2
l-221 460h159l152 -313q53 3 98.5 22t79 49.5t52.5 70t19 84.5v281q0 46 -20 87.5t-54.5 72.5t-81 49t-99.5 18h-65q-71 0 -133 -39t-104 -102l-101 114q30 40 68 72t82 54.5t91.5 34.5t96.5 12h65q51 0 97.5 -11.5t88.5 -32.5q14 8 28 22t25 29t17.5 28.5t6.5 21.5h146
q0 -53 -15.5 -89t-37.5 -61v1z" />
    <glyph glyph-name="thothanthai" unicode="&#xe10;" horiz-adv-x="925" 
d="M777 -173q0 -42 -16 -78.5t-42 -63.5t-60.5 -43t-70.5 -16h-477l1 98q0 18 25.5 30t70.5 19h380q15 0 23.5 5t13 12.5t5.5 15t1 12.5zM769 931q-21 -26 -45 -44q43 -48 66.5 -108.5t23.5 -128.5v-281q0 -75 -29 -140t-79 -114.5t-117.5 -80t-143.5 -36.5l-116 -2
l-221 460h159l152 -313q53 3 98.5 22t79 49.5t52.5 70t19 84.5v281q0 46 -20 87.5t-54.5 72.5t-81 49t-99.5 18h-65q-71 0 -133 -39t-104 -102l-101 114q30 40 68 72t82 54.5t91.5 34.5t96.5 12h65q51 0 97.5 -11.5t88.5 -32.5q14 8 28 22t25 29t17.5 28.5t6.5 21.5h146
q0 -53 -15.5 -89t-37.5 -61v1z" />
    <glyph glyph-name="thonangmonthothai" unicode="&#xb1;" horiz-adv-x="1173" 
d="M1052 0h-146l1 773q-1 22 -11.5 41.5t-32.5 34t-54.5 23t-76.5 8.5q-69 0 -158 -25.5t-192 -84.5v-770h-146v815q-8 -2 -18 -3t-19 -1q-34 0 -67 15.5t-58.5 42.5t-41.5 64t-16 81h146q0 -10 3 -20t8.5 -18.5t12 -13.5t13.5 -5q14 0 25.5 18.5t13.5 38.5l97 -1
q10 0 22.5 -23t19.5 -57q99 48 188.5 70.5t166.5 22.5q69 0 127.5 -17.5t101.5 -50.5t67 -79.5t24 -104.5v-774z" />
    <glyph glyph-name="thonangmonthothai" unicode="&#xe11;" horiz-adv-x="1173" 
d="M1052 0h-146l1 773q-1 22 -11.5 41.5t-32.5 34t-54.5 23t-76.5 8.5q-69 0 -158 -25.5t-192 -84.5v-770h-146v815q-8 -2 -18 -3t-19 -1q-34 0 -67 15.5t-58.5 42.5t-41.5 64t-16 81h146q0 -10 3 -20t8.5 -18.5t12 -13.5t13.5 -5q14 0 25.5 18.5t13.5 38.5l97 -1
q10 0 22.5 -23t19.5 -57q99 48 188.5 70.5t166.5 22.5q69 0 127.5 -17.5t101.5 -50.5t67 -79.5t24 -104.5v-774z" />
    <glyph glyph-name="thophuthaothai" unicode="&#xb2;" horiz-adv-x="1667" 
d="M1526 240q0 -56 -20 -102.5t-56 -80.5t-86.5 -52.5t-111.5 -18.5q-60 0 -127.5 18.5t-141.5 58.5q-6 -30 -16 -46.5t-24 -16.5h-99v666q0 28 -8.5 55.5t-23.5 52t-36.5 45t-47.5 35.5q-42 -17 -87 -36.5t-85 -36.5l-171 72q-53 -30 -84.5 -79.5t-31.5 -107.5v-352
q0 -54 22 -89t57.5 -55.5t79 -28t86.5 -7.5v-146q-36 0 -79 5t-86.5 18.5t-84.5 37t-72.5 59.5t-50.5 87t-19 119v352q0 59 20 113t55.5 99.5t83.5 80.5t105 56l170 -72q41 17 85.5 36t84.5 35q58 -21 106.5 -56t83.5 -80t54.5 -99t19.5 -113v-439q80 -51 146 -73t116 -22
q64 0 95 29.5t33 77.5v774h146v-773z" />
    <glyph glyph-name="thophuthaothai" unicode="&#xe12;" horiz-adv-x="1667" 
d="M1526 240q0 -56 -20 -102.5t-56 -80.5t-86.5 -52.5t-111.5 -18.5q-60 0 -127.5 18.5t-141.5 58.5q-6 -30 -16 -46.5t-24 -16.5h-99v666q0 28 -8.5 55.5t-23.5 52t-36.5 45t-47.5 35.5q-42 -17 -87 -36.5t-85 -36.5l-171 72q-53 -30 -84.5 -79.5t-31.5 -107.5v-352
q0 -54 22 -89t57.5 -55.5t79 -28t86.5 -7.5v-146q-36 0 -79 5t-86.5 18.5t-84.5 37t-72.5 59.5t-50.5 87t-19 119v352q0 59 20 113t55.5 99.5t83.5 80.5t105 56l170 -72q41 17 85.5 36t84.5 35q58 -21 106.5 -56t83.5 -80t54.5 -99t19.5 -113v-439q80 -51 146 -73t116 -22
q64 0 95 29.5t33 77.5v774h146v-773z" />
    <glyph glyph-name="nonenthai" unicode="&#xb3;" horiz-adv-x="1615" 
d="M1477 1013v-1013h-103q-25 4 -37 63q-75 -40 -142 -58t-127 -18q-61 0 -111.5 18.5t-86.5 52t-56 80t-20 102.5v479q0 29 -18 57.5t-54 51t-89 36t-123 13.5q-51 0 -112.5 -10.5t-129.5 -31.5v-835h-146v940q112 43 209 63t179 20q93 0 172 -22t136.5 -62t89.5 -96
t32 -124v-479q0 -48 31 -77.5t97 -29.5q50 0 115.5 21t146.5 74v785h147z" />
    <glyph glyph-name="nonenthai" unicode="&#xe13;" horiz-adv-x="1615" 
d="M1477 1013v-1013h-103q-25 4 -37 63q-75 -40 -142 -58t-127 -18q-61 0 -111.5 18.5t-86.5 52t-56 80t-20 102.5v479q0 29 -18 57.5t-54 51t-89 36t-123 13.5q-51 0 -112.5 -10.5t-129.5 -31.5v-835h-146v940q112 43 209 63t179 20q93 0 172 -22t136.5 -62t89.5 -96
t32 -124v-479q0 -48 31 -77.5t97 -29.5q50 0 115.5 21t146.5 74v785h147z" />
    <glyph glyph-name="dodekthai" unicode="&#xb4;" horiz-adv-x="1093" 
d="M856 915q55 -50 87.5 -118t32.5 -147v-650h-145v650q0 46 -20 87t-54.5 72t-81.5 49.5t-100 18.5h-65q-54 0 -100.5 -18.5t-81 -49.5t-54 -72.5t-19.5 -86.5v-335q0 -56 23 -91.5t59 -55t79.5 -26.5t83.5 -7v-147q-36 1 -79 6t-86.5 18.5t-84 37t-72 59.5t-50.5 86.5
t-19 119.5v338q1 79 33 146.5t87 117t127.5 78t153.5 28.5h65q82 0 154 -28.5t127 -79.5z" />
    <glyph glyph-name="dodekthai" unicode="&#xe14;" horiz-adv-x="1093" 
d="M856 915q55 -50 87.5 -118t32.5 -147v-650h-145v650q0 46 -20 87t-54.5 72t-81.5 49.5t-100 18.5h-65q-54 0 -100.5 -18.5t-81 -49.5t-54 -72.5t-19.5 -86.5v-335q0 -56 23 -91.5t59 -55t79.5 -26.5t83.5 -7v-147q-36 1 -79 6t-86.5 18.5t-84 37t-72 59.5t-50.5 86.5
t-19 119.5v338q1 79 33 146.5t87 117t127.5 78t153.5 28.5h65q82 0 154 -28.5t127 -79.5z" />
    <glyph glyph-name="totaothai" unicode="&#xb5;" horiz-adv-x="1092" 
d="M856 932q55 -51 87.5 -119t32.5 -146v-667h-146v667q0 59 -30.5 108.5t-85.5 79.5q-42 -17 -87 -37t-85 -37l-171 74q-54 -29 -85 -80t-31 -108v-352q0 -55 22.5 -90t58 -55t79 -27.5t85.5 -7.5v-147q-35 1 -78 6t-86 18t-84 36t-73 59.5t-51 87.5t-19 120v352
q0 60 19 113.5t54 98.5t83 80t107 58l170 -73q42 17 86.5 36.5t85.5 36.5q85 -34 142 -85z" />
    <glyph glyph-name="totaothai" unicode="&#xe15;" horiz-adv-x="1092" 
d="M856 932q55 -51 87.5 -119t32.5 -146v-667h-146v667q0 59 -30.5 108.5t-85.5 79.5q-42 -17 -87 -37t-85 -37l-171 74q-54 -29 -85 -80t-31 -108v-352q0 -55 22.5 -90t58 -55t79 -27.5t85.5 -7.5v-147q-35 1 -78 6t-86 18t-84 36t-73 59.5t-51 87.5t-19 120v352
q0 60 19 113.5t54 98.5t83 80t107 58l170 -73q42 17 86.5 36.5t85.5 36.5q85 -34 142 -85z" />
    <glyph glyph-name="thothungthai" unicode="&#xb6;" horiz-adv-x="1044" 
d="M804 942q60 -40 93.5 -95.5t33.5 -127.5v-719h-146v719q0 29 -18 57t-53.5 50.5t-89 36.5t-123.5 14q-51 0 -112.5 -10.5t-129.5 -31.5v-520q0 -57 10.5 -92t31 -54.5t51.5 -26.5t73 -7v-146q-74 0 -132.5 18.5t-98.5 57.5t-61 101t-21 149v625q112 43 209.5 63t179.5 20
q94 0 170 -21.5t133 -59.5z" />
    <glyph glyph-name="thothungthai" unicode="&#xe16;" horiz-adv-x="1044" 
d="M804 942q60 -40 93.5 -95.5t33.5 -127.5v-719h-146v719q0 29 -18 57t-53.5 50.5t-89 36.5t-123.5 14q-51 0 -112.5 -10.5t-129.5 -31.5v-520q0 -57 10.5 -92t31 -54.5t51.5 -26.5t73 -7v-146q-74 0 -132.5 18.5t-98.5 57.5t-61 101t-21 149v625q112 43 209.5 63t179.5 20
q94 0 170 -21.5t133 -59.5z" />
    <glyph glyph-name="thothahanthai" unicode="&#xb7;" horiz-adv-x="1043" 
d="M113 0v1014h99q30 0 42 -80q100 48 189 70.5t167 22.5q69 0 128 -17.5t102 -50.5t67 -79.5t24 -104.5v-775h-147v775q0 43 -42.5 74.5t-131.5 31.5q-69 0 -157.5 -25.5t-193.5 -85.5v-770h-146z" />
    <glyph glyph-name="thothahanthai" unicode="&#x2219;" horiz-adv-x="1043" 
d="M113 0v1014h99q30 0 42 -80q100 48 189 70.5t167 22.5q69 0 128 -17.5t102 -50.5t67 -79.5t24 -104.5v-775h-147v775q0 43 -42.5 74.5t-131.5 31.5q-69 0 -157.5 -25.5t-193.5 -85.5v-770h-146z" />
    <glyph glyph-name="thothahanthai" unicode="&#xe17;" horiz-adv-x="1043" 
d="M113 0v1014h99q30 0 42 -80q100 48 189 70.5t167 22.5q69 0 128 -17.5t102 -50.5t67 -79.5t24 -104.5v-775h-147v775q0 43 -42.5 74.5t-131.5 31.5q-69 0 -157.5 -25.5t-193.5 -85.5v-770h-146z" />
    <glyph glyph-name="thothongthai" unicode="&#xb8;" horiz-adv-x="982" 
d="M547 611q27 -4 62 -9t70.5 -16t70 -29t61 -46.5t43 -69t16.5 -96.5l1 -7q-2 -75 -7.5 -129.5t-19 -92t-38.5 -60.5t-65.5 -36t-99 -17t-140.5 -4q-123 0 -199.5 11t-119 35t-57 62.5t-14.5 93.5q0 38 7 78.5t12 91.5h124v-157q2 -25 9.5 -39.5t35.5 -21.5t84.5 -9
t156.5 -2q132 0 162 15q8 5 15 52.5t7 131.5q0 33 -17 54.5t-43 35t-58.5 20.5t-63.5 12t-54 9t-55 7q-28 3 -63.5 7.5t-71.5 14.5t-70.5 27t-61.5 45t-43.5 67.5t-16.5 95.5q3 85 40 141t94 89.5t126 47t136 13.5q91 0 184 -21.5t170 -56.5l-59 -133q-30 13 -65.5 25
t-74 21t-78.5 14t-77 5q-53 0 -96.5 -10t-76.5 -29t-53 -47t-24 -64q1 -26 11.5 -41.5t28.5 -25t41.5 -14.5t49.5 -9q39 -6 77 -15.5t87 -14.5z" />
    <glyph glyph-name="thothongthai" unicode="&#xe18;" horiz-adv-x="982" 
d="M547 611q27 -4 62 -9t70.5 -16t70 -29t61 -46.5t43 -69t16.5 -96.5l1 -7q-2 -75 -7.5 -129.5t-19 -92t-38.5 -60.5t-65.5 -36t-99 -17t-140.5 -4q-123 0 -199.5 11t-119 35t-57 62.5t-14.5 93.5q0 38 7 78.5t12 91.5h124v-157q2 -25 9.5 -39.5t35.5 -21.5t84.5 -9
t156.5 -2q132 0 162 15q8 5 15 52.5t7 131.5q0 33 -17 54.5t-43 35t-58.5 20.5t-63.5 12t-54 9t-55 7q-28 3 -63.5 7.5t-71.5 14.5t-70.5 27t-61.5 45t-43.5 67.5t-16.5 95.5q3 85 40 141t94 89.5t126 47t136 13.5q91 0 184 -21.5t170 -56.5l-59 -133q-30 13 -65.5 25
t-74 21t-78.5 14t-77 5q-53 0 -96.5 -10t-76.5 -29t-53 -47t-24 -64q1 -26 11.5 -41.5t28.5 -25t41.5 -14.5t49.5 -9q39 -6 77 -15.5t87 -14.5z" />
    <glyph glyph-name="nonuthai" unicode="&#xb9;" horiz-adv-x="1044" 
d="M931 1014v-1014h-99q-29 0 -44 80q-98 -48 -187 -70t-167 -22q-69 0 -128 17.5t-102 50.5t-67 79.5t-24 103.5v775h147v-775q0 -42 42.5 -73.5t131.5 -31.5q69 0 157.5 25.5t193.5 84.5v770h146z" />
    <glyph glyph-name="nonuthai" unicode="&#xe19;" horiz-adv-x="1044" 
d="M931 1014v-1014h-99q-29 0 -44 80q-98 -48 -187 -70t-167 -22q-69 0 -128 17.5t-102 50.5t-67 79.5t-24 103.5v775h147v-775q0 -42 42.5 -73.5t131.5 -31.5q69 0 157.5 25.5t193.5 84.5v770h146z" />
    <glyph glyph-name="bobaimaithai" unicode="&#xba;" horiz-adv-x="1075" 
d="M960 1015v-695q0 -71 -31.5 -131.5t-85.5 -104.5t-125 -69t-149 -25h-64q-78 0 -149 25t-125 69t-85.5 104.5t-31.5 131.5v695h147v-695q0 -36 18.5 -69.5t51 -58.5t77 -40t97.5 -15h64q52 0 97 15t77.5 40t51 58.5t18.5 69.5v695h147z" />
    <glyph glyph-name="bobaimaithai" unicode="&#xe1a;" horiz-adv-x="1075" 
d="M960 1015v-695q0 -71 -31.5 -131.5t-85.5 -104.5t-125 -69t-149 -25h-64q-78 0 -149 25t-125 69t-85.5 104.5t-31.5 131.5v695h147v-695q0 -36 18.5 -69.5t51 -58.5t77 -40t97.5 -15h64q52 0 97 15t77.5 40t51 58.5t18.5 69.5v695h147z" />
    <glyph glyph-name="poplathai" unicode="&#xbb;" horiz-adv-x="1074" 
d="M959 1262v-942q0 -71 -32 -131.5t-85.5 -104.5t-124 -69t-148.5 -25h-65q-78 0 -148.5 24.5t-124.5 68.5t-85.5 104.5t-31.5 132.5v695h146v-695q0 -36 18.5 -69.5t51 -58.5t77 -40t97.5 -15h65q52 0 96.5 15t77 40.5t51 58.5t19.5 70v941h146z" />
    <glyph glyph-name="poplathai" unicode="&#xe1b;" horiz-adv-x="1074" 
d="M959 1262v-942q0 -71 -32 -131.5t-85.5 -104.5t-124 -69t-148.5 -25h-65q-78 0 -148.5 24.5t-124.5 68.5t-85.5 104.5t-31.5 132.5v695h146v-695q0 -36 18.5 -69.5t51 -58.5t77 -40t97.5 -15h65q52 0 96.5 15t77 40.5t51 58.5t19.5 70v941h146z" />
    <glyph glyph-name="phophungthai" unicode="&#xbc;" horiz-adv-x="1094" 
d="M980 1014v-666q0 -60 -20 -114t-55.5 -99.5t-83.5 -80.5t-104 -56l-171 73q-42 -17 -85.5 -36t-84.5 -36q-57 21 -105 55.5t-83 79.5t-55 99.5t-20 114.5v492q-1 39 15 70.5t45 54.5t67.5 36t82.5 14v-146q-23 0 -43.5 -9.5t-20.5 -19.5v-492q1 -60 30.5 -109t86.5 -80
q41 18 86 38t85 37l170 -74q52 31 84.5 80.5t32.5 107.5v666h146z" />
    <glyph glyph-name="phophungthai" unicode="&#xe1c;" horiz-adv-x="1094" 
d="M980 1014v-666q0 -60 -20 -114t-55.5 -99.5t-83.5 -80.5t-104 -56l-171 73q-42 -17 -85.5 -36t-84.5 -36q-57 21 -105 55.5t-83 79.5t-55 99.5t-20 114.5v492q-1 39 15 70.5t45 54.5t67.5 36t82.5 14v-146q-23 0 -43.5 -9.5t-20.5 -19.5v-492q1 -60 30.5 -109t86.5 -80
q41 18 86 38t85 37l170 -74q52 31 84.5 80.5t32.5 107.5v666h146z" />
    <glyph glyph-name="fofathai" unicode="&#xbd;" horiz-adv-x="1093" 
d="M979 1261v-913q0 -78 -32.5 -146.5t-86.5 -118.5q-58 -52 -144 -85l-171 73q-42 -17 -85.5 -36t-84.5 -36q-43 16 -78.5 37.5t-63.5 46.5q-54 51 -87.5 119t-33.5 146v492q0 39 16.5 70.5t41.5 54.5t63.5 36.5t88.5 13.5v-146q-17 0 -32.5 -3t-21.5 -8q-5 -5 -7.5 -9
t-2.5 -9v-492q1 -45 20 -85.5t53 -72.5q9 -8 20 -16t22 -14l87.5 37.5t85.5 36.5l172 -75q13 8 23 15.5t20 15.5q33 32 52.5 72.5t19.5 85.5v913h146z" />
    <glyph glyph-name="fofathai" unicode="&#xe1d;" horiz-adv-x="1093" 
d="M979 1261v-913q0 -78 -32.5 -146.5t-86.5 -118.5q-58 -52 -144 -85l-171 73q-42 -17 -85.5 -36t-84.5 -36q-43 16 -78.5 37.5t-63.5 46.5q-54 51 -87.5 119t-33.5 146v492q0 39 16.5 70.5t41.5 54.5t63.5 36.5t88.5 13.5v-146q-17 0 -32.5 -3t-21.5 -8q-5 -5 -7.5 -9
t-2.5 -9v-492q1 -45 20 -85.5t53 -72.5q9 -8 20 -16t22 -14l87.5 37.5t85.5 36.5l172 -75q13 8 23 15.5t20 15.5q33 32 52.5 72.5t19.5 85.5v913h146z" />
    <glyph glyph-name="phophanthai" unicode="&#xbe;" horiz-adv-x="1138" 
d="M1021 1014v-792q0 -50 -19.5 -92.5t-53.5 -74.5t-78.5 -50t-94.5 -18h-35q-37 0 -82.5 14.5t-76.5 38.5q-17 -13 -37.5 -23t-43 -16.5t-45.5 -10t-44 -3.5h-36q-54 0 -101 18t-82.5 49.5t-56 74.5t-20.5 93v792h146v-792q0 -17 9.5 -33t25 -28.5t36 -20t43.5 -7.5h36
q28 0 51.5 11t37.5 28q-6 24 -6 50v366h147v-366q0 -18 7.5 -34.5t21 -28.5t31.5 -19t39 -7h35q20 0 38 7t31.5 19t21.5 28.5t8 34.5v792h147z" />
    <glyph glyph-name="phophanthai" unicode="&#xe1e;" horiz-adv-x="1138" 
d="M1021 1014v-792q0 -50 -19.5 -92.5t-53.5 -74.5t-78.5 -50t-94.5 -18h-35q-37 0 -82.5 14.5t-76.5 38.5q-17 -13 -37.5 -23t-43 -16.5t-45.5 -10t-44 -3.5h-36q-54 0 -101 18t-82.5 49.5t-56 74.5t-20.5 93v792h146v-792q0 -17 9.5 -33t25 -28.5t36 -20t43.5 -7.5h36
q28 0 51.5 11t37.5 28q-6 24 -6 50v366h147v-366q0 -18 7.5 -34.5t21 -28.5t31.5 -19t39 -7h35q20 0 38 7t31.5 19t21.5 28.5t8 34.5v792h147z" />
    <glyph glyph-name="fofanthai" unicode="&#xbf;" horiz-adv-x="1138" 
d="M1021 1260v-1040q0 -49 -20.5 -92t-56 -74.5t-83 -50t-100.5 -18.5h-37q-99 0 -167 55q-31 -27 -76.5 -41t-85.5 -14h-35q-49 0 -93.5 18.5t-78 50t-53.5 74.5t-20 92v793h147v-793q0 -37 28 -62.5t70 -25.5h35q21 0 39 7t31.5 19t21.5 28t8 34v367h146v-367
q0 -27 -6 -49q16 -18 38.5 -28.5t50.5 -10.5h37q23 0 43.5 7.5t36.5 20t25 28t9 32.5v1040h146z" />
    <glyph glyph-name="fofanthai" unicode="&#xe1f;" horiz-adv-x="1138" 
d="M1021 1260v-1040q0 -49 -20.5 -92t-56 -74.5t-83 -50t-100.5 -18.5h-37q-99 0 -167 55q-31 -27 -76.5 -41t-85.5 -14h-35q-49 0 -93.5 18.5t-78 50t-53.5 74.5t-20 92v793h147v-793q0 -37 28 -62.5t70 -25.5h35q21 0 39 7t31.5 19t21.5 28t8 34v367h146v-367
q0 -27 -6 -49q16 -18 38.5 -28.5t50.5 -10.5h37q23 0 43.5 7.5t36.5 20t25 28t9 32.5v1040h146z" />
    <glyph glyph-name="phosamphaothai" unicode="&#xc0;" horiz-adv-x="1048" 
d="M812 953q60 -41 94 -97t34 -129v-727h-147v727q0 29 -18 58t-54 51.5t-90 36.5t-126 14q-54 0 -115.5 -9.5t-129.5 -31.5v-680q0 -38 -18 -70.5t-48 -56t-68.5 -37t-78.5 -13.5v148q12 0 23.5 2.5t20.5 6.5t15 9.5t6 10.5v785q113 45 211.5 65t181.5 20q95 0 172.5 -22
t134.5 -61z" />
    <glyph glyph-name="phosamphaothai" unicode="&#xe20;" horiz-adv-x="1048" 
d="M812 953q60 -41 94 -97t34 -129v-727h-147v727q0 29 -18 58t-54 51.5t-90 36.5t-126 14q-54 0 -115.5 -9.5t-129.5 -31.5v-680q0 -38 -18 -70.5t-48 -56t-68.5 -37t-78.5 -13.5v148q12 0 23.5 2.5t20.5 6.5t15 9.5t6 10.5v785q113 45 211.5 65t181.5 20q95 0 172.5 -22
t134.5 -61z" />
    <glyph glyph-name="momathai" unicode="&#xc1;" horiz-adv-x="1044" 
d="M260 246q105 -60 194.5 -85.5t159.5 -25.5q88 0 131 31t45 76v782h147v-782q0 -58 -24 -105t-67 -80t-102.5 -51t-129.5 -18q-78 0 -168.5 22t-190.5 71q-6 -39 -17 -60t-27 -21h-99v1024h148v-778z" />
    <glyph glyph-name="momathai" unicode="&#xe21;" horiz-adv-x="1044" 
d="M260 246q105 -60 194.5 -85.5t159.5 -25.5q88 0 131 31t45 76v782h147v-782q0 -58 -24 -105t-67 -80t-102.5 -51t-129.5 -18q-78 0 -168.5 22t-190.5 71q-6 -39 -17 -60t-27 -21h-99v1024h148v-778z" />
    <glyph glyph-name="yoyakthai" unicode="&#xc2;" horiz-adv-x="1073" 
d="M960 1025v-704q0 -72 -32 -133t-86 -105.5t-126 -69.5t-152 -25h-64q-80 0 -151.5 25t-126 69.5t-86.5 105.5t-32 133v37q0 28 4.5 56.5t13.5 54.5t22 47.5t31 36.5q-37 41 -54 89.5t-17 111.5v271h100q19 0 30.5 -28.5t18.5 -82.5v-160q0 -65 37 -100.5t100 -35.5v-148
q-25 0 -50 -4t-44.5 -16t-31.5 -34t-12 -58v-37q0 -36 19 -69.5t52 -59t78.5 -41t98.5 -15.5h64q54 0 99.5 15.5t79 41t52 59t18.5 69.5v704h147z" />
    <glyph glyph-name="yoyakthai" unicode="&#xe22;" horiz-adv-x="1073" 
d="M960 1025v-704q0 -72 -32 -133t-86 -105.5t-126 -69.5t-152 -25h-64q-80 0 -151.5 25t-126 69.5t-86.5 105.5t-32 133v37q0 28 4.5 56.5t13.5 54.5t22 47.5t31 36.5q-37 41 -54 89.5t-17 111.5v271h100q19 0 30.5 -28.5t18.5 -82.5v-160q0 -65 37 -100.5t100 -35.5v-148
q-25 0 -50 -4t-44.5 -16t-31.5 -34t-12 -58v-37q0 -36 19 -69.5t52 -59t78.5 -41t98.5 -15.5h64q54 0 99.5 15.5t79 41t52 59t18.5 69.5v704h147z" />
    <glyph glyph-name="roruathai" unicode="&#xc3;" horiz-adv-x="921" 
d="M835 281q-3 -86 -41 -142t-95.5 -89t-127 -46.5t-136.5 -13.5q-45 0 -92 5.5t-92.5 15.5t-89.5 24.5t-83 31.5l60 134q30 -14 66.5 -25.5t75 -20t78 -13.5t77.5 -5q53 0 97.5 10t77.5 29.5t53 47.5t25 64q0 43 -25 69t-62.5 41.5t-81 23.5t-81.5 15q-18 6 -52.5 11
t-76 15.5t-85.5 28.5t-80 49.5t-59 79t-23 117.5q4 88 42 144.5t96 90t127.5 46.5t135.5 14q91 -1 184.5 -22t172.5 -55l-58 -136q-31 14 -67.5 25.5t-75.5 20t-79 13.5t-77 5q-53 0 -99 -8.5t-79.5 -26.5t-53 -47t-20.5 -69q0 -47 28.5 -73t69 -41t85 -22t77.5 -16
q20 -4 55.5 -9.5t76 -16.5t82 -30.5t75 -51t55 -78.5t21.5 -113z" />
    <glyph glyph-name="roruathai" unicode="&#xe23;" horiz-adv-x="921" 
d="M835 281q-3 -86 -41 -142t-95.5 -89t-127 -46.5t-136.5 -13.5q-45 0 -92 5.5t-92.5 15.5t-89.5 24.5t-83 31.5l60 134q30 -14 66.5 -25.5t75 -20t78 -13.5t77.5 -5q53 0 97.5 10t77.5 29.5t53 47.5t25 64q0 43 -25 69t-62.5 41.5t-81 23.5t-81.5 15q-18 6 -52.5 11
t-76 15.5t-85.5 28.5t-80 49.5t-59 79t-23 117.5q4 88 42 144.5t96 90t127.5 46.5t135.5 14q91 -1 184.5 -22t172.5 -55l-58 -136q-31 14 -67.5 25.5t-75.5 20t-79 13.5t-77 5q-53 0 -99 -8.5t-79.5 -26.5t-53 -47t-20.5 -69q0 -47 28.5 -73t69 -41t85 -22t77.5 -16
q20 -4 55.5 -9.5t76 -16.5t82 -30.5t75 -51t55 -78.5t21.5 -113z" />
    <glyph glyph-name="ruthai" unicode="&#xc4;" horiz-adv-x="1048" 
d="M812 951q60 -40 94.5 -96t34.5 -130v-1158h-148v1158q0 30 -18.5 58.5t-54.5 51t-90 36.5t-124 14q-53 0 -115 -10.5t-131 -30.5v-528q0 -58 11 -93.5t32 -55t52.5 -26t72.5 -6.5v-148q-74 0 -132.5 17.5t-99 56.5t-62 101.5t-22.5 152.5v634q115 44 212.5 64t181.5 20
q95 0 171.5 -21.5t134.5 -60.5z" />
    <glyph glyph-name="ruthai" unicode="&#xe24;" horiz-adv-x="1048" 
d="M812 951q60 -40 94.5 -96t34.5 -130v-1158h-148v1158q0 30 -18.5 58.5t-54.5 51t-90 36.5t-124 14q-53 0 -115 -10.5t-131 -30.5v-528q0 -58 11 -93.5t32 -55t52.5 -26t72.5 -6.5v-148q-74 0 -132.5 17.5t-99 56.5t-62 101.5t-22.5 152.5v634q115 44 212.5 64t181.5 20
q95 0 171.5 -21.5t134.5 -60.5z" />
    <glyph glyph-name="lolingthai" unicode="&#xc5;" horiz-adv-x="1034" 
d="M798 953q60 -40 94.5 -96.5t34.5 -129.5v-727h-148v387q-101 58 -187 83t-157 25q-103 0 -157 -45.5t-54 -124.5q0 -53 6 -89t26.5 -58.5t60 -32t107.5 -9.5v-147q-104 0 -171.5 20.5t-106.5 62.5t-54.5 105t-15.5 148q0 73 26.5 131.5t74 100t113.5 64t145 22.5
q76 0 164 -22.5t180 -65.5v172q0 29 -18 57.5t-53.5 51t-89.5 36.5t-126 14q-68 0 -155 -18t-194 -59l-54 138q120 46 220 67t183 21q95 0 172 -22t134 -60z" />
    <glyph glyph-name="lolingthai" unicode="&#xe25;" horiz-adv-x="1034" 
d="M798 953q60 -40 94.5 -96.5t34.5 -129.5v-727h-148v387q-101 58 -187 83t-157 25q-103 0 -157 -45.5t-54 -124.5q0 -53 6 -89t26.5 -58.5t60 -32t107.5 -9.5v-147q-104 0 -171.5 20.5t-106.5 62.5t-54.5 105t-15.5 148q0 73 26.5 131.5t74 100t113.5 64t145 22.5
q76 0 164 -22.5t180 -65.5v172q0 29 -18 57.5t-53.5 51t-89.5 36.5t-126 14q-68 0 -155 -18t-194 -59l-54 138q120 46 220 67t183 21q95 0 172 -22t134 -60z" />
    <glyph glyph-name="luthai" unicode="&#xc6;" horiz-adv-x="1047" 
d="M811 951q60 -41 94 -97t34 -128v-1159h-148v1159q0 30 -18.5 58.5t-54.5 51t-90 36t-124 13.5q-54 0 -115.5 -9.5t-130.5 -31.5v-679q0 -39 -18 -71.5t-48 -56t-68 -37t-78 -13.5v148q11 0 22.5 2.5t21 7t15.5 9.5t6 11v784q113 44 211 64t182 20q94 0 171.5 -21.5
t135.5 -60.5z" />
    <glyph glyph-name="luthai" unicode="&#xe26;" horiz-adv-x="1047" 
d="M811 951q60 -41 94 -97t34 -128v-1159h-148v1159q0 30 -18.5 58.5t-54.5 51t-90 36t-124 13.5q-54 0 -115.5 -9.5t-130.5 -31.5v-679q0 -39 -18 -71.5t-48 -56t-68 -37t-78 -13.5v148q11 0 22.5 2.5t21 7t15.5 9.5t6 11v784q113 44 211 64t182 20q94 0 171.5 -21.5
t135.5 -60.5z" />
    <glyph glyph-name="wowaenthai" unicode="&#xc7;" horiz-adv-x="961" 
d="M732 951q60 -41 94.5 -97t34.5 -129v-362q0 -79 -32.5 -147.5t-87.5 -119.5t-129 -80.5t-156 -29.5h-67q-50 0 -98.5 12.5t-92.5 35.5t-82.5 55t-68.5 72l103 115q42 -66 105 -104t134 -38h67q54 0 100.5 18.5t81.5 49.5t55 72.5t20 88.5v362q0 29 -18 57.5t-54 51
t-89.5 36.5t-125.5 14q-67 0 -154.5 -18t-193.5 -60l-54 138q118 47 218.5 68t183.5 21q95 0 172 -22t134 -60z" />
    <glyph glyph-name="wowaenthai" unicode="&#xe27;" horiz-adv-x="961" 
d="M732 951q60 -41 94.5 -97t34.5 -129v-362q0 -79 -32.5 -147.5t-87.5 -119.5t-129 -80.5t-156 -29.5h-67q-50 0 -98.5 12.5t-92.5 35.5t-82.5 55t-68.5 72l103 115q42 -66 105 -104t134 -38h67q54 0 100.5 18.5t81.5 49.5t55 72.5t20 88.5v362q0 29 -18 57.5t-54 51
t-89.5 36.5t-125.5 14q-67 0 -154.5 -18t-193.5 -60l-54 138q118 47 218.5 68t183.5 21q95 0 172 -22t134 -60z" />
    <glyph glyph-name="sosalathai" unicode="&#xc8;" horiz-adv-x="1089" 
d="M989 1103q0 -62 -31.5 -113.5t-75.5 -86.5q45 -49 71.5 -112t26.5 -133v-658h-147v658q0 46 -20 87.5t-54.5 72.5t-82 49.5t-101.5 18.5h-66q-55 0 -102.5 -18t-82 -49.5t-54 -73t-19.5 -87.5v-130q22 5 44 5h227v-99q0 -18 -25 -30.5t-73 -18.5h-129q-26 0 -35 -5.5
t-9 -10.5v-369h-148v661q1 78 33.5 146.5t88 119t128.5 79.5t156 29h66q48 0 92.5 -10t85.5 -28q11 3 26.5 16t29 29.5t23 33t9.5 27.5h148v0z" />
    <glyph glyph-name="sosalathai" unicode="&#xe28;" horiz-adv-x="1089" 
d="M989 1103q0 -62 -31.5 -113.5t-75.5 -86.5q45 -49 71.5 -112t26.5 -133v-658h-147v658q0 46 -20 87.5t-54.5 72.5t-82 49.5t-101.5 18.5h-66q-55 0 -102.5 -18t-82 -49.5t-54 -73t-19.5 -87.5v-130q22 5 44 5h227v-99q0 -18 -25 -30.5t-73 -18.5h-129q-26 0 -35 -5.5
t-9 -10.5v-369h-148v661q1 78 33.5 146.5t88 119t128.5 79.5t156 29h66q48 0 92.5 -10t85.5 -28q11 3 26.5 16t29 29.5t23 33t9.5 27.5h148v0z" />
    <glyph glyph-name="sorusithai" unicode="&#xc9;" horiz-adv-x="1077" 
d="M1018 474h-49v-154q0 -72 -32.5 -133.5t-87 -105.5t-126 -69t-150.5 -25h-65q-78 0 -149.5 25t-126 69t-87 105.5t-32.5 133.5v705h148v-705q0 -36 19 -69.5t52 -59t78 -41t98 -15.5h65q54 0 99.5 15.5t78.5 41t51.5 59t18.5 69.5v154h-313v99q0 18 25 30.5t73 18.5h215
v403h148v-403h49v-148z" />
    <glyph glyph-name="sorusithai" unicode="&#xe29;" horiz-adv-x="1077" 
d="M1018 474h-49v-154q0 -72 -32.5 -133.5t-87 -105.5t-126 -69t-150.5 -25h-65q-78 0 -149.5 25t-126 69t-87 105.5t-32.5 133.5v705h148v-705q0 -36 19 -69.5t52 -59t78 -41t98 -15.5h65q54 0 99.5 15.5t78.5 41t51.5 59t18.5 69.5v154h-313v99q0 18 25 30.5t73 18.5h215
v403h148v-403h49v-148z" />
    <glyph glyph-name="sosuathai" unicode="&#xca;" horiz-adv-x="1034" 
d="M929 1006q-15 -29 -35.5 -52.5t-44.5 -43.5q40 -37 59 -80.5t19 -102.5v-727h-148v387q-101 59 -186.5 83.5t-156.5 24.5q-103 0 -157.5 -45.5t-54.5 -124.5q0 -53 6 -89t26.5 -58.5t60 -32t106.5 -9.5v-147q-102 0 -168.5 20t-106.5 61.5t-56 104.5t-16 150
q0 73 26.5 132t74.5 100t114 63.5t145 22.5q76 0 162.5 -21.5t180.5 -66.5v172q0 29 -18 58t-54 51.5t-89.5 36.5t-124.5 14q-69 0 -155.5 -18.5t-193.5 -59.5l-55 138q119 46 219.5 67t184.5 21q63 0 118 -11t102 -28q13 2 28 16t28 32t21.5 34.5t8.5 24.5h147
q0 -35 -4.5 -58t-12.5 -39z" />
    <glyph glyph-name="sosuathai" unicode="&#xe2a;" horiz-adv-x="1034" 
d="M929 1006q-15 -29 -35.5 -52.5t-44.5 -43.5q40 -37 59 -80.5t19 -102.5v-727h-148v387q-101 59 -186.5 83.5t-156.5 24.5q-103 0 -157.5 -45.5t-54.5 -124.5q0 -53 6 -89t26.5 -58.5t60 -32t106.5 -9.5v-147q-102 0 -168.5 20t-106.5 61.5t-56 104.5t-16 150
q0 73 26.5 132t74.5 100t114 63.5t145 22.5q76 0 162.5 -21.5t180.5 -66.5v172q0 29 -18 58t-54 51.5t-89.5 36.5t-124.5 14q-69 0 -155.5 -18.5t-193.5 -59.5l-55 138q119 46 219.5 67t184.5 21q63 0 118 -11t102 -28q13 2 28 16t28 32t21.5 34.5t8.5 24.5h147
q0 -35 -4.5 -58t-12.5 -39z" />
    <glyph glyph-name="hohipthai" unicode="&#xcb;" horiz-adv-x="1046" 
d="M939 0h-148v511q0 45 -43.5 76t-132.5 31q-70 0 -159.5 -25.5t-195.5 -85.5v-507h-148v1026h99q19 0 31 -29.5t18 -83.5v-239q77 38 143.5 58t131.5 29h4t3 0.5t6.5 1t14.5 1.5q57 8 99.5 24.5t71 47t43 76.5t14.5 112h148q0 -106 -26 -185.5t-83 -129.5q51 -32 80 -83.5
t29 -114.5v-511z" />
    <glyph glyph-name="hohipthai" unicode="&#xe2b;" horiz-adv-x="1046" 
d="M939 0h-148v511q0 45 -43.5 76t-132.5 31q-70 0 -159.5 -25.5t-195.5 -85.5v-507h-148v1026h99q19 0 31 -29.5t18 -83.5v-239q77 38 143.5 58t131.5 29h4t3 0.5t6.5 1t14.5 1.5q57 8 99.5 24.5t71 47t43 76.5t14.5 112h148q0 -106 -26 -185.5t-83 -129.5q51 -32 80 -83.5
t29 -114.5v-511z" />
    <glyph glyph-name="lochulathai" unicode="&#xcc;" horiz-adv-x="1138" 
d="M993 996q-12 -24 -26 -42t-31 -34q42 -31 67 -77t25 -116v-502q0 -50 -21 -93t-56.5 -75t-83.5 -50.5t-102 -18.5h-37q-101 0 -171 58q-34 -27 -73.5 -42.5t-87.5 -15.5h-35q-51 0 -96 18.5t-79 50.5t-53.5 75t-19.5 93v800h147v-800q0 -18 8 -34.5t22 -29t32 -19.5
t39 -7h35q21 0 39 7t31.5 19.5t21.5 29t8 34.5v369h148v-369q0 -14 -2 -26l-4 -24q14 -19 37.5 -29.5t52.5 -10.5h37q22 0 43 7.5t37 20.5t25.5 29t9.5 33v501q0 35 -20 57t-50 34.5t-65.5 17t-66.5 4.5v148q25 0 60 4.5t66.5 22t53.5 52t22 94.5v115h148v-115q0 -48 -9 -89
t-26 -74v-1z" />
    <glyph glyph-name="lochulathai" unicode="&#xe2c;" horiz-adv-x="1138" 
d="M993 996q-12 -24 -26 -42t-31 -34q42 -31 67 -77t25 -116v-502q0 -50 -21 -93t-56.5 -75t-83.5 -50.5t-102 -18.5h-37q-101 0 -171 58q-34 -27 -73.5 -42.5t-87.5 -15.5h-35q-51 0 -96 18.5t-79 50.5t-53.5 75t-19.5 93v800h147v-800q0 -18 8 -34.5t22 -29t32 -19.5
t39 -7h35q21 0 39 7t31.5 19.5t21.5 29t8 34.5v369h148v-369q0 -14 -2 -26l-4 -24q14 -19 37.5 -29.5t52.5 -10.5h37q22 0 43 7.5t37 20.5t25.5 29t9.5 33v501q0 35 -20 57t-50 34.5t-65.5 17t-66.5 4.5v148q25 0 60 4.5t66.5 22t53.5 52t22 94.5v115h148v-115q0 -48 -9 -89
t-26 -74v-1z" />
    <glyph glyph-name="oangthai" unicode="&#xcd;" horiz-adv-x="1027" 
d="M792 951q60 -41 94 -97t34 -129v-422q0 -69 -30.5 -127t-82 -100t-119.5 -65.5t-142 -23.5h-60q-75 0 -143 23.5t-119.5 65.5t-82 100t-30.5 127v240h146v-240q0 -33 17 -63.5t48 -54t72.5 -37.5t91.5 -14h60q49 0 90.5 14t71.5 37t47 54t17 64v422q0 30 -18 58.5t-54 51
t-89.5 36t-124.5 13.5q-69 0 -156 -18t-193 -60l-54 138q118 47 218 68t185 21q94 0 171.5 -22t134.5 -60z" />
    <glyph glyph-name="oangthai" unicode="&#xe2d;" horiz-adv-x="1027" 
d="M792 951q60 -41 94 -97t34 -129v-422q0 -69 -30.5 -127t-82 -100t-119.5 -65.5t-142 -23.5h-60q-75 0 -143 23.5t-119.5 65.5t-82 100t-30.5 127v240h146v-240q0 -33 17 -63.5t48 -54t72.5 -37.5t91.5 -14h60q49 0 90.5 14t71.5 37t47 54t17 64v422q0 30 -18 58.5t-54 51
t-89.5 36t-124.5 13.5q-69 0 -156 -18t-193 -60l-54 138q118 47 218 68t185 21q94 0 171.5 -22t134.5 -60z" />
    <glyph glyph-name="honokhukthai" unicode="&#xce;" horiz-adv-x="1027" 
d="M920 1100q0 -31 -7.5 -57.5t-20.5 -49t-29 -40.5t-34 -33q43 -38 67 -86.5t24 -108.5v-423q0 -68 -30.5 -125.5t-82 -100t-119 -66.5t-142.5 -24h-60q-75 0 -142.5 24t-119.5 66t-82.5 100t-30.5 126v241h147v-240q1 -33 18 -64t47 -54t71.5 -37t91.5 -14h60
q49 0 90.5 14t71.5 37.5t47 53.5t17 63v423q0 29 -17.5 57.5t-53.5 51t-89.5 36.5t-125.5 14q-69 0 -156 -18t-193 -60l-55 138q119 47 219 68t185 21q57 0 106.5 -8.5t92.5 -22.5q15 6 32 16t30.5 22.5t21 28t3.5 31.5h148v0z" />
    <glyph glyph-name="honokhukthai" unicode="&#xe2e;" horiz-adv-x="1027" 
d="M920 1100q0 -31 -7.5 -57.5t-20.5 -49t-29 -40.5t-34 -33q43 -38 67 -86.5t24 -108.5v-423q0 -68 -30.5 -125.5t-82 -100t-119 -66.5t-142.5 -24h-60q-75 0 -142.5 24t-119.5 66t-82.5 100t-30.5 126v241h147v-240q1 -33 18 -64t47 -54t71.5 -37t91.5 -14h60
q49 0 90.5 14t71.5 37.5t47 53.5t17 63v423q0 29 -17.5 57.5t-53.5 51t-89.5 36.5t-125.5 14q-69 0 -156 -18t-193 -60l-55 138q119 47 219 68t185 21q57 0 106.5 -8.5t92.5 -22.5q15 6 32 16t30.5 22.5t21 28t3.5 31.5h148v0z" />
    <glyph glyph-name="paiyannoithai" unicode="&#xcf;" horiz-adv-x="973" 
d="M863 1028v-905q-5 -54 -16.5 -83.5t-30.5 -29.5h-100v609q-94 -51 -180.5 -74t-155.5 -24q-68 0 -127.5 20t-97.5 56h1q-42 37 -62 86t-20 103q0 69 36.5 143t110.5 145l103 -109q-54 -52 -78 -98t-24 -81q0 -49 33 -80q17 -16 50 -26.5t75 -10.5q59 0 146 27.5t190 94.5
v124q5 54 16.5 83.5t30.5 29.5h100z" />
    <glyph glyph-name="paiyannoithai" unicode="&#xe2f;" horiz-adv-x="973" 
d="M863 1028v-905q-5 -54 -16.5 -83.5t-30.5 -29.5h-100v609q-94 -51 -180.5 -74t-155.5 -24q-68 0 -127.5 20t-97.5 56h1q-42 37 -62 86t-20 103q0 69 36.5 143t110.5 145l103 -109q-54 -52 -78 -98t-24 -81q0 -49 33 -80q17 -16 50 -26.5t75 -10.5q59 0 146 27.5t190 94.5
v124q5 54 16.5 83.5t30.5 29.5h100z" />
    <glyph glyph-name="saraathai" unicode="&#xd0;" horiz-adv-x="574" 
d="M497 654h-307q-46 7 -71.5 19t-25.5 30l-1 100h307q47 -6 72.5 -18.5t25.5 -30.5v-100zM497 222h-307q-46 5 -71.5 17.5t-25.5 30.5l-1 100h307q47 -8 72.5 -19.5t25.5 -29.5v-99z" />
    <glyph glyph-name="saraathai" unicode="&#xe30;" horiz-adv-x="574" 
d="M497 654h-307q-46 7 -71.5 19t-25.5 30l-1 100h307q47 -6 72.5 -18.5t25.5 -30.5v-100zM497 222h-307q-46 5 -71.5 17.5t-25.5 30.5l-1 100h307q47 -8 72.5 -19.5t25.5 -29.5v-99z" />
    <glyph glyph-name="maihanakatthai" unicode="&#xd1;" 
d="M-32 1307v-151h-579v278h108q34 0 39 -82v-47z" />
    <glyph glyph-name="maihanakatthai" unicode="&#xe31;" 
d="M-32 1307v-151h-579v278h108q34 0 39 -82v-47z" />
    <glyph glyph-name="saraaathai" unicode="&#xd2;" horiz-adv-x="836" 
d="M734 0h-148v724q0 31 -14 60.5t-42.5 52.5t-71 37t-100.5 14q-57 0 -132.5 -19t-172.5 -64l-61 135q108 50 199.5 73.5t166.5 23.5q84 0 153.5 -24.5t119 -66.5t76.5 -99t27 -123v-724z" />
    <glyph glyph-name="saraaathai" unicode="&#xe32;" horiz-adv-x="836" 
d="M734 0h-148v724q0 31 -14 60.5t-42.5 52.5t-71 37t-100.5 14q-57 0 -132.5 -19t-172.5 -64l-61 135q108 50 199.5 73.5t166.5 23.5q84 0 153.5 -24.5t119 -66.5t76.5 -99t27 -123v-724z" />
    <glyph glyph-name="saraamthai" unicode="&#xd3;" horiz-adv-x="847" 
d="M740 0h-148v724q0 31 -14 60.5t-42.5 52.5t-71 37t-100.5 14q-57 0 -132.5 -19t-172.5 -64l-61 135q108 50 199.5 73.5t166.5 23.5q84 0 153.5 -24.5t119 -66.5t76.5 -99t27 -123v-724zM-300 1441q36 0 68 -14t56.5 -38.5t38.5 -56.5t14 -68q0 -38 -14 -70t-38.5 -56
t-56.5 -37.5t-68 -13.5q-38 0 -70 13.5t-56 37.5t-37.5 56t-13.5 70q0 36 13.5 68t37.5 56.5t56 38.5t70 14zM-300 1202q25 0 42.5 18t17.5 44t-17.5 43t-42.5 17q-26 0 -43 -17t-17 -43t17 -44t43 -18z" />
    <glyph glyph-name="saraamthai" unicode="&#xe33;" horiz-adv-x="847" 
d="M740 0h-148v724q0 31 -14 60.5t-42.5 52.5t-71 37t-100.5 14q-57 0 -132.5 -19t-172.5 -64l-61 135q108 50 199.5 73.5t166.5 23.5q84 0 153.5 -24.5t119 -66.5t76.5 -99t27 -123v-724zM-300 1441q36 0 68 -14t56.5 -38.5t38.5 -56.5t14 -68q0 -38 -14 -70t-38.5 -56
t-56.5 -37.5t-68 -13.5q-38 0 -70 13.5t-56 37.5t-37.5 56t-13.5 70q0 36 13.5 68t37.5 56.5t56 38.5t70 14zM-300 1202q25 0 42.5 18t17.5 44t-17.5 43t-42.5 17q-26 0 -43 -17t-17 -43t17 -44t43 -18z" />
    <glyph glyph-name="saraithai" unicode="&#xd4;" 
d="M-211 1304q48 -7 74 -17.5t26 -31.5v-99h-806v99q0 21 26 31.5t74 17.5h606v0z" />
    <glyph glyph-name="saraithai" unicode="&#xe34;" 
d="M-211 1304q48 -7 74 -17.5t26 -31.5v-99h-806v99q0 21 26 31.5t74 17.5h606v0z" />
    <glyph glyph-name="saraiithai" unicode="&#xd5;" 
d="M-111 1376v-220h-806v99q0 21 25.5 31.5t71.5 17.5h564q7 35 18 53.5t27 18.5h100z" />
    <glyph glyph-name="saraiithai" unicode="&#xe35;" 
d="M-111 1376v-220h-806v99q0 21 25.5 31.5t71.5 17.5h564q7 35 18 53.5t27 18.5h100z" />
    <glyph glyph-name="sarauethai" unicode="&#xd6;" 
d="M-207 1407q25 0 48 -10t40.5 -27t27.5 -40t10 -49t-10 -48.5t-27.5 -39.5t-40.5 -27t-48 -10h-709v99q0 21 26 31.5t73 17.5h485q8 45 42.5 74t82.5 29z" />
    <glyph glyph-name="sarauethai" unicode="&#xe36;" 
d="M-207 1407q25 0 48 -10t40.5 -27t27.5 -40t10 -49t-10 -48.5t-27.5 -39.5t-40.5 -27t-48 -10h-709v99q0 21 26 31.5t73 17.5h485q8 45 42.5 74t82.5 29z" />
    <glyph glyph-name="saraueethai" unicode="&#xd7;" 
d="M-112 1156h-799v98q0 20 25 30.5t72 17.5h327q6 35 17 53.5t26 18.5h99v-72h90q6 35 17 53.5t27 18.5h99v-218z" />
    <glyph glyph-name="saraueethai" unicode="&#xe37;" 
d="M-112 1156h-799v98q0 20 25 30.5t72 17.5h327q6 35 17 53.5t26 18.5h99v-72h90q6 35 17 53.5t27 18.5h99v-218z" />
    <glyph glyph-name="sarauthai" unicode="&#xd8;" 
d="M-279 -140v-312h-144v123q2 11 3.5 21.5t3.5 19.5h-57v148h194z" />
    <glyph glyph-name="sarauthai" unicode="&#xe38;" 
d="M-279 -140v-312h-144v123q2 11 3.5 21.5t3.5 19.5h-57v148h194z" />
    <glyph glyph-name="sarauuthai" unicode="&#xd9;" 
d="M-112 -135v-144q0 -43 -20.5 -76t-52 -56t-69.5 -35t-72 -12q-32 0 -68 10.5t-67 31.5t-52.5 51.5t-22.5 70.5q1 4 1 11h-50v148h185v-148q1 -7 10 -15.5t21 -15.5t24 -12t19 -5t20 5t25.5 12.5t21.5 16.5t9 18v144h138z" />
    <glyph glyph-name="sarauuthai" unicode="&#xe39;" 
d="M-112 -135v-144q0 -43 -20.5 -76t-52 -56t-69.5 -35t-72 -12q-32 0 -68 10.5t-67 31.5t-52.5 51.5t-22.5 70.5q1 4 1 11h-50v148h185v-148q1 -7 10 -15.5t21 -15.5t24 -12t19 -5t20 5t25.5 12.5t21.5 16.5t9 18v144h138z" />
    <glyph glyph-name="phinthuthai" unicode="&#xda;" 
d="M-223 -254q0 -24 -9.5 -45t-25 -36t-36.5 -24t-44 -9q-24 0 -44.5 9t-36 24t-24 36t-8.5 45t8.5 44.5t24 36t36 24.5t44.5 9q23 0 44 -9t36.5 -24.5t25 -36t9.5 -44.5z" />
    <glyph glyph-name="phinthuthai" unicode="&#xe3a;" 
d="M-223 -254q0 -24 -9.5 -45t-25 -36t-36.5 -24t-44 -9q-24 0 -44.5 9t-36 24t-24 36t-8.5 45t8.5 44.5t24 36t36 24.5t44.5 9q23 0 44 -9t36.5 -24.5t25 -36t9.5 -44.5z" />
    <glyph glyph-name="nptp3.001march2007p" unicode="&#xdb;" 
 />
    <glyph glyph-name="nptp3.001march2007p" unicode="&#xe3b;" 
 />
    <glyph glyph-name="nptp3.001march2007u" unicode="&#xdc;" 
 />
    <glyph glyph-name="nptp3.001march2007u" unicode="&#xe3c;" 
 />
    <glyph glyph-name="nptp3.001march2007c" unicode="&#xdd;" 
 />
    <glyph glyph-name="nptp3.001march2007c" unicode="&#xe3d;" 
 />
    <glyph glyph-name="bahtthai" unicode="&#xdf;" horiz-adv-x="1261" 
d="M662 1288v-136q37 -1 70.5 -2.5t62.5 -4.5q69 -9 117 -31.5t78 -60.5t44 -92.5t14 -127.5q0 -60 -13 -109t-45 -85q63 -39 85.5 -108t22.5 -166q0 -124 -28 -196t-83 -109.5t-136.5 -48t-188.5 -11.5v-120h-147v120q-88 0 -185 0.5t-181 0.5v1151h366v136h147zM951 366
q0 66 -13.5 102t-48.5 53t-95.5 20.5t-155.5 3.5h-342v-397q127 2 251 3.5t250 2.5q40 4 69.5 14t48 32.5t27.5 61.5t9 102v2zM296 693q94 0 186.5 -0.5t186.5 -0.5q77 0 121.5 8t70.5 22q9 5 16.5 13t12.5 21t7.5 32t2.5 46q0 60 -12 94.5t-45.5 52t-93 21.5t-154.5 4h-299
v-313z" />
    <glyph glyph-name="bahtthai" unicode="&#xe3f;" horiz-adv-x="1261" 
d="M662 1288v-136q37 -1 70.5 -2.5t62.5 -4.5q69 -9 117 -31.5t78 -60.5t44 -92.5t14 -127.5q0 -60 -13 -109t-45 -85q63 -39 85.5 -108t22.5 -166q0 -124 -28 -196t-83 -109.5t-136.5 -48t-188.5 -11.5v-120h-147v120q-88 0 -185 0.5t-181 0.5v1151h366v136h147zM951 366
q0 66 -13.5 102t-48.5 53t-95.5 20.5t-155.5 3.5h-342v-397q127 2 251 3.5t250 2.5q40 4 69.5 14t48 32.5t27.5 61.5t9 102v2zM296 693q94 0 186.5 -0.5t186.5 -0.5q77 0 121.5 8t70.5 22q9 5 16.5 13t12.5 21t7.5 32t2.5 46q0 60 -12 94.5t-45.5 52t-93 21.5t-154.5 4h-299
v-313z" />
    <glyph glyph-name="saraethai" unicode="&#xe0;" horiz-adv-x="377" 
d="M124 1015h149v-1015h-149v1015z" />
    <glyph glyph-name="saraethai" unicode="&#xe40;" horiz-adv-x="377" 
d="M124 1015h149v-1015h-149v1015z" />
    <glyph glyph-name="saraaethai" unicode="&#xe1;" horiz-adv-x="702" 
d="M121 1015h148v-1015h-148v1015zM450 1015h149v-1015h-149v1015z" />
    <glyph glyph-name="saraaethai" unicode="&#xe41;" horiz-adv-x="702" 
d="M121 1015h148v-1015h-148v1015zM450 1015h149v-1015h-149v1015z" />
    <glyph glyph-name="saraothai" unicode="&#xe2;" horiz-adv-x="417" 
d="M486 1374h-244q17 -24 29.5 -52t20.5 -58t12 -60t4 -57v-1146h-149l-1 1162q0 32 -8 62.5t-26 58.5t-47.5 53.5t-72.5 46.5v139h482v-149z" />
    <glyph glyph-name="saraothai" unicode="&#xe42;" horiz-adv-x="417" 
d="M486 1374h-244q17 -24 29.5 -52t20.5 -58t12 -60t4 -57v-1146h-149l-1 1162q0 32 -8 62.5t-26 58.5t-47.5 53.5t-72.5 46.5v139h482v-149z" />
    <glyph glyph-name="saraaimaimuanthai" unicode="&#xe3;" horiz-adv-x="509" 
d="M439 1465q33 -31 52.5 -73.5t19.5 -92.5v-98l-116 -222v-979h-148v996l114 226v77q0 34 -26 58.5t-66 24.5h-34q-20 0 -36.5 -9t-29 -24t-19.5 -35.5t-7 -43.5h-150q0 55 19.5 103t52.5 83t77 55t93 20h34q50 0 93 -17t77 -49z" />
    <glyph glyph-name="saraaimaimuanthai" unicode="&#xe43;" horiz-adv-x="509" 
d="M439 1465q33 -31 52.5 -73.5t19.5 -92.5v-98l-116 -222v-979h-148v996l114 226v77q0 34 -26 58.5t-66 24.5h-34q-20 0 -36.5 -9t-29 -24t-19.5 -35.5t-7 -43.5h-150q0 55 19.5 103t52.5 83t77 55t93 20h34q50 0 93 -17t77 -49z" />
    <glyph glyph-name="saraaimaimalaithai" unicode="&#xe4;" horiz-adv-x="470" 
d="M462 1482q0 -11 -2.5 -33.5t-10.5 -53.5l-92 -410v-985h-150v992l62 268q-20 -3 -39 -3h-33q-50 0 -94 20t-77 55.5t-52.5 83t-19.5 102.5h150q0 -22 7 -42t19.5 -35.5t29.5 -24.5t37 -9h33q28 0 53 12t28 33l15 66h136v-36z" />
    <glyph glyph-name="saraaimaimalaithai" unicode="&#xe44;" horiz-adv-x="470" 
d="M462 1482q0 -11 -2.5 -33.5t-10.5 -53.5l-92 -410v-985h-150v992l62 268q-20 -3 -39 -3h-33q-50 0 -94 20t-77 55.5t-52.5 83t-19.5 102.5h150q0 -22 7 -42t19.5 -35.5t29.5 -24.5t37 -9h33q28 0 53 12t28 33l15 66h136v-36z" />
    <glyph glyph-name="lakkhangyaothai" unicode="&#xe5;" horiz-adv-x="864" 
d="M757 -428h-146v1141q-1 31 -15 60t-42 52t-70.5 37t-99.5 14q-56 0 -130.5 -19t-169.5 -64l-62 134q108 51 198 73.5t164 22.5q85 0 154 -24.5t117.5 -67t75 -98.5t26.5 -119v-1142z" />
    <glyph glyph-name="lakkhangyaothai" unicode="&#xe45;" horiz-adv-x="864" 
d="M757 -428h-146v1141q-1 31 -15 60t-42 52t-70.5 37t-99.5 14q-56 0 -130.5 -19t-169.5 -64l-62 134q108 51 198 73.5t164 22.5q85 0 154 -24.5t117.5 -67t75 -98.5t26.5 -119v-1142z" />
    <glyph glyph-name="maiyamokthai" unicode="&#xe6;" horiz-adv-x="1102" 
d="M789 932q55 -51 87.5 -119t32.5 -147v-1094h-146v1094q0 58 -31.5 107t-84.5 81q-33 -17 -71.5 -37t-69.5 -36l-141 74q-52 -33 -83.5 -82.5t-31.5 -106.5v-184h-100q-17 0 -29 25t-18 72v87q0 60 20 114.5t55.5 100t84 81t105.5 56.5l138 -72q34 17 70 35.5t68 35.5
q87 -31 145 -85z" />
    <glyph glyph-name="maiyamokthai" unicode="&#xe46;" horiz-adv-x="1102" 
d="M789 932q55 -51 87.5 -119t32.5 -147v-1094h-146v1094q0 58 -31.5 107t-84.5 81q-33 -17 -71.5 -37t-69.5 -36l-141 74q-52 -33 -83.5 -82.5t-31.5 -106.5v-184h-100q-17 0 -29 25t-18 72v87q0 60 20 114.5t55.5 100t84 81t105.5 56.5l138 -72q34 17 70 35.5t68 35.5
q87 -31 145 -85z" />
    <glyph glyph-name="maitaikhuthai" unicode="&#xe7;" 
d="M-524 1381q-4 -4 -6 -9t-3 -14v-78q1 -17 12.5 -23.5t30.5 -6.5q9 0 15 1t10 3q1 11 1.5 19t0.5 13h147v-37q10 -4 22 -4q18 0 32.5 15.5t16.5 50.5h145q0 -53 -17.5 -92.5t-45 -66t-62.5 -40t-69 -13.5q-24 0 -51 6t-49 20q-22 -11 -46.5 -16t-49.5 -5q-33 0 -67 10.5
t-61 32t-44 54.5t-17 78v82q0 42 16 74.5t41.5 54t57.5 33t65 12.5h456v-147h-455q-16 0 -26 -7z" />
    <glyph glyph-name="maitaikhuthai" unicode="&#xe47;" 
d="M-524 1381q-4 -4 -6 -9t-3 -14v-78q1 -17 12.5 -23.5t30.5 -6.5q9 0 15 1t10 3q1 11 1.5 19t0.5 13h147v-37q10 -4 22 -4q18 0 32.5 15.5t16.5 50.5h145q0 -53 -17.5 -92.5t-45 -66t-62.5 -40t-69 -13.5q-24 0 -51 6t-49 20q-22 -11 -46.5 -16t-49.5 -5q-33 0 -67 10.5
t-61 32t-44 54.5t-17 78v82q0 42 16 74.5t41.5 54t57.5 33t65 12.5h456v-147h-455q-16 0 -26 -7z" />
    <glyph glyph-name="maiekthai" unicode="&#xe8;" 
d="M-108 1496h-147v331h147v-331z" />
    <glyph glyph-name="maiekthai" unicode="&#xe48;" 
d="M-108 1496h-147v331h147v-331z" />
    <glyph glyph-name="maithothai" unicode="&#xe9;" 
d="M-34 1646v-146h-580v108q1 6 1.5 11.5t1.5 10.5h-50v146h192v-130h435z" />
    <glyph glyph-name="maithothai" unicode="&#xe49;" 
d="M-34 1646v-146h-580v108q1 6 1.5 11.5t1.5 10.5h-50v146h192v-130h435z" />
    <glyph glyph-name="maitrithai" unicode="&#xea;" 
d="M-47 1689q0 -74 -46.5 -132t-131.5 -89h-69q-19 0 -30 24t-16 68v23q0 24 -9.5 44t-31.5 34q-23 -10 -50 -21t-49 -21l-97 42q-42 -32 -42 -78v-115h-94q-15 0 -27.5 25t-17.5 70v20q0 38 14.5 75t38.5 68t55.5 53t66.5 31l102 -39q23 10 48.5 21t48.5 21
q17 -5 21.5 -6.5t5.5 -2.5q57 -24 97 -69t53 -103q25 24 25 57v119h135v-119z" />
    <glyph glyph-name="maitrithai" unicode="&#xe4a;" 
d="M-47 1689q0 -74 -46.5 -132t-131.5 -89h-69q-19 0 -30 24t-16 68v23q0 24 -9.5 44t-31.5 34q-23 -10 -50 -21t-49 -21l-97 42q-42 -32 -42 -78v-115h-94q-15 0 -27.5 25t-17.5 70v20q0 38 14.5 75t38.5 68t55.5 53t66.5 31l102 -39q23 10 48.5 21t48.5 21
q17 -5 21.5 -6.5t5.5 -2.5q57 -24 97 -69t53 -103q25 24 25 57v119h135v-119z" />
    <glyph glyph-name="maichattawathai" unicode="&#xeb;" 
d="M-101 1598h-102v-102h-147v102h-102v147h102v101h109q14 0 24.5 -21.5t13.5 -59.5v-20h102v-147z" />
    <glyph glyph-name="maichattawathai" unicode="&#xe4b;" 
d="M-101 1598h-102v-102h-147v102h-102v147h102v101h109q14 0 24.5 -21.5t13.5 -59.5v-20h102v-147z" />
    <glyph glyph-name="thanthakhatthai" unicode="&#xec;" 
d="M-420 1519q-3 -38 -11 -59t-28 -21h-107v216l542 45l12 -147z" />
    <glyph glyph-name="thanthakhatthai" unicode="&#xe4c;" 
d="M-420 1519q-3 -38 -11 -59t-28 -21h-107v216l542 45l12 -147z" />
    <glyph glyph-name="nikhahitthai" unicode="&#xed;" 
d="M-326 1447q36 0 68 -14t56.5 -38.5t38.5 -56.5t14 -68q0 -38 -14 -70t-38.5 -56t-56.5 -37.5t-68 -13.5q-38 0 -70 13.5t-56 37.5t-37.5 56t-13.5 70q0 36 13.5 68t37.5 56.5t56 38.5t70 14zM-326 1208q25 0 42.5 18t17.5 44t-17.5 43t-42.5 17q-26 0 -43 -17t-17 -43
t17 -44t43 -18z" />
    <glyph glyph-name="nikhahitthai" unicode="&#xe4d;" 
d="M-326 1447q36 0 68 -14t56.5 -38.5t38.5 -56.5t14 -68q0 -38 -14 -70t-38.5 -56t-56.5 -37.5t-68 -13.5q-38 0 -70 13.5t-56 37.5t-37.5 56t-13.5 70q0 36 13.5 68t37.5 56.5t56 38.5t70 14zM-326 1208q25 0 42.5 18t17.5 44t-17.5 43t-42.5 17q-26 0 -43 -17t-17 -43
t17 -44t43 -18z" />
    <glyph glyph-name="yamakkanthai" unicode="&#xee;" 
d="M-541 1270q0 42 21.5 77.5t67.5 64.5q-13 22 -13 50q0 40 24.5 75t63.5 61t88.5 41t100.5 15q47 0 88 -10.5t94 -29.5v-129q-35 9 -59.5 17t-44 14t-37.5 9.5t-41 3.5t-49.5 -5.5t-49.5 -15t-38 -21.5t-15 -25q2 0 15.5 -3.5t38.5 -9.5l46 -15v-106h-49q-5 0 -18 1t-18 1
q-14 0 -30 -6.5t-29.5 -15.5t-22.5 -19.5t-9 -18.5q0 -18 19 -30t50 -12q22 0 38 5t28.5 15t22 24.5t20.5 33.5h128l-38 -96q-56 -107 -199 -107q-43 0 -78.5 13t-61 35.5t-40 53t-14.5 65.5z" />
    <glyph glyph-name="yamakkanthai" unicode="&#xe4e;" 
d="M-541 1270q0 42 21.5 77.5t67.5 64.5q-13 22 -13 50q0 40 24.5 75t63.5 61t88.5 41t100.5 15q47 0 88 -10.5t94 -29.5v-129q-35 9 -59.5 17t-44 14t-37.5 9.5t-41 3.5t-49.5 -5.5t-49.5 -15t-38 -21.5t-15 -25q2 0 15.5 -3.5t38.5 -9.5l46 -15v-106h-49q-5 0 -18 1t-18 1
q-14 0 -30 -6.5t-29.5 -15.5t-22.5 -19.5t-9 -18.5q0 -18 19 -30t50 -12q22 0 38 5t28.5 15t22 24.5t20.5 33.5h128l-38 -96q-56 -107 -199 -107q-43 0 -78.5 13t-61 35.5t-40 53t-14.5 65.5z" />
    <glyph glyph-name="fongmanthai" unicode="&#xef;" horiz-adv-x="862" 
d="M418 243q-61 0 -114 23.5t-92.5 63t-62.5 93t-23 113.5q0 61 23.5 114.5t63 93t92.5 62t113 22.5q59 0 112 -22.5t93.5 -61.5t64 -92.5t23.5 -115.5q0 -61 -23 -114.5t-62.5 -93t-93 -62.5t-114.5 -23z" />
    <glyph glyph-name="fongmanthai" unicode="&#xe4f;" horiz-adv-x="862" 
d="M418 243q-61 0 -114 23.5t-92.5 63t-62.5 93t-23 113.5q0 61 23.5 114.5t63 93t92.5 62t113 22.5q59 0 112 -22.5t93.5 -61.5t64 -92.5t23.5 -115.5q0 -61 -23 -114.5t-62.5 -93t-93 -62.5t-114.5 -23z" />
    <glyph glyph-name="zerothai" unicode="&#xf0;" horiz-adv-x="1103" 
d="M850 829q55 -38 89.5 -94.5t34.5 -125.5v-296q0 -66 -32.5 -121t-86.5 -94.5t-125 -61.5t-148 -22h-63q-77 0 -148 21.5t-125.5 61t-87 94.5t-32.5 122v296q0 67 32.5 122t87 94.5t125.5 61t148 21.5h63q78 0 146 -20.5t122 -58.5zM828 609q0 28 -18 55.5t-51 49
t-78 34.5t-99 13h-63q-54 0 -99 -13t-78 -34t-51 -48.5t-18 -56.5v-296q0 -29 18 -56.5t51 -49t78 -34.5t99 -13h63q54 0 99 13t77.5 35t51 49t18.5 56v296z" />
    <glyph glyph-name="zerothai" unicode="&#xe50;" horiz-adv-x="1103" 
d="M850 829q55 -38 89.5 -94.5t34.5 -125.5v-296q0 -66 -32.5 -121t-86.5 -94.5t-125 -61.5t-148 -22h-63q-77 0 -148 21.5t-125.5 61t-87 94.5t-32.5 122v296q0 67 32.5 122t87 94.5t125.5 61t148 21.5h63q78 0 146 -20.5t122 -58.5zM828 609q0 28 -18 55.5t-51 49
t-78 34.5t-99 13h-63q-54 0 -99 -13t-78 -34t-51 -48.5t-18 -56.5v-296q0 -29 18 -56.5t51 -49t78 -34.5t99 -13h63q54 0 99 13t77.5 35t51 49t18.5 56v296z" />
    <glyph glyph-name="onethai" unicode="&#xf1;" horiz-adv-x="1108" 
d="M854 833q56 -38 90.5 -95t34.5 -125v-297q0 -66 -33.5 -121t-92.5 -95.5t-138.5 -63t-170.5 -22.5q-85 0 -183.5 23t-210.5 76l62 132q98 -45 180.5 -65t151.5 -20q70 0 124 14.5t90.5 37t55.5 50t19 54.5v297q0 28 -18.5 55.5t-51 49t-77.5 34.5t-99 13h-64
q-54 0 -99 -13t-77.5 -34.5t-51 -49t-18.5 -55.5v-75h72v-99q0 -17 -25 -29.5t-73 -17.5h-120v221q0 66 32.5 121t86.5 94.5t125 61.5t148 22h64q78 0 146 -21t121 -58z" />
    <glyph glyph-name="onethai" unicode="&#xe51;" horiz-adv-x="1108" 
d="M854 833q56 -38 90.5 -95t34.5 -125v-297q0 -66 -33.5 -121t-92.5 -95.5t-138.5 -63t-170.5 -22.5q-85 0 -183.5 23t-210.5 76l62 132q98 -45 180.5 -65t151.5 -20q70 0 124 14.5t90.5 37t55.5 50t19 54.5v297q0 28 -18.5 55.5t-51 49t-77.5 34.5t-99 13h-64
q-54 0 -99 -13t-77.5 -34.5t-51 -49t-18.5 -55.5v-75h72v-99q0 -17 -25 -29.5t-73 -17.5h-120v221q0 66 32.5 121t86.5 94.5t125 61.5t148 22h64q78 0 146 -21t121 -58z" />
    <glyph glyph-name="twothai" unicode="&#xf2;" horiz-adv-x="1278" 
d="M1053 793q39 -36 62.5 -85t23.5 -106v-257q0 -72 -31.5 -132.5t-85.5 -104.5t-125 -69t-150 -25h-223q-79 0 -150 25t-125 69t-85.5 104.5t-31.5 132.5v697h99q21 0 31 -29.5t17 -82.5v-585q0 -36 18.5 -69.5t51 -59t77.5 -41t98 -15.5h223q53 0 98 15.5t77.5 41t51 59
t18.5 69.5q0 64 0.5 128t0.5 129q0 23 -11 44.5t-28 38.5q-2 2 -5 4t-11 6q-45 -11 -91.5 -23t-91.5 -23l-180 46q-24 -17 -38 -41t-14 -52v-124h-148v124q0 42 15.5 83t41.5 75.5t60.5 59t72.5 33.5l191 -45q45 11 93.5 23.5t93.5 23.5q43 -17 66.5 -31t42.5 -30z" />
    <glyph glyph-name="twothai" unicode="&#xe52;" horiz-adv-x="1278" 
d="M1053 793q39 -36 62.5 -85t23.5 -106v-257q0 -72 -31.5 -132.5t-85.5 -104.5t-125 -69t-150 -25h-223q-79 0 -150 25t-125 69t-85.5 104.5t-31.5 132.5v697h99q21 0 31 -29.5t17 -82.5v-585q0 -36 18.5 -69.5t51 -59t77.5 -41t98 -15.5h223q53 0 98 15.5t77.5 41t51 59
t18.5 69.5q0 64 0.5 128t0.5 129q0 23 -11 44.5t-28 38.5q-2 2 -5 4t-11 6q-45 -11 -91.5 -23t-91.5 -23l-180 46q-24 -17 -38 -41t-14 -52v-124h-148v124q0 42 15.5 83t41.5 75.5t60.5 59t72.5 33.5l191 -45q45 11 93.5 23.5t93.5 23.5q43 -17 66.5 -31t42.5 -30z" />
    <glyph glyph-name="threethai" unicode="&#xf3;" horiz-adv-x="1226" 
d="M959 777q63 -59 97.5 -135.5t34.5 -158.5v-455h-147v455q0 66 -35.5 124.5t-104.5 96.5q-47 -20 -98 -41t-97 -41l-196 83q-68 -38 -102.5 -96.5t-35.5 -125.5q0 -28 -0.5 -56t-0.5 -56q-1 -65 25 -106.5t67.5 -65.5t92 -33t98.5 -9v-146q-43 0 -91.5 6.5t-96 22
t-91 41.5t-76.5 66t-53.5 95.5t-20.5 128.5l-1 112q0 61 20.5 119.5t58.5 109.5t91.5 91.5t119.5 64.5l194 -81q46 20 95.5 41t94.5 40q48 -17 87.5 -40t70.5 -50v-1z" />
    <glyph glyph-name="threethai" unicode="&#xe53;" horiz-adv-x="1226" 
d="M959 777q63 -59 97.5 -135.5t34.5 -158.5v-455h-147v455q0 66 -35.5 124.5t-104.5 96.5q-47 -20 -98 -41t-97 -41l-196 83q-68 -38 -102.5 -96.5t-35.5 -125.5q0 -28 -0.5 -56t-0.5 -56q-1 -65 25 -106.5t67.5 -65.5t92 -33t98.5 -9v-146q-43 0 -91.5 6.5t-96 22
t-91 41.5t-76.5 66t-53.5 95.5t-20.5 128.5l-1 112q0 61 20.5 119.5t58.5 109.5t91.5 91.5t119.5 64.5l194 -81q46 20 95.5 41t94.5 40q48 -17 87.5 -40t70.5 -50v-1z" />
    <glyph glyph-name="fourthai" unicode="&#xf4;" horiz-adv-x="1098" 
d="M328 641q-32 -26 -49.5 -58.5t-17.5 -67.5v-170q0 -36 18.5 -69t51.5 -59t78 -41.5t98 -15.5l32 1q69 0 104 10t55 24q-11 38 -15.5 82t-4.5 106h147q0 -62 6.5 -103.5t27.5 -66.5t60 -35t104 -10v-148q-76 2 -136.5 12t-105.5 41q-42 -28 -99 -43.5t-143 -15.5h-32
q-80 0 -151 25t-124.5 69t-85 105t-31.5 132v170q0 70 31.5 131t85.5 105.5t125 70t150 25.5h168q53 0 98 15t77.5 40t51 58.5t18.5 69.5v100h147v-100q0 -71 -32 -131t-86 -104.5t-125 -69.5t-149 -25h-168q-54 0 -100.5 -16t-78.5 -43z" />
    <glyph glyph-name="fourthai" unicode="&#xe54;" horiz-adv-x="1098" 
d="M328 641q-32 -26 -49.5 -58.5t-17.5 -67.5v-170q0 -36 18.5 -69t51.5 -59t78 -41.5t98 -15.5l32 1q69 0 104 10t55 24q-11 38 -15.5 82t-4.5 106h147q0 -62 6.5 -103.5t27.5 -66.5t60 -35t104 -10v-148q-76 2 -136.5 12t-105.5 41q-42 -28 -99 -43.5t-143 -15.5h-32
q-80 0 -151 25t-124.5 69t-85 105t-31.5 132v170q0 70 31.5 131t85.5 105.5t125 70t150 25.5h168q53 0 98 15t77.5 40t51 58.5t18.5 69.5v100h147v-100q0 -71 -32 -131t-86 -104.5t-125 -69.5t-149 -25h-168q-54 0 -100.5 -16t-78.5 -43z" />
    <glyph glyph-name="fivethai" unicode="&#xf5;" horiz-adv-x="1098" 
d="M328 641q-32 -26 -49 -58t-17 -67v-171q0 -36 18.5 -69.5t51 -59t77.5 -40.5t98 -15h32q35 0 61 2.5t44.5 7t31.5 10.5t22 14q-11 36 -15 82t-4 106h146q0 -61 6 -102t27 -66t60 -36t105 -11v-146q-78 0 -139 10.5t-104 40.5q-41 -26 -98.5 -42.5t-142.5 -16.5h-32
q-78 0 -149 25t-125 69t-86 104.5t-32 132.5v171q0 64 26 119.5t70 98t103.5 70t126.5 37.5q-5 22 -5 43q0 36 13.5 68t37.5 56t56.5 38t69.5 14q36 0 68.5 -14t56.5 -38t38 -56t14 -68q0 -8 1 -9t1.5 -0.5t0 0t-2.5 -6.5q64 23 97 67t33 95v100h147v-100q0 -72 -32 -132.5
t-86 -104.5t-125 -68.5t-148 -24.5h-169q-54 0 -100 -16t-79 -43zM614 951q-26 0 -45.5 -19.5t-19.5 -45.5t19.5 -45t45.5 -19t45 19t19 45t-19 45.5t-45 19.5z" />
    <glyph glyph-name="fivethai" unicode="&#xe55;" horiz-adv-x="1098" 
d="M328 641q-32 -26 -49 -58t-17 -67v-171q0 -36 18.5 -69.5t51 -59t77.5 -40.5t98 -15h32q35 0 61 2.5t44.5 7t31.5 10.5t22 14q-11 36 -15 82t-4 106h146q0 -61 6 -102t27 -66t60 -36t105 -11v-146q-78 0 -139 10.5t-104 40.5q-41 -26 -98.5 -42.5t-142.5 -16.5h-32
q-78 0 -149 25t-125 69t-86 104.5t-32 132.5v171q0 64 26 119.5t70 98t103.5 70t126.5 37.5q-5 22 -5 43q0 36 13.5 68t37.5 56t56.5 38t69.5 14q36 0 68.5 -14t56.5 -38t38 -56t14 -68q0 -8 1 -9t1.5 -0.5t0 0t-2.5 -6.5q64 23 97 67t33 95v100h147v-100q0 -72 -32 -132.5
t-86 -104.5t-125 -68.5t-148 -24.5h-169q-54 0 -100 -16t-79 -43zM614 951q-26 0 -45.5 -19.5t-19.5 -45.5t19.5 -45t45.5 -19t45 19t19 45t-19 45.5t-45 19.5z" />
    <glyph glyph-name="sixthai" unicode="&#xf6;" horiz-adv-x="1092" 
d="M970 313q0 -67 -32.5 -122t-87 -94.5t-125.5 -61t-147 -21.5h-64q-77 0 -147.5 21.5t-125 61t-87 94.5t-32.5 122v124h146v-124q0 -29 18.5 -56.5t51 -48.5t77.5 -34t99 -13h64q54 0 99 13t77.5 34t50.5 48.5t18 56.5l-1 296q0 28 -19.5 56t-56.5 50.5t-91 36.5t-122 14
q-67 0 -151 -20t-180 -65l-163 343h159l76 -156q69 22 134 33.5t125 11.5q86 0 165 -21.5t139 -61.5t96 -96t36 -125z" />
    <glyph glyph-name="sixthai" unicode="&#xe56;" horiz-adv-x="1092" 
d="M970 313q0 -67 -32.5 -122t-87 -94.5t-125.5 -61t-147 -21.5h-64q-77 0 -147.5 21.5t-125 61t-87 94.5t-32.5 122v124h146v-124q0 -29 18.5 -56.5t51 -48.5t77.5 -34t99 -13h64q54 0 99 13t77.5 34t50.5 48.5t18 56.5l-1 296q0 28 -19.5 56t-56.5 50.5t-91 36.5t-122 14
q-67 0 -151 -20t-180 -65l-163 343h159l76 -156q69 22 134 33.5t125 11.5q86 0 165 -21.5t139 -61.5t96 -96t36 -125z" />
    <glyph glyph-name="seventhai" unicode="&#xf7;" horiz-adv-x="1466" 
d="M1321 1044v-705q-2 -106 -27 -168t-67.5 -94t-99.5 -41t-123 -9h-73v455q0 67 -36 126t-104 97q-47 -20 -97.5 -41.5t-96.5 -41.5l-196 83q-69 -38 -103.5 -96.5t-35.5 -126.5q0 -28 -0.5 -55.5t-0.5 -55.5q-1 -66 25.5 -107.5t68 -65t92 -32.5t97.5 -9v-147
q-39 0 -85.5 5.5t-93.5 20.5t-92 40.5t-80 65.5t-56 96.5t-22 132.5l-1 111q-1 62 19.5 121t58.5 109.5t91.5 90.5t119.5 66l194 -83q46 20 96.5 42t96.5 41q67 -26 120 -66.5t90.5 -91t57.5 -109t20 -120.5v-307q27 4 45.5 13t29.5 28.5t16 53.5t5 88v574q5 54 16.5 83
t31.5 29h99z" />
    <glyph glyph-name="seventhai" unicode="&#xe57;" horiz-adv-x="1466" 
d="M1321 1044v-705q-2 -106 -27 -168t-67.5 -94t-99.5 -41t-123 -9h-73v455q0 67 -36 126t-104 97q-47 -20 -97.5 -41.5t-96.5 -41.5l-196 83q-69 -38 -103.5 -96.5t-35.5 -126.5q0 -28 -0.5 -55.5t-0.5 -55.5q-1 -66 25.5 -107.5t68 -65t92 -32.5t97.5 -9v-147
q-39 0 -85.5 5.5t-93.5 20.5t-92 40.5t-80 65.5t-56 96.5t-22 132.5l-1 111q-1 62 19.5 121t58.5 109.5t91.5 90.5t119.5 66l194 -83q46 20 96.5 42t96.5 41q67 -26 120 -66.5t90.5 -91t57.5 -109t20 -120.5v-307q27 4 45.5 13t29.5 28.5t16 53.5t5 88v574q5 54 16.5 83
t31.5 29h99z" />
    <glyph glyph-name="eightthai" unicode="&#xf8;" horiz-adv-x="1155" 
d="M330 625q-32 -26 -49 -58t-17 -67v-250q0 -18 7.5 -34.5t21 -28.5t31.5 -19.5t39 -7.5h35q21 0 39 7.5t31.5 19.5t21.5 28.5t8 34.5v81h146v-81q0 -14 -1.5 -25.5t-4.5 -23.5q16 -20 37.5 -30.5t51.5 -10.5h37q22 0 42.5 7.5t36.5 20t25 28.5t9 34v192h147v-192
q0 -50 -21 -93.5t-56.5 -75t-82.5 -49.5t-100 -18h-37q-20 0 -43.5 3.5t-46.5 11t-44.5 17.5t-37.5 24q-33 -27 -71.5 -41.5t-85.5 -14.5h-35q-50 0 -94.5 18t-78 49.5t-53.5 74.5t-20 94v250q0 71 32 131.5t86.5 105t125.5 69.5t149 25h168q52 0 96.5 15t77.5 40.5t51.5 59
t19.5 70.5v98h146v-99q0 -72 -32 -132.5t-85.5 -104.5t-124.5 -69t-149 -25h-168q-54 0 -100.5 -16t-79.5 -43z" />
    <glyph glyph-name="eightthai" unicode="&#xe58;" horiz-adv-x="1155" 
d="M330 625q-32 -26 -49 -58t-17 -67v-250q0 -18 7.5 -34.5t21 -28.5t31.5 -19.5t39 -7.5h35q21 0 39 7.5t31.5 19.5t21.5 28.5t8 34.5v81h146v-81q0 -14 -1.5 -25.5t-4.5 -23.5q16 -20 37.5 -30.5t51.5 -10.5h37q22 0 42.5 7.5t36.5 20t25 28.5t9 34v192h147v-192
q0 -50 -21 -93.5t-56.5 -75t-82.5 -49.5t-100 -18h-37q-20 0 -43.5 3.5t-46.5 11t-44.5 17.5t-37.5 24q-33 -27 -71.5 -41.5t-85.5 -14.5h-35q-50 0 -94.5 18t-78 49.5t-53.5 74.5t-20 94v250q0 71 32 131.5t86.5 105t125.5 69.5t149 25h168q52 0 96.5 15t77.5 40.5t51.5 59
t19.5 70.5v98h146v-99q0 -72 -32 -132.5t-85.5 -104.5t-124.5 -69t-149 -25h-168q-54 0 -100.5 -16t-79.5 -43z" />
    <glyph glyph-name="ninethai" unicode="&#xf9;" horiz-adv-x="1079" 
d="M1064 1037q0 -57 -20 -106t-54.5 -88.5t-81 -69t-100.5 -46.5q41 -49 65.5 -117.5t24.5 -155.5q0 -76 7 -130t21.5 -89.5t36.5 -53.5t52 -22l-20 -146q-78 11 -125.5 50t-74 98t-35 133t-8.5 156q0 68 -19 115t-48 77t-64.5 45t-69.5 18h-47q-53 0 -98 -15t-78 -40
t-51.5 -58.5t-18.5 -69.5l1 -145q0 -64 15 -103.5t41.5 -62t62.5 -30.5t80 -8h183v-145h-229q-59 4 -113 23t-95 59t-66 105t-26 162l-1 145q0 71 32 131.5t86.5 104.5t125.5 69t149 25h167q53 0 98 15.5t78 41t51.5 59t18.5 69.5v99h147v-99v0z" />
    <glyph glyph-name="ninethai" unicode="&#xe59;" horiz-adv-x="1079" 
d="M1064 1037q0 -57 -20 -106t-54.5 -88.5t-81 -69t-100.5 -46.5q41 -49 65.5 -117.5t24.5 -155.5q0 -76 7 -130t21.5 -89.5t36.5 -53.5t52 -22l-20 -146q-78 11 -125.5 50t-74 98t-35 133t-8.5 156q0 68 -19 115t-48 77t-64.5 45t-69.5 18h-47q-53 0 -98 -15t-78 -40
t-51.5 -58.5t-18.5 -69.5l1 -145q0 -64 15 -103.5t41.5 -62t62.5 -30.5t80 -8h183v-145h-229q-59 4 -113 23t-95 59t-66 105t-26 162l-1 145q0 71 32 131.5t86.5 104.5t125.5 69t149 25h167q53 0 98 15.5t78 41t51.5 59t18.5 69.5v99h147v-99v0z" />
    <glyph glyph-name="angkhankhuthai" unicode="&#xfa;" horiz-adv-x="1235" 
d="M818 1018v-897q-6 -53 -17 -82.5t-31 -29.5h-98v604q-93 -51 -173.5 -73.5t-149.5 -23.5q-67 0 -121 19.5t-92 55.5h1q-41 36 -61 85t-20 103q0 68 36.5 141t109.5 143l101 -107q-54 -52 -77 -97t-23 -80q0 -50 33 -80q17 -16 44.5 -26t68.5 -10q58 0 139 27t184 94v122
q5 54 16 83t31 29h99zM1081 1018v-897q-6 -53 -17 -82.5t-31 -29.5h-99v897q6 54 17 83t31 29h99z" />
    <glyph glyph-name="angkhankhuthai" unicode="&#xe5a;" horiz-adv-x="1235" 
d="M818 1018v-897q-6 -53 -17 -82.5t-31 -29.5h-98v604q-93 -51 -173.5 -73.5t-149.5 -23.5q-67 0 -121 19.5t-92 55.5h1q-41 36 -61 85t-20 103q0 68 36.5 141t109.5 143l101 -107q-54 -52 -77 -97t-23 -80q0 -50 33 -80q17 -16 44.5 -26t68.5 -10q58 0 139 27t184 94v122
q5 54 16 83t31 29h99zM1081 1018v-897q-6 -53 -17 -82.5t-31 -29.5h-99v897q6 54 17 83t31 29h99z" />
    <glyph glyph-name="khomutthai" unicode="&#xfb;" horiz-adv-x="2147" 
d="M632 482q-51 -47 -120 -47q-30 0 -56.5 10t-45 27.5t-29 40.5t-10.5 49q0 24 10 47t28.5 40t45 27.5t57.5 10.5q48 0 80 -23q0 69 -43 107.5t-107 38.5q-45 0 -84 -18.5t-67 -52.5t-44 -81t-16 -105q0 -73 20.5 -132t56.5 -100t86.5 -63t108.5 -22q69 0 128 31t103 87
t69.5 134t25.5 173v26l-3 39l46 44l153 -252l109 238l106 -210l96 172l107 -170l95 129l96 -109l31 46h350l-74 -68h-218l-92 -88l-87 86l-106 -143l-96 147l-114 -188l-89 190l-99 -217l-132 211q-15 -88 -52.5 -158t-91.5 -119.5t-121 -75.5t-140 -26q-75 0 -140 26.5
t-113.5 74.5t-78.5 114t-34 146q0 79 22 143.5t61 111t95 71.5t127 25q59 0 105 -17.5t78 -49t49.5 -75t17.5 -95.5q0 -98 -60 -158zM448 562q0 -28 17.5 -45.5t43.5 -17.5q30 0 47.5 17.5t17.5 45.5q0 27 -17.5 45t-47.5 18q-26 0 -43.5 -18t-17.5 -45z" />
    <glyph glyph-name="khomutthai" unicode="&#xe5b;" horiz-adv-x="2147" 
d="M632 482q-51 -47 -120 -47q-30 0 -56.5 10t-45 27.5t-29 40.5t-10.5 49q0 24 10 47t28.5 40t45 27.5t57.5 10.5q48 0 80 -23q0 69 -43 107.5t-107 38.5q-45 0 -84 -18.5t-67 -52.5t-44 -81t-16 -105q0 -73 20.5 -132t56.5 -100t86.5 -63t108.5 -22q69 0 128 31t103 87
t69.5 134t25.5 173v26l-3 39l46 44l153 -252l109 238l106 -210l96 172l107 -170l95 129l96 -109l31 46h350l-74 -68h-218l-92 -88l-87 86l-106 -143l-96 147l-114 -188l-89 190l-99 -217l-132 211q-15 -88 -52.5 -158t-91.5 -119.5t-121 -75.5t-140 -26q-75 0 -140 26.5
t-113.5 74.5t-78.5 114t-34 146q0 79 22 143.5t61 111t95 71.5t127 25q59 0 105 -17.5t78 -49t49.5 -75t17.5 -95.5q0 -98 -60 -158zM448 562q0 -28 17.5 -45.5t43.5 -17.5q30 0 47.5 17.5t17.5 45.5q0 27 -17.5 45t-47.5 18q-26 0 -43.5 -18t-17.5 -45z" />
    <glyph glyph-name="saraulowthai" unicode="&#xfc;" 
d="M-278 -487v-309h-143v121q2 11 4 21.5t4 19.5h-57v147h192z" />
    <glyph glyph-name="saraulowthai" unicode="&#xf718;" 
d="M-278 -487v-309h-143v121q2 11 4 21.5t4 19.5h-57v147h192z" />
    <glyph glyph-name="sarauulowthai" unicode="&#xfd;" 
d="M-132 -487v-143q0 -42 -20.5 -75.5t-52 -56t-68.5 -34.5t-71 -12q-32 0 -68 10.5t-66.5 31.5t-51.5 51.5t-23 69.5q1 4 1 11h-49v147h183v-146q1 -8 10 -16.5t21 -15.5t24 -12t19 -5t19.5 5t25 12.5t22 17t9.5 17.5v143h136z" />
    <glyph glyph-name="sarauulowthai" unicode="&#xf719;" 
d="M-132 -487v-143q0 -42 -20.5 -75.5t-52 -56t-68.5 -34.5t-71 -12q-32 0 -68 10.5t-66.5 31.5t-51.5 51.5t-23 69.5q1 4 1 11h-49v147h183v-146q1 -8 10 -16.5t21 -15.5t24 -12t19 -5t19.5 5t25 12.5t22 17t9.5 17.5v143h136z" />
    <glyph glyph-name="phinthulowthai" unicode="&#xfe;" 
d="M-203 -596q0 -23 -8.5 -42.5t-23.5 -34.5t-35 -23.5t-42 -8.5q-23 0 -42.5 8.5t-34 23.5t-23 34.5t-8.5 42.5q0 22 8.5 42t23 35t34 23.5t42.5 8.5q22 0 42 -8.5t35 -23.5t23.5 -35t8.5 -42z" />
    <glyph glyph-name="phinthulowthai" unicode="&#xf71a;" 
d="M-203 -596q0 -23 -8.5 -42.5t-23.5 -34.5t-35 -23.5t-42 -8.5q-23 0 -42.5 8.5t-34 23.5t-23 34.5t-8.5 42.5q0 22 8.5 42t23 35t34 23.5t42.5 8.5q22 0 42 -8.5t35 -23.5t23.5 -35t8.5 -42z" />
    <glyph glyph-name="nptp3.001march2007r" unicode="&#xe3e;" 
 />
    <glyph glyph-name="ZWSP" unicode="&#x200b;" 
 />
    <glyph glyph-name="uni25CC" unicode="&#x25cc;" horiz-adv-x="1082" 
d="M537 341q18 0 35 -7t29.5 -19.5t20 -29.5t7.5 -36q0 -18 -7.5 -34.5t-20 -29t-29.5 -20t-35 -7.5q-20 0 -36.5 7.5t-29 20t-19.5 29t-7 34.5q0 39 26.5 65.5t65.5 26.5zM856 664q19 0 36 -7.5t30 -20t20 -29t7 -34.5q0 -42 -24 -68.5t-69 -26.5q-37 0 -64 26.5t-27 68.5
q0 18 7.5 34.5t20 29t29 20t34.5 7.5zM214 664q17 0 33.5 -7.5t29 -20t20.5 -29t8 -34.5q0 -42 -27 -68.5t-64 -26.5t-64.5 26.5t-27.5 68.5q0 18 7.5 34.5t20 29t29.5 20t35 7.5zM537 985q18 0 35 -7t29.5 -19.5t20 -29.5t7.5 -36t-7.5 -35.5t-20 -28.5t-29.5 -19t-35 -7
q-39 0 -65.5 26t-26.5 64q0 39 26.5 65.5t65.5 26.5zM318 881q42 0 67.5 -24t25.5 -69q0 -38 -25.5 -64.5t-67.5 -26.5q-18 0 -34.5 7t-29 19.5t-20 29t-7.5 35.5q0 45 27 69t64 24zM753 881q18 0 34.5 -6t29 -18t20.5 -29.5t8 -39.5q0 -38 -26.5 -64.5t-65.5 -26.5
q-18 0 -35 7t-29.5 19.5t-20 29t-7.5 35.5q0 45 27.5 69t64.5 24zM753 445q18 0 34.5 -7t29 -19t20.5 -29t8 -36q0 -18 -7 -34.5t-19.5 -29t-29.5 -20t-36 -7.5q-18 0 -35 7.5t-29.5 20t-20 29t-7.5 34.5q0 19 7.5 36t20 29t29.5 19t35 7zM318 445q42 0 67.5 -26t25.5 -65
q0 -37 -25.5 -64t-67.5 -27q-18 0 -34.5 7.5t-29 20t-20 29t-7.5 34.5q0 39 27 65t64 26z" />
    <glyph glyph-name="Fontcraft" horiz-adv-x="1942" 
d="M680 -161q0 -5 -0.5 -10.5t-1.5 -12.5q-10 -38 -32 -56.5t-52 -18.5q-35 0 -47.5 19t-12.5 39q0 28 9 47t22.5 30t28 15.5t26.5 4.5q29 0 44.5 -15.5t15.5 -41.5zM648 -177q5 16 -1.5 29t-26.5 13q-26 0 -40.5 -21t-14.5 -49q0 -5 4.5 -14t24.5 -9q23 0 35 13.5t19 37.5z
M924 -108q7 0 11.5 -4.5t4.5 -9.5q0 -17 -16 -17h-26l-15 -60v-17q0 -5 0.5 -8.5t5.5 -3.5q3 0 7 1.5t7 1.5q16 0 16 -14q0 -11 -9.5 -14.5t-17.5 -3.5q-20 0 -30.5 12.5t-10.5 32.5q0 5 1.5 10t1.5 10l12 53h-16q-16 0 -16 17q0 5 4 9.5t12 4.5h22l11 52q0 5 4.5 8.5
t10.5 3.5q7 0 11 -6t4 -13l-8 -45h19zM541 -122q0 -17 -16 -17h-22l-23 -106q-5 -29 -23.5 -44t-44.5 -15q-7 0 -12 4.5t-5 11.5q0 11 7.5 12.5t17 3t18.5 7.5t11 26l21 100h-18q-7 0 -12 4.5t-5 12.5q0 5 5 9.5t12 4.5h24l5 24q5 26 23.5 42t46.5 16q5 0 10 -4t5 -11
q0 -13 -7 -14t-16.5 -1.5t-18.5 -6t-13 -26.5l-3 -19h17q8 0 12 -4.5t4 -9.5zM817 -130q2 -5 3 -10t1 -10q0 -3 -0.5 -5t-0.5 -6l-18 -84q-5 -14 -16 -14q-6 0 -10.5 5.5t-4.5 10.5q0 3 1 4l17 85q0 13 -4 15.5t-6 5.5q-5 0 -20 -5t-29 -18l-20 -89q-2 -14 -16 -14
q-6 0 -10 5.5t-4 10.5v4l27 123q3 12 14 12q7 0 11.5 -4t4.5 -8h1q8 4 17 7.5t17 4.5q8 0 23.5 -3.5t21.5 -22.5zM1510 -108q6 0 10 -4.5t4 -9.5q0 -17 -14 -17h-29l-12 -60q-2 -7 -2 -10v-7t1 -8t6 -4q4 0 7.5 1.5t6.5 1.5q5 0 10.5 -3.5t5.5 -11.5q0 -10 -8.5 -13.5
t-18.5 -3.5q-16 0 -28.5 11t-12.5 34q0 5 1 10l2 10l11 53h-43l-22 -106q-5 -25 -22 -42t-47 -17q-6 0 -10.5 4.5t-4.5 11.5q0 12 7.5 13.5t17 3t18 7t10.5 25.5l22 100h-20q-5 0 -9.5 4.5t-4.5 12.5q0 5 4.5 9.5t9.5 4.5h27l2 24q1 5 4 14.5t10.5 19.5t21 17t35.5 7
q5 0 9.5 -4t4.5 -11q0 -10 -6.5 -12t-15.5 -4t-18 -8t-13 -24l-5 -19h44l6 20q0 5 4.5 8t9.5 3q6 0 10.5 -3.5t4.5 -10.5q0 -1 -0.5 -3.5t-2.5 -13.5h22zM1198 -119q0 -6 -5.5 -10t-11.5 -4q-32 0 -38 -34l-17 -79q-2 -13 -14 -13q-8 0 -12 5.5t-4 10.5v4l16 78
q8 31 25.5 44t43.5 13q6 0 11.5 -4.5t5.5 -10.5zM1307 -229q-25 -27 -64 -27q-21 0 -38 14t-13 41q2 13 10 21t18.5 13t22 7t21.5 4h15t13 -1q0 2 1 5t1 5q0 6 -4.5 10.5t-18.5 4.5q-6 0 -19.5 -3.5t-25.5 -3.5q-13 0 -13 9q0 8 7 13.5t16.5 8.5t21 4.5t20.5 1.5
q18 0 27.5 -5t14 -12t5.5 -13.5t1 -10.5q0 -3 -1.5 -7.5t-2.5 -8.5zM1287 -187q-34 0 -49.5 -4.5t-17.5 -19.5q0 -8 10.5 -12.5t22.5 -4.5q6 0 13 2t12 4zM1096 -133q0 -2 1 -4t1 -3q0 -5 -4 -10.5t-10 -5.5t-9.5 3.5l-8 8t-10.5 8t-16 3.5q-16 0 -33.5 -17t-17.5 -51
q0 -27 30 -27q11 0 19.5 6t16.5 6q15 0 15 -17q0 -6 -5.5 -11t-13.5 -8.5t-17 -5t-15 -1.5q-34 0 -47.5 19t-13.5 39q0 25 7.5 43.5t19.5 30.5t26.5 17.5t28.5 5.5q24 0 36 -9.5t20 -19.5zM962 1146q118 0 223 -44.5t183.5 -122.5t124.5 -183t46 -225q0 -119 -45 -223.5
t-123 -183t-183 -124t-226 -45.5q-119 0 -223.5 44.5t-182.5 122.5t-123.5 183t-45.5 226q0 79 20.5 153t58 137.5t90 116t116.5 90t137.5 58t152.5 20.5zM962 101q96 0 181.5 37t150 100.5t102 149t37.5 183.5q0 71 -20 136t-57 122l-75 -326q-6 -32 -24.5 -63.5t-47 -56
t-64 -39.5t-74.5 -15q-37 0 -68.5 15t-54.5 40q-31 -25 -65 -40t-74 -15q-37 0 -66.5 13.5t-50.5 35.5t-32 50.5t-11 58.5q0 5 0.5 11.5t3 20t7.5 37t13 63.5q-11 -4 -21.5 0t-18.5 12t-13.5 18.5t-5.5 21.5q0 12 3.5 22.5t13.5 18.5t27.5 13t44.5 5q15 0 32 -3.5
t30.5 -11.5t20.5 -21.5t4 -34.5l-34 -156q-4 -26 9 -47t44 -21q19 0 37 8t32.5 21t24.5 29t14 32l33 157q4 19 18 30.5t34 11.5q22 0 37 -16t15 -37q0 -2 -0.5 -5.5t-4 -19.5t-10.5 -49.5t-20 -93.5q-5 -26 8 -47t44 -21q16 0 34 7.5t33.5 20t27 28.5t14.5 34l91 401
q-62 54 -141.5 84t-167.5 30q-97 0 -182.5 -37t-149.5 -100.5t-101.5 -149t-37.5 -182.5q0 -98 37.5 -183.5t101.5 -149t149.5 -100.5t182.5 -37z" />
    <glyph glyph-name="lochula.short" horiz-adv-x="1138" 
d="M987 986q-24 -46 -57 -75q42 -31 66.5 -76.5t24.5 -114.5v-497q0 -50 -20.5 -92.5t-56 -74.5t-83 -50t-100.5 -18h-37q-99 0 -170 57q-33 -27 -72.5 -42t-86.5 -15h-35q-50 0 -94.5 18.5t-78 50t-53 74.5t-19.5 92v792h146v-792q0 -18 8 -34.5t21.5 -28.5t31.5 -19t38 -7
h35q21 0 39 7t31.5 19t21 28.5t7.5 34.5v366h147v-366q0 -14 -2 -26t-5 -24q14 -18 37.5 -28.5t52.5 -10.5h37q22 0 42.5 7.5t36.5 20t25.5 28.5t9.5 33v496q0 35 -19.5 56.5t-49.5 34t-65.5 17t-66.5 4.5v147q25 0 60 4.5t66 22t53 51.5t22 93v114h146v-114q0 -48 -9 -88.5
t-25 -73.5v-1z" />
    <glyph glyph-name="saraamleft" horiz-adv-x="857" 
d="M741 0h-147v717q0 31 -14 60.5t-42 52t-70.5 36.5t-99.5 14t-131 -19t-171 -64l-61 133q108 50 198.5 73.5t164.5 23.5q84 0 152.5 -24t117.5 -66t76 -98.5t27 -121.5v-717zM-509 1441q36 0 68 -14t56.5 -38.5t38.5 -56.5t14 -68q0 -38 -14 -70t-38.5 -56t-56.5 -37.5
t-68 -13.5q-38 0 -70 13.5t-56 37.5t-37.5 56t-13.5 70q0 36 13.5 68t37.5 56.5t56 38.5t70 14zM-509 1202q25 0 42.5 18t17.5 44t-17.5 43t-42.5 17q-26 0 -43 -17t-17 -43t17 -44t43 -18z" />
    <glyph glyph-name="yamakkanleftthai" 
d="M-714 1320q0 42 21.5 77.5t67.5 64.5q-13 22 -13 50q0 40 24.5 75t63.5 61t88.5 41t100.5 15q47 0 88 -10.5t94 -29.5v-129q-35 9 -59.5 17t-44 14t-37.5 9.5t-41 3.5t-49.5 -5.5t-49.5 -15t-38 -21.5t-15 -25q2 0 15.5 -3.5t38.5 -9.5l46 -15v-106h-49q-5 0 -18 1t-18 1
q-14 0 -30 -6.5t-29.5 -15.5t-22.5 -19.5t-9 -18.5q0 -18 19 -30t50 -12q22 0 38 5t28.5 15t22 24.5t20.5 33.5h128l-38 -96q-56 -107 -199 -107q-43 0 -78.5 13t-61 35.5t-40 53t-14.5 65.5z" />
    <glyph glyph-name="Naipol" 
d="M71 617q-1 -1 -3 -1v2q3 0 3 -1zM28 649q-2 -1 -9 -1q-4 0 -8 0.5t-18 5.5q-5 1 -8.5 1.5t-5.5 0.5h-4l-5 -2q6 8 11 8h16t19 -5q1 0 2 -1q5 -2 6.5 -3.5zM87 710q0 -9 -2 -20.5t-4.5 -23t-5 -22t-3.5 -17.5l-3 5q-4 -3 -9 -11.5t-9 -18t-7 -17t-3 -8.5v79q-10 9 -18 50
q-25 43 -83 43q-63 0 -80 -53l-25 -45v-89h-8q-2 24 -5.5 52t-11.5 45q-1 -2 -2 -6t-2 -9l-3 15q-3 -6 -3 -12q0 -8 5 -22t5 -23q-22 29 -22 99v21l16 26h4q2 0 2 1v7q25 8 29 54q11 5 20 8t9 10q8 0 12 4q7 -6 20 -6q0 6 13 13l9 -13q2 5 4 9.5t4 7.5h5q3 0 9 8
q20 0 76 -14q5 -9 17 -17t17 -10q1 -9 6 -24t11 -30.5t10.5 -28.5t5.5 -17zM-13 629q-6 0 -11 1t-9 1h-4l7 6q6 6 9 6q17 0 24.5 -4.5t7.5 -6.5l4 -3h-28zM-14 624q-2 -2 -6 -2v2h6zM41 567q0 -7 -5 -7q1 7 5 11v-4zM-180 770q0 -1 -2 -1v2q2 0 2 -1zM-76 636q0 -3 -3 -3v7
q3 0 3 -4zM-88 660q-3 -1 -8 -1h-21.5t-27.5 4l1 1l2 2q7 5 18 5q18 0 36 -11zM-38 582h-12l8 2h2zM-86 636q0 -1 -7.5 -4.5t-17.5 -4.5l15 4q1 1 1 2.5t1 1.5h-2q-4 0 -11.5 2t-10.5 2q-18 0 -21 1q3 2 8 6t15 4q19 0 24 -4l4 -5zM-79 584h-2l-1 1q-4 0 -4 2q0 1 2 1
q7 0 7 -4h-2zM-17 555q0 -6 -7 -12t-16 -10.5t-17 -7t-10 -2.5t-6 0.5t-11 0.5q-5 0 -11 4t-11 9.5t-8.5 11.5t-3.5 11q4 0 14 1t15 1q6 0 13.5 -2.5t10.5 -2.5t11.5 1.5t13.5 1.5q10 -2 18 -4.5t5 -0.5zM-192 635q0 -2 -3 -2v3q3 0 3 -1zM-164 560v2q3 0 3 -2h-3zM-161 546
v9q4 -1 4 -9h-4zM-376 240v29v12q0 8 1 12q16 103 60 132q12 8 22.5 13t19.5 9q25 16 87 41q4 1 14 2.5t24 10.5v12v3v5q-9 19 -9 21v2q3 0 5 -5q0 -3 1 -4q5 -13 18 -23.5t27 -21.5q21 -8 36 -8q8 0 22 3.5t30 12t30.5 23t22.5 35.5q0 -10 -14 -33q-4 -4 -8.5 -9t-4.5 -19
q0 -4 1 -6h2q8 0 15 -0.5t12 -3.5q89 -33 145 -90q35 -44 35 -115v-23v-8v-9h-594zM53 800q0 4 -6 8.5t-12 4.5l11 -17q7 0 7 4zM-17 840q0 3 -6 3v-6q6 0 6 3zM-29 843q-9 0 -9 -2t5 -4q1 1 1.5 2.5t2.5 3.5zM-157 783q0 4 -4 4v-6q4 0 4 2zM9 631q-4 0 -5.5 1.5l-3.5 3.5
t-6.5 3.5t-13.5 1.5q-2 0 -4 -2.5t-8 -6.5h11q1 -1 3 -1h5h8q2 0 4 1h2q1 -1 8 -1zM-92 639l-1 3q-2 1 -3.5 2t-3.5 2l-1 1q1 0 1 -3q0 -4 -7 -5h15zM-100 643q0 2 -2 2t-2 -2t2 -2t2 2zM-109 639q-6 1 -6 5q0 2 5 4h-7q-2 -1 -11 -6h3q1 0 7 -1.5t9 -1.5zM-27 553q0 2 -9 2
q-2 0 -11.5 -1t-14.5 -1q-4 0 -6 0.5t-5 1.5t-7.5 1.5t-13.5 0.5q-1 0 -5.5 -0.5t-6.5 -0.5h-2q1 -2 8 -11q4 -1 13.5 -3t17.5 -2q4 0 12 0.5t15 0.5q2 0 8.5 5t6.5 7zM-57 533v2h-4v-1h-4h-2v-3h7l3 1v1zM-72 531v1l-6 1l-2 1l-1 -2h1l1 -1l2 -2h5v2zM41 466q-4 16 -24 16
q-2 0 -2 -2q0 -10 5 -18q-14 -33 -39 -49q2 6 4 11.5t7 5.5q1 1 2 7.5t2.5 14t2.5 14.5t1 10q0 13 -4 18q-40 -25 -66 -25q-16 0 -31 9.5t-40 28.5q0 -3 0.5 -4.5t0.5 -3.5v-2v1q0 -3 -6 -4l2 -27q-4 4 -19 9l-19 5q6 -62 88 -104q8 0 26.5 0.5t35.5 11.5l27 20q2 9 24 24
t22 33zM-13 640q8 0 8 -5q0 -3 -8 -3t-8 3q0 5 8 5zM-19 634q3 0 3 1q-2 2 -3 2q-2 0 -2 -2q0 -1 2 -1z" />
    </font>
</defs>
</svg>
